<?xml version="1.0" standalone="no"?>
<!DOCTYPE svg PUBLIC "-//W3C//DTD SVG 20010904//EN"
 "http://www.w3.org/TR/2001/REC-SVG-20010904/DTD/svg10.dtd">
<svg version="1.0" xmlns="http://www.w3.org/2000/svg"
 width="400.000000pt" height="400.000000pt" viewBox="0 0 400.000000 400.000000"
 preserveAspectRatio="xMidYMid meet">
<metadata>
Created by potrace 1.14, written by Peter Selinger 2001-2017
</metadata>
<g transform="translate(0.000000,400.000000) scale(0.100000,-0.100000)"
fill="#000000" stroke="none">
<path d="M558 3443 c29 -12 8 -19 -38 -13 -27 4 -50 3 -50 -2 0 -4 -5 -8 -11
-8 -5 0 -8 3 -6 8 3 4 -6 7 -19 7 -13 0 -24 -3 -24 -7 0 -4 -13 -3 -30 2 -25
7 -30 6 -30 -8 0 -13 -3 -13 -16 4 -8 10 -12 13 -8 5 5 -11 3 -13 -11 -7 -15
5 -16 4 -5 -9 11 -13 10 -14 -4 -9 -9 3 -16 1 -16 -6 0 -6 -4 -9 -8 -6 -5 3
-9 -1 -9 -9 0 -8 5 -12 10 -8 5 3 4 -4 -2 -14 -6 -11 -7 -23 -4 -27 3 -3 1 -6
-5 -6 -8 0 -9 -7 -2 -24 7 -20 6 -26 -8 -29 -11 -3 -9 -5 7 -6 24 -1 24 -1 5
-16 -10 -8 -14 -15 -9 -14 22 3 29 -2 15 -11 -10 -6 -11 -10 -2 -10 6 0 12
-10 13 -22 0 -22 1 -22 9 -3 8 20 9 20 9 -1 1 -28 11 -36 28 -23 7 6 13 8 13
3 0 -5 18 -9 40 -9 22 0 40 4 40 10 0 5 5 3 10 -5 5 -8 10 -10 10 -4 0 6 10
10 23 9 13 -2 21 -8 19 -16 -1 -9 3 -7 12 4 14 18 15 18 26 0 10 -15 11 -16 6
-1 -3 10 -1 20 5 23 5 4 8 1 7 -6 -2 -6 3 -14 11 -17 10 -3 11 0 5 9 -6 12 -5
12 8 1 13 -10 17 -10 21 0 3 10 9 8 25 -5 15 -14 22 -15 28 -6 4 8 3 10 -4 5
-7 -4 -12 -3 -12 3 0 11 53 8 84 -5 14 -5 17 -4 11 5 -6 10 -3 11 12 2 11 -6
23 -8 26 -4 4 3 13 1 20 -5 10 -9 19 -7 37 5 13 9 20 12 17 6 -4 -6 0 -13 8
-16 10 -4 12 -1 8 11 -5 13 -4 15 8 7 8 -6 28 -9 44 -8 32 3 33 3 98 3 23 0
56 1 73 3 23 2 30 -1 27 -10 -4 -9 0 -11 11 -7 9 3 13 11 9 18 -4 6 5 3 19 -6
19 -13 29 -15 34 -6 5 7 3 8 -6 3 -9 -6 -11 -4 -5 4 5 9 10 10 18 2 14 -14 30
-14 21 0 -4 8 -1 8 12 1 11 -5 24 -7 31 -5 6 2 14 -1 18 -6 4 -8 12 -8 26 0
15 8 24 7 35 -2 12 -10 13 -9 8 6 -6 14 -4 16 7 9 8 -4 21 -7 30 -6 12 2 16
-6 17 -29 0 -18 7 -36 14 -40 10 -7 9 -9 -4 -9 -9 0 -20 -5 -24 -12 -4 -6 -3
-8 4 -4 17 11 22 -9 8 -36 -11 -20 -11 -25 0 -25 7 0 10 5 7 10 -4 6 -1 7 7 2
10 -6 8 -12 -8 -26 -18 -14 -19 -18 -6 -23 10 -4 13 -2 8 6 -4 7 -3 8 5 4 9
-6 9 -11 0 -22 -6 -8 -9 -25 -7 -39 3 -14 1 -25 -4 -25 -5 0 -4 -8 1 -19 6
-10 8 -21 4 -24 -13 -14 -9 -102 6 -120 13 -16 13 -17 -1 -12 -13 5 -15 0 -13
-24 1 -17 8 -37 15 -46 11 -13 10 -15 -1 -10 -10 4 -14 -3 -14 -24 0 -16 3
-27 8 -24 4 2 7 0 7 -6 0 -5 -5 -11 -11 -13 -8 -3 -6 -10 5 -21 15 -14 15 -17
2 -17 -8 0 -18 -4 -21 -10 -3 -5 0 -7 7 -5 10 4 13 -5 10 -36 -3 -33 -1 -40 9
-35 8 4 7 1 -2 -5 -14 -10 -15 -17 -6 -38 9 -19 9 -25 -1 -29 -10 -3 -10 -7
-1 -18 6 -8 7 -14 2 -14 -6 0 -8 -12 -5 -26 3 -15 -1 -29 -7 -34 -9 -5 -8 -9
4 -13 10 -5 14 -3 9 5 -4 7 -3 8 4 4 17 -10 15 -15 -10 -26 -17 -6 -18 -9 -6
-9 14 -1 15 -6 8 -30 -6 -22 -4 -33 9 -45 13 -14 13 -16 1 -11 -12 4 -15 -3
-12 -40 3 -30 8 -43 16 -39 6 3 4 0 -5 -8 -11 -9 -13 -22 -8 -45 4 -21 3 -30
-4 -26 -5 3 -7 0 -5 -8 3 -8 12 -13 19 -11 8 1 3 -6 -10 -16 -18 -14 -21 -21
-11 -27 9 -6 11 -4 5 6 -5 8 -4 10 0 6 14 -12 15 -37 2 -37 -7 0 -5 -5 3 -10
8 -5 10 -10 4 -10 -7 0 -10 -14 -7 -37 9 -78 9 -103 2 -103 -9 0 -5 -27 6 -37
4 -4 5 -2 0 6 -5 10 -4 12 4 7 15 -10 4 -26 -17 -26 -16 -1 -16 -1 1 -11 9 -5
17 -15 17 -20 0 -6 -4 -8 -8 -5 -5 3 -9 -1 -9 -9 0 -8 3 -12 7 -10 14 9 5 -40
-10 -53 -8 -8 -10 -11 -3 -8 6 4 14 2 18 -4 3 -5 0 -10 -7 -10 -9 0 -9 -3 2
-10 10 -6 11 -10 3 -10 -7 0 -13 -5 -13 -11 0 -5 4 -8 8 -5 4 2 8 -4 8 -15 0
-13 -5 -18 -15 -14 -10 4 -11 2 -3 -8 6 -7 9 -24 6 -38 -5 -19 -3 -21 5 -9 7
9 11 10 11 3 0 -6 -4 -15 -10 -18 -5 -3 -10 -11 -10 -16 0 -6 4 -8 9 -5 12 8
2 -35 -13 -53 -8 -11 -8 -13 1 -8 8 5 11 0 10 -13 -1 -11 -5 -20 -9 -20 -11 0
-6 -23 7 -32 6 -5 3 -8 -6 -8 -9 0 -20 -7 -23 -16 -3 -8 -2 -12 4 -9 6 3 10 1
10 -4 0 -6 -5 -11 -11 -11 -5 0 -7 -4 -4 -10 3 -5 2 -10 -4 -10 -5 0 -8 -9 -6
-20 2 -11 0 -18 -6 -15 -5 4 -9 -1 -9 -9 0 -8 -10 -25 -22 -37 -13 -12 -17
-19 -10 -14 11 6 11 3 0 -14 -7 -12 -17 -21 -21 -21 -12 0 -46 -42 -47 -58 0
-7 -4 -10 -10 -7 -5 3 -10 1 -10 -4 0 -18 -32 -50 -45 -45 -6 3 -17 -5 -23
-18 -6 -13 -11 -17 -11 -10 -1 7 -6 10 -11 7 -6 -4 -7 -11 -4 -17 5 -7 1 -9
-9 -5 -11 4 -25 -2 -38 -16 -12 -12 -18 -15 -14 -8 5 8 -6 5 -24 -8 -18 -13
-35 -20 -38 -17 -4 3 0 6 7 6 7 0 10 3 7 6 -4 4 -13 1 -22 -6 -8 -7 -22 -10
-30 -6 -9 3 -13 2 -10 -3 3 -5 1 -12 -5 -16 -5 -3 -10 -1 -10 4 0 6 -5 11 -11
11 -5 0 -7 -6 -3 -12 5 -10 4 -10 -6 -1 -15 14 -42 6 -34 -11 3 -6 -2 -2 -10
8 -9 11 -16 15 -16 10 0 -6 -7 -11 -15 -11 -8 0 -15 5 -15 11 0 6 -5 4 -10 -4
-9 -13 -10 -13 -10 0 0 9 -3 11 -8 5 -12 -17 -35 -17 -29 0 4 8 2 15 -3 15 -6
0 -10 -5 -10 -11 0 -8 -6 -7 -17 2 -11 10 -14 10 -9 2 4 -7 2 -13 -3 -13 -6 0
-11 8 -12 18 0 11 -2 12 -6 4 -4 -10 -9 -9 -20 5 -14 17 -14 17 -9 -2 5 -18 4
-18 -13 3 -11 13 -22 23 -25 22 -26 -2 -36 2 -31 10 3 6 1 10 -4 10 -6 0 -11
-6 -12 -12 0 -7 -4 -3 -9 9 -8 20 -25 28 -51 25 -4 -1 -5 9 -2 21 3 16 2 18
-5 8 -10 -14 -32 -7 -32 10 0 5 -7 17 -16 27 -8 9 -23 26 -32 37 -9 12 -12 14
-7 6 7 -11 7 -13 -2 -7 -7 4 -18 16 -24 28 -9 16 -8 19 3 13 7 -3 4 1 -7 10
-11 9 -19 20 -18 25 2 5 -6 14 -18 20 -16 9 -18 14 -8 26 11 13 3 19 -23 15
-4 0 -3 11 2 25 7 17 7 23 0 19 -6 -3 -10 3 -10 15 0 14 -4 19 -12 14 -9 -5
-9 -2 1 9 10 13 10 17 1 17 -9 0 -9 4 1 17 12 14 12 16 0 8 -11 -6 -13 -3 -9
13 4 12 3 22 -1 22 -4 0 -6 14 -5 30 1 19 -3 30 -11 30 -8 0 -17 5 -21 12 -4
6 -3 8 3 5 5 -3 10 0 10 8 0 9 -5 14 -11 13 -6 -1 -20 2 -31 8 -24 12 -55 12
-74 0 -10 -7 -12 -6 -6 4 5 8 3 11 -6 8 -8 -3 -13 -11 -11 -18 3 -11 0 -11
-12 -1 -9 7 -13 18 -10 23 3 5 -3 4 -14 -3 -12 -7 -18 -17 -15 -23 4 -6 -1 -7
-13 -2 -10 4 -15 4 -11 0 4 -4 -2 -14 -14 -22 -16 -11 -17 -17 -8 -28 9 -11 9
-14 0 -14 -7 0 -9 -5 -5 -12 5 -8 2 -9 -10 -5 -10 4 -15 3 -11 -3 3 -6 14 -10
23 -10 13 0 13 -2 -4 -16 -10 -8 -14 -13 -8 -10 15 8 25 -17 14 -34 -5 -8 -5
-21 0 -31 5 -9 6 -19 3 -23 -3 -3 -2 -6 4 -6 6 0 9 -15 6 -36 -2 -24 0 -33 7
-29 6 4 10 1 9 -6 -1 -8 1 -21 4 -29 4 -8 8 -25 10 -37 2 -12 11 -31 21 -42
10 -11 15 -25 11 -30 -3 -6 2 -11 12 -11 15 0 16 -2 3 -10 -12 -8 -10 -10 10
-11 14 0 20 -3 13 -5 -7 -3 -9 -12 -6 -20 3 -7 9 -12 13 -9 4 3 11 -6 14 -20
4 -14 11 -25 16 -25 6 0 10 -10 10 -21 0 -18 2 -20 16 -9 8 8 14 9 13 4 -6
-21 13 -54 32 -54 11 0 17 -4 14 -10 -3 -5 -1 -10 5 -10 6 0 8 -4 5 -10 -3 -5
1 -10 9 -10 8 0 21 -9 29 -20 8 -11 17 -17 22 -12 4 4 5 -2 1 -12 -6 -17 -5
-17 11 -5 14 12 16 12 8 0 -6 -11 -4 -13 10 -7 15 5 16 4 5 -9 -11 -13 -10
-14 2 -10 8 3 21 -1 28 -10 7 -8 21 -15 32 -15 10 0 16 -4 13 -10 -3 -5 3 -10
15 -10 14 0 19 -4 14 -12 -6 -10 -5 -10 8 0 12 10 18 10 27 -2 7 -8 20 -12 28
-9 13 5 15 2 9 -13 -6 -15 -5 -16 5 -7 10 10 17 9 33 -5 11 -9 16 -11 12 -4
-4 6 -2 12 3 12 6 0 11 -5 11 -10 0 -6 3 -9 8 -9 21 4 32 -2 26 -14 -5 -8 -2
-8 9 2 13 10 17 10 17 1 0 -10 3 -10 15 0 11 9 15 9 15 1 0 -7 5 -9 11 -6 5 4
21 8 35 10 19 2 22 -1 13 -11 -8 -10 -7 -12 8 -10 44 9 79 10 91 3 6 -5 12 -4
12 2 0 6 7 7 17 4 11 -4 14 -3 9 6 -6 9 -3 9 13 -1 18 -11 23 -11 31 2 5 8 10
10 10 4 0 -6 7 -11 15 -11 8 0 12 4 10 8 -3 3 4 9 16 12 16 4 18 3 9 -8 -10
-12 -6 -12 19 -2 16 6 27 16 23 21 -3 6 3 4 13 -4 14 -11 17 -12 10 -1 -6 11
-1 13 23 9 27 -4 30 -2 19 11 -9 11 -9 13 0 8 6 -4 15 -3 18 3 5 8 11 8 20 0
9 -7 16 -6 24 3 6 8 8 16 6 19 -3 3 6 4 20 2 20 -2 25 1 21 12 -5 12 -2 12 17
3 20 -11 21 -11 9 4 -11 13 -10 15 12 13 14 -2 24 0 21 3 -5 9 5 22 30 41 l20
15 -20 -24 -20 -24 33 23 c32 24 44 38 20 24 -7 -4 -4 2 7 13 11 11 26 18 33
15 6 -2 12 3 12 13 0 11 5 15 16 11 8 -3 12 -2 9 4 -7 11 19 42 28 34 3 -3 4
3 3 13 0 11 5 18 16 17 14 -1 16 2 7 18 -8 15 -8 19 1 13 12 -7 42 24 34 36
-2 4 3 9 11 13 8 3 15 15 15 26 0 12 5 18 10 15 6 -3 10 4 10 18 0 13 9 34 20
47 21 25 26 35 11 26 -5 -4 -4 5 2 19 7 14 17 25 22 25 6 0 3 5 -5 10 -13 9
-13 12 2 24 10 7 14 16 10 20 -4 4 2 14 12 22 15 11 16 14 5 14 -20 0 -18 38
2 51 9 6 10 9 2 9 -14 0 -6 30 11 43 7 6 4 7 -6 3 -10 -3 -18 -1 -18 4 0 6 5
10 11 10 5 0 7 4 4 10 -3 5 0 20 6 32 11 20 10 21 -3 11 -12 -10 -15 -10 -15
2 0 8 5 15 11 15 6 0 4 5 -4 10 -13 9 -13 10 0 10 11 1 10 4 -4 15 -16 12 -17
15 -4 15 13 0 14 6 7 37 -4 21 -5 40 -1 43 10 8 8 34 -3 42 -6 5 -5 8 3 8 10
0 10 5 2 20 -9 16 -8 20 7 21 17 0 17 1 1 7 -12 5 -15 11 -8 21 5 9 5 23 -2
34 -7 14 -7 17 1 13 6 -4 11 -3 11 3 0 5 -6 11 -12 14 -10 3 -10 7 1 20 11 14
11 17 0 18 -8 0 -5 4 6 9 l20 9 -20 0 c-17 1 -17 3 -5 11 14 9 7 14 -15 11 -5
-1 -3 4 5 11 15 12 18 63 6 76 -3 3 2 11 12 19 9 8 12 12 5 9 -6 -4 -14 -2
-18 4 -3 5 -1 10 5 10 8 0 7 6 -1 21 -8 15 -8 19 0 15 6 -4 11 -2 11 3 0 6 -6
11 -12 11 -9 0 -8 4 2 10 8 5 10 10 4 10 -6 0 -11 7 -11 15 0 12 3 12 15 2 12
-9 11 -5 -2 22 -10 18 -13 30 -7 27 6 -4 11 -3 11 3 0 5 -6 12 -12 14 -7 3 -8
6 -2 6 11 1 10 52 -1 72 -5 8 -4 10 3 5 15 -9 15 -1 1 26 -8 15 -8 19 0 14 6
-4 11 -2 11 3 0 6 -6 11 -12 11 -10 0 -9 3 1 9 11 7 11 9 0 14 -9 4 -7 6 6 7
l20 1 -20 9 c-11 5 -14 9 -6 9 11 1 11 4 1 16 -7 8 -8 15 -3 15 10 0 8 60 -2
89 -4 8 0 11 10 7 12 -4 13 -2 2 14 -9 15 -9 25 -1 38 9 13 7 23 -5 42 -9 14
-11 21 -3 17 6 -5 12 -4 12 2 0 6 -4 11 -10 11 -5 0 -7 7 -3 17 3 9 6 38 7 64
0 26 4 45 9 42 5 -3 7 -13 4 -23 -3 -13 0 -17 9 -13 8 3 15 -1 15 -8 1 -8 2
-21 3 -29 0 -8 6 -14 13 -13 7 2 10 -6 8 -17 -2 -11 1 -20 6 -20 6 0 7 -4 4
-10 -3 -5 -1 -10 5 -10 6 0 8 -4 5 -10 -3 -5 0 -10 7 -10 11 0 10 -2 0 -9 -11
-7 -10 -9 3 -15 9 -3 13 -10 10 -16 -3 -5 -2 -10 3 -10 9 0 23 -35 27 -65 0
-5 7 -9 15 -7 11 3 11 0 -1 -14 -9 -12 -9 -15 -2 -10 7 4 14 2 14 -3 3 -21 4
-26 12 -38 5 -7 6 -17 3 -22 -3 -5 1 -12 10 -15 9 -4 14 -13 10 -22 -4 -10 -2
-13 6 -8 8 5 9 2 5 -9 -3 -10 -2 -17 3 -17 6 0 10 -7 10 -15 0 -8 5 -15 10
-15 6 0 10 -5 10 -11 0 -5 -6 -7 -12 -4 -7 4 -5 0 5 -8 10 -8 16 -21 15 -28
-2 -8 2 -13 8 -12 7 1 10 -6 7 -16 -3 -11 2 -21 12 -25 11 -4 14 -12 10 -27
-5 -16 -4 -19 6 -14 9 6 11 3 6 -8 -4 -12 -1 -17 11 -18 10 0 12 -3 5 -6 -10
-3 -9 -8 2 -20 8 -8 13 -19 10 -24 -4 -5 -1 -9 5 -9 6 0 9 -4 5 -9 -3 -5 2
-16 10 -25 9 -8 16 -18 15 -21 -1 -21 1 -25 10 -20 6 4 7 -1 3 -10 -3 -10 0
-21 8 -26 17 -10 19 -29 6 -47 -7 -9 -6 -11 6 -7 8 4 18 2 22 -4 3 -6 1 -11
-5 -11 -6 0 -8 -5 -5 -10 4 -6 12 -7 18 -4 7 4 9 4 5 -1 -4 -4 -2 -15 5 -23
10 -13 9 -15 -3 -8 -13 6 -13 5 0 -6 9 -7 14 -21 12 -30 -2 -12 3 -18 14 -18
10 0 14 -3 11 -7 -4 -3 -1 -13 6 -21 10 -13 9 -14 -1 -8 -11 7 -11 4 0 -15 7
-13 17 -27 21 -30 5 -3 9 -10 10 -15 1 -5 6 -8 11 -6 5 2 4 -4 -3 -12 -11 -13
-11 -17 2 -22 9 -3 13 -12 10 -21 -4 -11 -2 -14 5 -9 8 4 12 0 12 -11 0 -11 6
-25 13 -32 9 -11 9 -12 0 -7 -9 5 -11 2 -7 -8 3 -9 10 -13 15 -10 6 3 8 -6 5
-21 -4 -24 -3 -25 12 -14 9 8 14 9 10 5 -4 -5 -2 -16 5 -24 9 -12 9 -14 0 -9
-8 5 -8 -1 2 -19 8 -15 11 -32 8 -37 -3 -6 -1 -7 4 -4 6 4 14 0 17 -9 4 -10 2
-13 -7 -9 -6 4 -4 0 6 -8 9 -8 17 -24 17 -35 0 -11 5 -24 11 -27 6 -4 8 -14 5
-22 -3 -8 -1 -11 4 -8 6 3 13 -2 16 -12 14 -45 39 -99 52 -115 8 -9 11 -22 7
-27 -3 -6 -2 -11 4 -11 6 0 15 -18 21 -40 6 -22 15 -38 20 -35 4 3 6 -3 3 -14
-3 -10 1 -22 8 -26 8 -6 10 -4 4 5 -5 8 -4 11 3 6 6 -3 9 -15 7 -26 -2 -11 1
-20 7 -20 6 0 8 -9 5 -20 -3 -11 0 -23 5 -27 7 -4 8 -1 3 7 -5 9 -4 11 3 6 7
-4 12 -16 12 -27 0 -11 9 -29 20 -41 15 -16 17 -25 9 -35 -9 -9 -8 -13 0 -13
7 0 9 -5 6 -10 -4 -6 -1 -9 7 -8 7 2 13 -5 12 -17 0 -11 13 -33 29 -50 17 -16
27 -24 23 -17 -4 6 -2 12 3 12 6 0 11 -8 12 -17 0 -11 3 -13 6 -5 2 6 10 9 16
5 21 -13 38 -12 44 3 4 11 8 12 19 3 12 -10 13 -8 8 6 -5 13 -4 16 4 11 8 -5
12 0 12 14 0 12 4 19 9 16 10 -7 21 17 21 45 0 10 5 19 11 19 5 0 8 4 5 9 -3
5 1 11 9 15 8 3 15 11 15 18 0 9 -3 8 -10 -2 -5 -8 -10 -10 -10 -5 0 6 9 21
20 35 12 16 15 28 9 36 -7 8 -4 11 8 10 13 -1 17 5 15 23 -3 17 0 21 10 15 7
-4 10 -4 6 1 -4 4 -2 15 5 23 9 13 9 14 0 8 -9 -5 -11 -2 -7 8 3 9 11 14 16
13 6 -1 13 4 16 12 3 9 0 11 -9 6 -7 -5 -3 5 9 22 12 17 19 33 15 37 -3 3 -1
6 7 6 10 0 10 3 0 15 -11 13 -10 14 4 9 12 -4 16 0 16 15 0 12 5 21 11 21 6 0
8 7 5 15 -3 9 1 18 9 21 7 3 11 12 8 20 -3 8 0 14 7 14 6 0 8 5 5 10 -3 6 -1
10 4 10 6 0 10 3 10 8 -4 21 3 40 21 60 13 14 16 22 8 22 -9 0 -10 2 -2 8 7 4
14 16 16 27 2 11 9 19 16 18 6 -2 9 4 5 12 -3 9 3 25 13 37 11 12 13 18 7 14
-9 -5 -11 -2 -7 8 3 9 10 13 15 10 5 -3 6 1 3 9 -3 8 2 17 10 20 9 4 12 13 9
28 -5 16 -3 20 6 14 10 -6 11 -2 6 15 -6 19 -4 22 9 17 10 -4 15 -3 11 2 -8
14 6 42 17 35 6 -4 6 2 -1 14 -8 16 -7 21 4 26 9 3 12 12 8 22 -4 11 -2 15 4
11 6 -4 14 0 17 9 3 8 2 12 -4 9 -6 -3 -7 1 -4 9 3 9 10 14 14 11 4 -3 11 2
14 11 3 8 2 12 -4 9 -6 -4 -5 5 1 19 7 14 16 23 20 20 4 -2 6 5 4 17 -3 15 0
19 10 15 9 -3 12 0 8 10 -3 8 2 25 11 39 9 14 14 30 11 35 -3 6 2 10 12 11 13
0 14 2 4 6 -11 4 -8 10 10 25 21 17 21 19 4 14 -19 -6 -19 -5 -3 7 10 8 15 17
11 20 -3 4 0 7 7 7 7 0 10 3 7 7 -4 3 -2 12 3 19 6 6 9 18 8 25 -2 8 2 13 8
12 7 -1 11 9 10 26 -1 20 2 27 11 24 8 -3 13 2 13 14 0 10 6 25 13 32 10 11 9
12 -3 6 -8 -5 -4 4 10 20 14 16 19 25 12 21 -11 -7 -11 -4 -1 12 7 12 17 19
21 16 4 -3 5 2 2 10 -3 9 -1 16 6 16 6 0 9 4 5 9 -3 6 4 26 15 46 11 20 17 41
14 47 -5 7 -2 8 6 3 10 -6 12 -3 8 13 -4 12 -1 20 4 19 6 -1 13 4 16 12 3 9 0
11 -9 7 -8 -4 -6 -1 5 8 10 8 19 26 20 39 0 14 4 23 7 21 10 -6 25 29 28 64 0
7 5 11 10 8 5 -4 7 3 4 14 -3 12 0 20 7 20 7 0 10 7 6 16 -4 10 -2 13 6 8 7
-5 9 0 6 14 -4 13 -2 20 6 19 6 -1 10 6 10 16 -1 9 2 17 8 17 5 0 7 4 3 9 -3
5 -1 12 5 16 6 4 7 11 4 17 -4 7 -2 8 4 4 6 -4 8 -14 5 -23 -4 -9 -2 -14 3
-10 6 3 10 -5 10 -18 0 -14 -4 -21 -11 -17 -5 3 -5 -1 2 -9 7 -9 8 -20 3 -29
-5 -8 -2 -22 7 -37 14 -22 14 -23 -2 -16 -13 4 -16 3 -11 -6 12 -19 14 -61 4
-67 -5 -3 -5 -11 0 -17 10 -15 10 -27 -2 -46 -6 -9 -5 -12 0 -8 6 3 11 -12 11
-34 2 -28 -1 -38 -10 -32 -9 5 -9 3 0 -9 7 -8 10 -18 6 -21 -3 -4 0 -14 8 -24
8 -9 9 -14 3 -10 -7 4 -15 0 -18 -9 -3 -8 -2 -12 4 -9 6 3 10 -1 10 -10 0 -10
-5 -13 -12 -9 -7 5 -8 3 -3 -7 5 -7 9 -25 10 -39 1 -14 5 -32 10 -40 7 -12 6
-13 -6 -3 -11 9 -14 7 -14 -12 0 -13 3 -21 8 -18 9 5 4 -34 -6 -43 -4 -4 -7
-12 -7 -18 0 -6 5 -4 10 4 9 13 10 13 10 0 0 -9 -5 -21 -11 -27 -8 -8 -7 -13
2 -18 8 -6 10 -4 4 5 -5 8 -4 11 3 6 6 -4 9 -13 6 -21 -4 -8 -11 -12 -17 -8
-6 4 -7 1 -2 -8 12 -19 14 -49 3 -55 -4 -3 -8 -11 -8 -17 0 -7 4 -6 11 3 9 12
10 11 6 -6 -2 -12 0 -30 6 -40 9 -16 8 -17 -4 -7 -11 9 -14 7 -14 -12 0 -13 3
-21 6 -19 4 2 5 -15 4 -39 -2 -23 -4 -42 -5 -42 -1 0 -3 -10 -4 -22 -1 -12 1
-20 6 -17 10 6 6 -26 -6 -45 -7 -11 -5 -13 8 -8 13 5 15 3 8 -11 -5 -9 -8 -25
-7 -34 2 -10 -1 -21 -7 -24 -5 -4 -3 -13 7 -24 15 -17 15 -19 -2 -29 -10 -6
-13 -11 -6 -11 6 0 11 -13 11 -30 -1 -18 -5 -27 -12 -23 -6 4 -2 -4 9 -17 11
-13 15 -20 8 -17 -8 5 -11 -8 -9 -45 1 -29 -2 -58 -7 -65 -4 -6 -3 -14 4 -19
8 -5 9 -3 4 6 -6 9 -4 11 5 5 10 -6 9 -11 -5 -22 -11 -7 -15 -13 -9 -13 5 0
10 -13 10 -30 1 -18 -2 -27 -9 -23 -6 4 -7 1 -2 -8 11 -17 12 -50 2 -66 -4 -6
-4 -14 1 -17 4 -2 7 -27 6 -55 -2 -36 1 -49 9 -44 7 4 4 -5 -5 -19 -13 -19
-15 -29 -6 -34 7 -5 8 -3 3 6 -6 9 -4 11 4 6 9 -6 8 -12 -4 -26 -11 -12 -13
-20 -6 -25 16 -9 14 -48 -1 -39 -7 4 -4 -3 7 -16 11 -13 15 -20 9 -17 -7 4
-15 0 -18 -9 -3 -8 -2 -12 3 -9 6 3 9 -8 9 -23 -1 -16 3 -35 7 -42 6 -10 4
-12 -8 -7 -11 4 -14 2 -10 -8 3 -8 10 -12 17 -8 6 4 6 0 -2 -9 -10 -13 -10
-17 0 -21 10 -4 10 -6 1 -6 -14 -1 -18 -31 -4 -31 4 0 7 -11 6 -24 -2 -17 1
-23 10 -20 7 3 15 -2 19 -11 3 -9 10 -13 16 -10 5 3 10 0 10 -7 0 -9 3 -9 10
2 9 13 10 13 10 0 0 -13 1 -13 10 0 7 12 10 12 10 1 0 -7 6 -11 14 -8 7 3 19
0 26 -6 10 -9 11 -9 6 0 -3 6 -2 14 4 18 5 3 10 1 10 -5 0 -8 6 -7 21 1 13 6
19 7 15 1 -4 -6 5 -6 24 1 26 10 35 24 31 50 0 4 3 7 9 7 5 0 8 10 6 23 -2 12
1 28 6 35 6 7 7 12 1 12 -12 0 -11 53 2 62 6 5 5 8 -3 8 -10 0 -10 5 -1 21 8
15 8 19 0 15 -6 -4 -11 -3 -11 3 0 5 5 13 11 16 7 5 4 14 -8 28 -10 11 -13 17
-7 14 14 -8 27 20 14 28 -6 4 -10 11 -10 16 0 6 5 7 11 3 8 -5 8 -1 0 13 -7
14 -7 23 0 30 8 8 7 13 0 17 -6 4 -11 12 -11 17 0 6 4 8 8 5 5 -3 9 1 9 9 0 8
-5 11 -11 8 -6 -4 -5 1 3 10 11 14 11 17 0 17 -11 0 -11 2 1 10 9 6 10 10 3
10 -7 0 -10 11 -8 28 2 15 4 31 4 35 1 5 7 5 14 2 6 -4 4 0 -7 9 -11 9 -15 20
-10 27 11 19 14 59 4 59 -5 0 -7 12 -5 28 2 15 4 31 4 35 1 5 7 5 14 2 6 -4 3
0 -7 9 -16 13 -17 18 -6 31 10 12 10 15 0 15 -10 0 -10 4 1 16 10 13 10 17 -1
24 -11 7 -11 11 -1 24 9 11 10 16 2 16 -13 0 -10 22 4 32 6 5 5 8 -4 8 -11 0
-11 3 0 16 10 13 10 17 -2 25 -10 7 -11 11 -2 17 8 5 9 13 3 22 -5 8 -5 21 1
32 7 13 6 18 -2 18 -8 0 -7 5 2 17 12 15 12 16 -1 8 -13 -8 -13 -7 -1 8 11 14
11 17 0 17 -11 0 -11 2 1 10 10 6 11 10 3 10 -15 0 -13 21 2 32 6 5 5 8 -4 8
-11 0 -11 3 0 16 10 13 10 17 -2 25 -12 8 -12 10 0 18 8 5 10 14 5 22 -10 17
-10 51 0 67 4 7 2 12 -6 12 -9 0 -9 3 2 10 13 9 13 10 0 10 -13 0 -13 1 0 10
8 5 10 10 4 10 -9 0 -11 17 -5 63 1 5 7 5 14 2 6 -4 3 1 -8 10 -17 14 -18 17
-5 25 12 8 13 12 2 19 -18 11 -18 12 -3 40 11 19 11 22 -1 15 -11 -6 -11 -5 1
9 11 14 11 17 0 17 -11 0 -11 2 1 10 13 9 13 10 0 10 -13 0 -13 1 0 10 8 5 10
10 4 10 -13 0 -13 38 0 59 5 8 3 17 -5 22 -12 8 -12 11 1 19 11 7 12 12 3 21
-8 8 -9 18 -2 31 7 13 6 18 -2 18 -8 0 -7 5 2 17 12 15 12 16 -1 8 -13 -8 -13
-7 -1 8 11 14 11 17 0 17 -11 0 -11 2 1 10 10 6 11 10 3 10 -15 0 -13 21 2 32
6 5 5 8 -4 8 -11 0 -11 3 0 16 8 10 9 18 2 22 -10 7 -10 63 2 81 3 6 2 11 -4
11 -7 0 -7 8 -1 25 6 16 6 25 0 25 -6 0 -10 5 -10 11 0 5 6 7 13 3 9 -6 9 -4
-1 8 -9 11 -10 18 -2 23 7 4 7 13 -1 27 -8 15 -8 19 0 14 6 -4 11 -3 11 3 0 5
-5 11 -11 13 -9 3 -9 10 0 26 9 17 9 22 0 22 -9 0 -9 3 0 14 9 10 9 15 1 18
-8 2 -8 11 -1 31 7 17 7 27 1 27 -6 0 -10 5 -10 11 0 5 6 7 13 3 9 -6 9 -5 0
7 -10 12 -10 18 -1 27 9 9 9 12 -2 12 -13 0 -13 2 0 10 8 5 10 10 4 10 -6 0
-10 15 -10 34 0 19 4 32 8 30 5 -3 8 0 8 5 0 6 -5 11 -10 11 -7 0 -7 6 0 20 9
17 8 20 -7 20 -17 1 -17 1 0 11 10 6 14 15 10 22 -11 17 -11 59 0 81 6 12 6
16 -1 12 -6 -4 -10 2 -9 14 1 11 5 20 10 20 4 0 5 6 0 13 -11 17 -11 29 0 51
6 12 6 16 -2 12 -7 -4 -9 5 -6 29 3 19 1 35 -4 35 -5 0 -12 7 -15 16 -6 15 -4
15 11 4 10 -8 7 -2 -7 11 -13 14 -38 26 -54 27 -16 2 -35 7 -41 12 -7 6 -16 5
-23 -2 -8 -8 -15 -8 -26 1 -10 8 -16 9 -21 1 -3 -5 -15 -10 -26 -10 -10 0 -19
-5 -19 -12 0 -6 -3 -9 -6 -5 -10 10 -56 -52 -48 -64 5 -9 2 -10 -11 -5 -15 5
-16 4 -5 -9 12 -14 7 -20 -15 -15 -5 1 -5 -4 2 -11 9 -9 8 -15 -6 -28 -9 -9
-11 -12 -4 -7 10 6 12 4 7 -8 -3 -9 -10 -16 -14 -16 -5 0 -12 -14 -15 -31 -5
-24 -9 -28 -16 -18 -7 9 -7 5 -3 -13 4 -20 2 -29 -9 -34 -8 -3 -14 -13 -13
-21 2 -9 -6 -25 -16 -35 -10 -10 -16 -23 -13 -28 3 -5 -3 -24 -14 -43 -11 -19
-17 -38 -14 -41 4 -3 1 -6 -5 -6 -7 0 -11 -3 -11 -7 4 -22 -2 -33 -13 -27 -8
5 -9 2 -5 -9 3 -9 2 -19 -3 -22 -6 -4 -10 -15 -10 -27 0 -13 -5 -18 -13 -15
-10 4 -13 -2 -9 -20 3 -18 1 -24 -6 -19 -8 5 -10 2 -6 -8 4 -10 1 -16 -7 -16
-7 0 -9 -3 -6 -7 4 -3 -1 -15 -10 -26 -10 -11 -12 -17 -5 -13 6 4 12 3 12 -2
0 -6 -7 -12 -15 -16 -8 -3 -15 -15 -15 -26 0 -12 -4 -19 -9 -16 -5 4 -8 -2 -7
-11 2 -10 -4 -24 -13 -31 -12 -10 -12 -12 -1 -6 13 7 13 5 2 -9 -8 -9 -11 -21
-7 -27 3 -5 -1 -13 -9 -16 -9 -3 -13 -10 -10 -15 3 -5 0 -9 -5 -9 -6 0 -11 -9
-11 -21 0 -11 -4 -18 -9 -15 -5 4 -7 -4 -3 -16 4 -16 2 -20 -10 -15 -12 4 -14
1 -11 -14 3 -12 0 -19 -8 -19 -11 0 -11 -2 1 -10 13 -8 13 -10 -2 -10 -9 0
-20 -5 -24 -12 -4 -7 -3 -8 4 -4 17 10 15 -10 -2 -27 -11 -11 -12 -17 -3 -27
9 -10 9 -11 0 -6 -7 4 -13 2 -13 -4 0 -6 -5 -8 -11 -4 -7 4 -7 -1 1 -16 8 -15
8 -20 1 -16 -6 4 -11 2 -11 -4 0 -6 -5 -8 -12 -4 -7 4 -8 3 -4 -5 4 -6 2 -19
-6 -28 -11 -14 -11 -15 0 -9 11 7 11 4 0 -15 -7 -13 -15 -26 -18 -29 -13 -13
-30 -51 -21 -45 6 3 11 2 11 -3 0 -6 -7 -12 -15 -16 -8 -3 -14 -11 -13 -18 2
-7 -2 -12 -8 -11 -7 1 -10 -6 -7 -17 3 -13 0 -20 -8 -20 -11 0 -11 -2 1 -10
10 -6 11 -10 3 -10 -7 0 -13 -7 -13 -15 0 -8 -5 -15 -11 -15 -6 0 -9 -7 -5
-15 3 -8 1 -15 -5 -15 -6 0 -7 -5 -3 -12 5 -8 2 -9 -11 -4 -15 5 -16 4 -5 -9
10 -12 10 -15 0 -15 -8 0 -11 -3 -7 -6 3 -4 -4 -15 -16 -26 -12 -11 -16 -17
-9 -13 7 4 12 0 12 -9 0 -9 -4 -16 -10 -16 -5 0 -10 -9 -10 -19 0 -11 -5 -21
-10 -23 -6 -2 -12 -13 -13 -26 -1 -15 -6 -21 -16 -17 -11 4 -12 3 -1 -10 9
-11 9 -15 1 -15 -7 0 -9 -4 -6 -10 3 -5 1 -10 -5 -10 -6 0 -8 -4 -5 -10 3 -5
2 -10 -4 -10 -5 0 -8 -9 -6 -20 2 -11 -1 -23 -7 -26 -7 -5 -8 -2 -3 6 5 9 4
11 -4 6 -7 -4 -10 -13 -8 -19 2 -7 -3 -18 -12 -25 -9 -8 -10 -11 -3 -7 17 9
15 -3 -3 -22 -8 -8 -13 -19 -10 -24 4 -5 1 -9 -5 -9 -6 0 -8 -4 -5 -10 3 -5 1
-10 -6 -10 -6 0 -9 -8 -6 -20 3 -10 2 -18 -2 -17 -3 1 -8 -2 -10 -8 -2 -5 -11
-16 -20 -23 -9 -8 -10 -11 -3 -7 16 8 15 -5 -3 -29 -8 -10 -12 -24 -8 -29 4
-6 0 -8 -10 -4 -14 5 -15 2 -7 -18 7 -18 6 -24 -3 -22 -7 1 -11 -4 -9 -10 1
-7 -3 -13 -9 -13 -5 0 -7 -5 -4 -10 3 -6 1 -10 -5 -10 -7 0 -10 -6 -7 -13 3
-7 -4 -19 -15 -26 -15 -9 -17 -15 -9 -25 9 -10 8 -15 -4 -20 -8 -3 -15 -14
-15 -24 0 -10 -5 -23 -12 -30 -7 -7 -8 -12 -3 -12 5 0 0 -7 -11 -16 -10 -8
-13 -13 -7 -9 8 4 11 1 7 -8 -5 -15 -34 -19 -34 -5 0 5 -5 6 -10 3 -13 -8 -8
18 5 27 6 5 3 8 -7 8 -9 0 -20 5 -24 12 -5 7 -3 8 7 3 11 -7 12 -6 2 7 -7 8
-9 19 -5 23 4 5 2 5 -4 2 -7 -4 -15 0 -18 9 -3 8 -2 13 3 10 5 -4 4 5 -2 19
-7 14 -15 25 -19 25 -5 0 -8 9 -8 20 0 11 -8 24 -17 27 -15 6 -15 7 3 14 18 7
18 8 0 8 -12 1 -16 6 -12 17 3 8 2 13 -3 10 -5 -3 -12 1 -15 10 -4 10 -2 13 7
9 6 -4 4 0 -5 8 -10 8 -15 17 -11 20 3 4 1 7 -6 7 -7 0 -9 5 -6 10 3 6 -1 17
-9 25 -8 9 -12 23 -9 32 4 11 3 14 -5 9 -8 -5 -12 0 -12 13 0 11 -4 23 -10 26
-5 3 -10 15 -10 26 0 10 -5 19 -11 19 -5 0 -7 5 -4 10 3 6 2 10 -4 10 -6 0 -7
7 -4 17 4 10 2 14 -4 10 -6 -4 -14 0 -17 9 -4 10 -2 13 7 8 6 -4 1 5 -13 21
-14 16 -19 25 -12 21 19 -11 14 8 -9 38 -11 14 -17 26 -12 26 4 0 4 4 -2 8
-15 11 -39 56 -25 47 8 -5 7 0 -1 13 -7 12 -16 19 -20 17 -3 -3 -5 7 -3 20 1
18 -3 25 -14 25 -15 0 -15 2 -2 10 11 7 11 10 2 10 -7 0 -10 5 -7 10 3 6 1 10
-5 10 -6 0 -8 5 -5 10 3 6 1 10 -6 10 -6 0 -9 8 -6 20 3 10 0 18 -5 17 -6 -1
-12 7 -14 17 -1 10 -7 22 -12 25 -5 3 -8 14 -6 23 1 10 -2 20 -7 24 -5 3 -7
10 -4 15 3 5 -1 6 -9 3 -10 -4 -14 0 -12 13 2 9 -3 24 -11 31 -7 8 -11 18 -8
23 4 5 1 9 -5 9 -6 0 -8 5 -5 10 3 6 2 10 -4 10 -5 0 -8 9 -6 20 2 11 0 18 -6
15 -5 -4 -9 0 -9 8 0 8 -6 20 -14 26 -8 7 -12 21 -9 31 3 12 0 20 -7 20 -7 0
-10 8 -7 20 3 11 0 18 -6 17 -6 -1 -13 8 -15 21 -2 12 -8 22 -14 22 -6 0 -8 9
-5 19 3 11 -1 22 -8 25 -7 2 -18 25 -26 50 -7 24 -16 43 -19 41 -6 -4 -8 3
-12 44 -1 11 -6 17 -10 15 -4 -3 -8 2 -8 10 0 9 -6 16 -12 16 -9 0 -8 4 2 10
11 7 11 10 2 10 -7 0 -10 5 -7 10 3 6 -1 10 -11 10 -11 0 -15 6 -11 20 3 11 1
20 -4 20 -5 0 -8 6 -6 13 1 6 -3 11 -9 10 -8 -1 -10 6 -6 19 4 16 2 19 -8 13
-10 -6 -12 -1 -8 19 4 19 1 26 -10 26 -12 0 -12 3 -2 15 11 13 10 14 -3 9 -12
-4 -15 0 -13 21 2 14 1 23 -2 20 -3 -2 -11 3 -18 13 -9 12 -9 21 -1 30 8 10 7
12 -4 10 -8 -2 -14 5 -14 17 -1 11 -6 19 -12 18 -6 -1 -9 6 -5 19 3 14 1 19
-6 14 -8 -5 -12 0 -12 13 0 30 -11 52 -23 44 -6 -4 -7 -1 -3 6 5 7 0 19 -10
27 -11 9 -13 13 -6 9 6 -3 12 -1 12 4 0 6 -5 11 -11 11 -5 0 -7 5 -4 10 3 6 1
10 -4 10 -6 0 -10 6 -8 13 1 6 -3 11 -9 10 -6 -1 -11 4 -11 12 0 8 5 12 10 8
5 -3 1 6 -8 20 -9 15 -13 32 -9 39 4 7 4 10 -1 6 -10 -10 -38 29 -31 41 3 5
-1 12 -10 15 -8 3 -13 9 -11 14 3 4 -1 16 -9 27 -10 13 -14 15 -14 4 0 -12 -2
-12 -10 1 -5 8 -15 15 -22 15 -7 1 -23 6 -35 13 -20 11 -23 10 -24 -5 0 -16
-1 -16 -9 2 -6 13 -9 15 -9 5 -1 -13 -2 -13 -11 0 -6 9 -10 11 -10 3 0 -7 -6
-10 -12 -8 -24 9 -78 12 -78 5 0 -4 -18 -4 -40 0 -22 4 -40 4 -40 -1 0 -5 -9
-5 -21 -1 -11 4 -44 5 -74 2 -29 -3 -51 -2 -49 2 3 4 0 8 -5 8 -6 0 -11 -5
-11 -11 0 -7 -9 -5 -24 5 -14 9 -27 12 -30 7 -3 -5 -17 -11 -31 -13 -13 -3
-22 -2 -20 2 6 9 -25 23 -33 15 -3 -3 0 -5 6 -5 7 0 12 -3 12 -7 0 -7 -93 -8
-110 -2 -3 1 -9 0 -15 -1 -38 -7 -106 -1 -121 11 -10 8 -15 9 -11 3 5 -8 -8
-13 -39 -16 -25 -2 -48 0 -50 4 -2 3 -18 3 -34 -2 -19 -5 -28 -5 -25 1 4 5 5
9 3 9 -2 0 -18 -4 -36 -9 -18 -6 -30 -6 -27 -1 5 7 -18 21 -33 19 -4 0 -1 -3
6 -6z m252 -267 c0 -3 -4 -8 -10 -11 -5 -3 -10 -1 -10 4 0 6 5 11 10 11 6 0
10 -2 10 -4z m597 -341 c0 -8 -4 -12 -9 -9 -5 3 -6 10 -3 15 9 13 12 11 12 -6z
m-127 -1748 c0 -2 -10 -12 -22 -23 l-23 -19 19 23 c18 21 26 27 26 19z"/>
<path d="M30 1319 c0 -5 5 -7 10 -4 6 3 10 8 10 11 0 2 -4 4 -10 4 -5 0 -10
-5 -10 -11z"/>
</g>
</svg>
