<?xml version="1.0" encoding="utf-8"?>
<!-- Generator: Adobe Illustrator 15.1.0, SVG Export Plug-In . SVG Version: 6.00 Build 0)  -->
<!DOCTYPE svg PUBLIC "-//W3C//DTD SVG 1.1//EN" "http://www.w3.org/Graphics/SVG/1.1/DTD/svg11.dtd">
<svg version="1.1" id="Vrstva_1" xmlns="http://www.w3.org/2000/svg" xmlns:xlink="http://www.w3.org/1999/xlink" x="0px" y="0px"
	 width="350px" height="233px" viewBox="0 0 350 233" enable-background="new 0 0 350 233" xml:space="preserve">
<g>
	
		<circle fill="none" stroke="#454545" stroke-width="6" stroke-linecap="round" stroke-linejoin="round" stroke-miterlimit="10" cx="172.171" cy="116.263" r="22.365"/>
	<path fill="none" stroke="#454545" stroke-width="6" stroke-linecap="round" stroke-linejoin="round" stroke-miterlimit="10" d="
		M161.433,47.612l-12.215-16.741c-8.017,2.16-15.55,5.37-22.38,9.517l3.622,20.677c-5.312,4.103-10.001,8.945-13.927,14.396
		l-20.942-3.292c-4.008,7.028-7.107,14.601-9.091,22.534l17.578,12.369c-0.364,2.873-0.615,5.782-0.615,8.756
		c0,3.644,0.367,7.194,0.909,10.686l-17.501,12.769c2.16,8.018,5.37,15.55,9.517,22.38l21.427-3.753
		c3.929,5.115,8.548,9.648,13.733,13.493l-3.379,21.507c7.028,4.008,14.601,7.107,22.538,9.091l12.444-17.694
		c3.12,0.429,6.285,0.731,9.521,0.731c3.378,0,6.677-0.324,9.925-0.793l12.685,17.384c8.018-2.159,15.55-5.369,22.38-9.517"/>
	
		<polyline fill="none" stroke="#454545" stroke-width="6" stroke-linecap="round" stroke-linejoin="round" stroke-miterlimit="10" points="
		235.63,75.239 198.348,75.239 198.348,30.5 	"/>
	
		<polyline fill="none" stroke="#454545" stroke-width="6" stroke-linecap="round" stroke-linejoin="round" stroke-miterlimit="10" points="
		258,30.5 258,75.239 246.815,75.239 	"/>
	
		<polyline fill="none" stroke="#454545" stroke-width="6" stroke-linecap="round" stroke-linejoin="round" stroke-miterlimit="10" points="
		246.815,116.25 209.532,116.25 209.532,75.239 	"/>
	
		<line fill="none" stroke="#454545" stroke-width="6" stroke-linecap="round" stroke-linejoin="round" stroke-miterlimit="10" x1="246.815" y1="75.239" x2="246.815" y2="105.065"/>
	
		<polyline fill="none" stroke="#454545" stroke-width="6" stroke-linecap="round" stroke-linejoin="round" stroke-miterlimit="10" points="
		213.261,146.075 198.348,146.075 198.348,116.25 258,116.25 258,146.075 224.445,146.075 	"/>
	
		<polyline fill="none" stroke="#454545" stroke-width="6" stroke-linecap="round" stroke-linejoin="round" stroke-miterlimit="10" points="
		243.087,146.075 243.087,157.261 213.261,157.261 213.261,146.075 	"/>
	
		<polygon fill="none" stroke="#454545" stroke-width="6" stroke-linecap="round" stroke-linejoin="round" stroke-miterlimit="10" points="
		235.63,179.63 228.175,187.087 220.718,179.63 220.718,157.261 235.63,157.261 	"/>
</g>
</svg>
