<svg id="svg" version="1.1" xmlns="http://www.w3.org/2000/svg" xmlns:xlink="http://www.w3.org/1999/xlink" width="400" height="225" viewBox="0, 0, 400,225"><g id="svgg"><path id="path0" d="M84.485 15.767 C 81.728 16.312,81.185 17.302,81.076 21.990 C 80.953 27.246,81.569 28.680,84.191 29.243 C 84.986 29.413,95.155 29.488,117.513 29.488 L 149.692 29.488 149.616 86.269 C 149.562 126.163,149.466 143.418,149.293 144.288 C 148.594 147.801,147.839 150.234,146.670 152.735 C 136.999 173.418,111.497 179.744,94.055 165.787 C 88.971 161.720,86.081 157.911,83.203 151.491 C 81.967 148.735,81.055 144.958,80.893 141.925 C 80.839 140.934,80.705 139.921,80.594 139.674 C 80.483 139.426,80.279 138.856,80.142 138.407 C 79.603 136.640,78.302 136.125,74.425 136.147 C 71.391 136.164,70.148 136.390,72.838 136.436 C 74.030 136.457,74.237 136.503,73.720 136.635 C 73.348 136.729,73.196 136.819,73.382 136.833 C 73.623 136.852,73.722 137.133,73.729 137.817 C 73.771 142.094,74.099 144.741,75.116 149.015 C 78.669 163.953,91.328 176.097,106.697 179.313 C 131.020 184.401,154.294 167.051,156.432 142.236 C 156.568 140.652,156.665 116.135,156.686 78.053 L 156.719 16.432 157.313 16.400 C 157.747 16.377,157.664 16.325,157.006 16.207 C 156.122 16.049,156.119 16.045,156.851 16.014 C 157.283 15.995,157.537 15.888,157.456 15.757 C 157.285 15.480,85.888 15.490,84.485 15.767 M150.084 111.349 C 150.052 126.432,150.026 114.159,150.026 84.074 C 150.026 53.990,150.052 41.649,150.084 56.650 C 150.116 71.652,150.116 96.266,150.084 111.349 " stroke="none" fill="#bb0505" fill-rule="evenodd"></path><path id="path1" d="M157.456 15.757 C 157.537 15.888,157.283 15.995,156.851 16.014 C 156.119 16.045,156.122 16.049,157.006 16.207 C 157.664 16.325,157.747 16.377,157.313 16.400 L 156.719 16.432 156.686 78.053 C 156.665 116.135,156.568 140.652,156.432 142.236 C 154.294 167.051,131.020 184.401,106.697 179.313 C 91.328 176.097,78.669 163.953,75.116 149.015 C 74.099 144.741,73.771 142.094,73.729 137.817 C 73.722 137.133,73.623 136.852,73.382 136.833 C 73.196 136.819,73.348 136.729,73.720 136.635 C 74.255 136.499,74.068 136.449,72.819 136.396 L 71.244 136.329 72.819 136.172 C 74.203 136.035,74.121 136.023,72.144 136.078 C 68.031 136.193,66.276 138.052,66.732 141.812 C 67.194 145.622,67.315 146.540,67.503 147.665 C 72.421 177.107,103.252 194.545,132.311 184.322 C 146.606 179.293,158.042 166.752,161.940 151.829 C 163.595 145.494,163.494 148.662,163.634 98.706 L 163.759 53.911 164.512 55.487 C 165.675 57.922,166.798 60.358,166.798 60.446 C 166.798 60.489,167.188 61.367,167.666 62.395 C 168.143 63.424,168.864 65.025,169.269 65.954 C 170.121 67.910,171.698 71.422,172.791 73.796 C 173.209 74.705,173.551 75.485,173.551 75.531 C 173.551 75.619,175.425 79.793,176.477 82.048 C 176.824 82.791,177.865 85.121,178.791 87.226 C 179.717 89.330,180.730 91.609,181.042 92.290 C 181.354 92.971,182.470 95.453,183.522 97.805 C 184.574 100.158,185.689 102.639,186.000 103.320 C 186.310 104.001,187.393 106.432,188.405 108.723 C 189.417 111.013,190.591 113.630,191.014 114.539 C 191.438 115.448,191.784 116.227,191.784 116.270 C 191.784 116.314,192.174 117.191,192.652 118.220 C 193.129 119.248,193.852 120.850,194.258 121.778 C 194.664 122.707,195.299 124.125,195.668 124.930 C 196.314 126.339,199.034 132.439,200.786 136.410 C 201.251 137.462,202.049 139.219,202.560 140.315 C 203.071 141.411,203.489 142.340,203.489 142.381 C 203.489 142.422,203.780 143.096,204.135 143.878 C 204.846 145.446,205.828 147.630,208.112 152.729 C 208.944 154.586,210.106 157.169,210.694 158.469 C 211.282 159.769,211.969 161.289,212.221 161.846 C 212.472 162.403,213.102 163.770,213.620 164.885 C 214.138 165.999,214.960 167.866,215.447 169.033 C 215.933 170.200,216.414 171.264,216.515 171.397 C 216.616 171.529,216.856 172.043,217.048 172.538 C 217.241 173.033,217.673 174.046,218.009 174.789 C 218.344 175.532,218.755 176.443,218.922 176.815 C 222.567 184.953,222.437 184.773,224.911 185.144 C 227.222 185.491,229.016 184.458,229.939 182.250 C 230.132 181.787,230.589 180.757,230.953 179.963 C 231.317 179.168,231.882 177.881,232.210 177.104 C 232.537 176.326,233.157 174.930,233.587 174.001 C 234.017 173.073,234.930 171.050,235.614 169.506 C 236.299 167.962,238.011 164.184,239.420 161.110 C 240.828 158.036,241.981 155.485,241.981 155.440 C 241.981 155.396,242.437 154.384,242.994 153.192 C 243.551 151.999,244.007 150.980,244.007 150.926 C 244.007 150.871,244.322 150.141,244.708 149.302 C 245.094 148.463,245.812 146.866,246.304 145.751 C 246.795 144.637,247.452 143.168,247.764 142.487 C 248.075 141.806,248.966 139.831,249.743 138.098 C 250.521 136.365,251.523 134.154,251.971 133.186 C 252.419 132.217,252.786 131.383,252.786 131.332 C 252.786 131.252,254.640 127.102,256.551 122.904 C 256.861 122.223,257.495 120.805,257.961 119.752 C 258.426 118.700,259.692 115.864,260.774 113.450 C 261.855 111.035,263.122 108.199,263.589 107.147 C 264.057 106.095,264.692 104.676,265.002 103.995 C 265.312 103.315,265.792 102.251,266.068 101.632 C 266.344 101.013,267.005 99.544,267.537 98.368 C 268.069 97.192,269.109 94.862,269.847 93.191 C 270.586 91.519,271.445 89.595,271.756 88.914 C 272.312 87.699,273.898 84.155,278.606 73.607 C 279.904 70.698,281.221 67.760,281.531 67.079 C 281.841 66.398,282.955 63.917,284.007 61.564 C 285.058 59.212,286.223 56.629,286.595 55.824 C 286.967 55.020,287.388 54.108,287.530 53.799 C 287.725 53.373,287.816 69.276,287.901 119.077 L 288.014 184.918 288.512 185.851 C 289.397 187.505,290.462 187.845,294.766 187.845 C 299.056 187.845,300.018 187.539,300.972 185.875 L 301.519 184.918 301.519 101.745 L 301.519 18.571 301.010 17.617 C 299.650 15.071,291.353 14.555,289.037 16.872 C 288.130 17.779,287.989 18.054,285.047 24.648 C 283.998 27.001,282.843 29.565,282.481 30.348 C 282.119 31.130,281.823 31.804,281.823 31.845 C 281.823 31.886,281.411 32.816,280.908 33.911 C 280.405 35.007,279.858 36.207,279.693 36.579 C 279.528 36.950,278.936 38.267,278.376 39.505 C 277.817 40.743,276.755 43.123,276.017 44.795 C 275.278 46.466,274.419 48.391,274.107 49.071 C 273.556 50.275,272.131 53.461,267.258 64.378 C 264.725 70.052,264.269 71.071,263.485 72.819 C 262.969 73.970,260.877 78.644,259.253 82.273 C 258.755 83.388,257.956 85.145,257.479 86.179 C 257.003 87.212,256.612 88.092,256.612 88.133 C 256.612 88.174,256.319 88.847,255.961 89.630 C 255.603 90.412,255.106 91.508,254.858 92.065 C 254.609 92.622,253.344 95.459,252.047 98.368 C 250.749 101.277,249.321 104.450,248.873 105.419 C 248.425 106.387,248.059 107.214,248.059 107.256 C 248.059 107.298,247.716 108.075,247.297 108.984 C 246.877 109.892,245.721 112.459,244.727 114.688 C 243.733 116.916,241.532 121.829,239.837 125.605 C 238.141 129.381,235.289 135.758,233.499 139.775 C 231.710 143.793,230.060 147.490,229.832 147.992 C 229.605 148.493,228.764 150.371,227.963 152.167 C 225.911 156.770,225.951 156.693,225.608 156.621 C 225.437 156.585,224.712 155.239,223.996 153.630 C 223.280 152.020,222.375 150.013,221.983 149.168 C 221.592 148.324,221.272 147.592,221.272 147.542 C 221.272 147.492,220.956 146.765,220.571 145.926 C 220.185 145.087,219.620 143.844,219.316 143.163 C 219.011 142.482,218.527 141.418,218.239 140.799 C 217.951 140.180,216.275 136.432,214.513 132.470 C 212.751 128.509,210.604 123.697,209.741 121.778 C 208.028 117.968,207.620 117.057,206.867 115.363 C 206.592 114.744,206.074 113.597,205.716 112.815 C 205.358 112.032,205.065 111.359,205.065 111.318 C 205.065 111.277,204.653 110.347,204.149 109.251 C 203.646 108.156,203.098 106.956,202.932 106.584 C 202.766 106.213,201.341 103.022,199.765 99.494 C 196.637 92.489,194.937 88.689,194.409 87.526 C 193.862 86.319,192.960 84.301,191.408 80.810 C 190.611 79.015,189.660 76.909,189.295 76.129 C 188.931 75.350,188.633 74.672,188.633 74.623 C 188.633 74.574,188.243 73.693,187.767 72.664 C 187.291 71.635,186.519 69.932,186.050 68.880 C 185.582 67.828,184.946 66.410,184.638 65.729 C 184.329 65.048,183.473 63.123,182.734 61.452 C 181.996 59.781,180.956 57.451,180.424 56.275 C 179.892 55.098,179.231 53.630,178.956 53.011 C 178.680 52.392,178.162 51.245,177.804 50.463 C 177.446 49.680,177.153 49.006,177.153 48.963 C 177.153 48.921,176.807 48.143,176.386 47.234 C 175.964 46.326,174.346 42.725,172.789 39.232 C 171.233 35.740,169.760 32.448,169.516 31.917 C 168.225 29.106,165.447 22.905,165.447 22.832 C 165.447 22.786,165.203 22.213,164.904 21.560 C 164.605 20.906,164.011 19.603,163.583 18.663 C 162.719 16.767,162.035 16.131,160.473 15.771 C 159.171 15.471,157.274 15.462,157.456 15.757 M80.900 22.510 C 80.900 24.305,80.935 25.039,80.977 24.142 C 81.020 23.244,81.020 21.775,80.977 20.878 C 80.935 19.980,80.900 20.715,80.900 22.510 M150.026 84.074 C 150.026 114.159,150.052 126.432,150.084 111.349 C 150.116 96.266,150.116 71.652,150.084 56.650 C 150.052 41.649,150.026 53.990,150.026 84.074 M75.689 136.115 C 75.906 136.171,76.261 136.171,76.477 136.115 C 76.694 136.058,76.517 136.012,76.083 136.012 C 75.650 136.012,75.473 136.058,75.689 136.115 M80.272 138.773 C 80.458 139.601,80.586 139.781,80.582 139.205 C 80.580 138.967,80.476 138.621,80.350 138.436 C 80.183 138.189,80.162 138.280,80.272 138.773 M139.324 163.140 L 138.548 163.984 139.392 163.209 C 140.178 162.486,140.340 162.296,140.168 162.296 C 140.130 162.296,139.750 162.676,139.324 163.140 " stroke="none" fill="#646464" fill-rule="evenodd"></path></g></svg>