<svg id="svg" version="1.1" xmlns="http://www.w3.org/2000/svg" xmlns:xlink="http://www.w3.org/1999/xlink" width="400" height="225" viewBox="0, 0, 400,225"><g id="svgg"><path id="path0" d="M84.750 14.113 C 80.394 14.691,79.582 15.972,79.576 22.285 C 79.572 27.202,79.829 28.230,81.347 29.356 C 82.969 30.559,81.170 30.496,116.095 30.562 L 148.565 30.622 148.565 85.979 C 148.565 122.640,148.489 141.382,148.340 141.474 C 148.216 141.551,148.115 142.209,148.115 142.938 C 148.115 143.666,148.014 144.324,147.890 144.401 C 147.766 144.477,147.665 144.805,147.665 145.130 C 147.665 145.454,147.569 146.030,147.452 146.411 C 147.335 146.791,147.024 147.837,146.761 148.736 C 145.625 152.609,141.873 158.697,138.682 161.848 C 124.790 175.559,104.495 175.334,91.260 161.322 C 86.410 156.188,82.386 147.957,82.386 143.173 C 82.386 142.563,82.285 142.001,82.161 141.925 C 82.037 141.848,81.936 141.258,81.936 140.614 C 81.936 137.399,80.043 134.997,77.295 134.725 C 76.227 134.619,76.220 134.622,77.047 134.835 C 79.342 135.428,80.807 137.046,81.121 139.336 L 81.260 140.349 80.951 139.409 C 80.313 137.466,78.414 135.485,77.221 135.519 C 77.029 135.525,77.251 135.730,77.715 135.975 C 78.180 136.220,78.559 136.471,78.559 136.533 C 78.559 136.596,78.246 136.484,77.864 136.287 C 77.481 136.089,77.020 135.984,76.839 136.053 C 76.637 136.131,76.569 136.084,76.663 135.933 C 76.768 135.762,76.580 135.733,76.055 135.837 C 75.543 135.938,75.397 135.917,75.608 135.772 C 75.818 135.627,75.281 135.559,73.983 135.565 C 72.917 135.570,72.088 135.643,72.140 135.727 C 72.191 135.811,71.910 135.874,71.514 135.867 C 71.118 135.860,70.540 135.928,70.231 136.017 C 69.798 136.143,69.824 136.105,70.343 135.855 C 70.715 135.676,70.867 135.526,70.681 135.522 C 67.823 135.454,66.016 138.647,66.237 143.371 C 66.333 145.433,66.311 145.765,66.131 144.963 C 66.006 144.406,65.889 142.782,65.872 141.355 L 65.841 138.759 66.641 137.641 C 67.529 136.399,69.331 135.189,70.773 134.864 C 71.280 134.750,71.491 134.647,71.244 134.636 C 66.815 134.425,64.286 139.314,65.727 145.301 C 65.846 145.796,65.946 146.677,65.948 147.257 C 65.951 147.838,66.055 148.376,66.179 148.452 C 66.303 148.529,66.404 148.857,66.404 149.181 C 66.404 149.506,66.498 150.082,66.614 150.462 C 66.729 150.843,66.947 151.609,67.097 152.167 C 76.826 188.263,121.436 200.825,149.688 175.424 C 153.553 171.949,159.101 163.917,160.933 159.143 C 161.194 158.463,161.496 157.704,161.604 157.456 C 161.712 157.209,161.922 156.652,162.071 156.218 C 162.220 155.785,162.422 155.228,162.521 154.980 C 163.302 153.023,164.322 148.504,164.322 146.999 C 164.322 146.639,164.424 146.075,164.549 145.746 C 164.781 145.136,164.891 59.245,164.660 59.014 C 164.598 58.952,164.545 77.682,164.542 100.638 C 164.537 141.967,164.451 147.386,163.782 148.054 C 163.594 148.242,163.623 147.596,163.885 145.751 C 164.122 144.079,164.184 57.440,163.949 56.826 C 163.878 56.642,163.869 56.241,163.928 55.933 C 163.999 55.559,163.933 55.374,163.728 55.374 C 163.366 55.374,163.321 55.013,163.658 54.805 C 163.804 54.714,163.815 54.560,163.687 54.398 C 163.515 54.180,163.302 53.396,163.065 52.110 C 163.042 51.986,163.004 51.835,162.980 51.773 C 162.899 51.562,162.783 50.987,162.637 50.084 C 162.557 49.589,162.241 48.019,161.935 46.595 C 159.597 35.738,159.762 37.214,159.852 27.982 C 159.896 23.487,160.016 19.810,160.117 19.809 C 160.369 19.808,160.847 20.305,160.989 20.713 C 161.052 20.897,161.178 20.617,161.269 20.091 C 161.360 19.566,161.532 19.076,161.651 19.002 C 161.786 18.919,161.774 18.756,161.621 18.571 C 161.440 18.353,161.446 18.228,161.645 18.106 C 161.816 18.000,161.857 18.033,161.755 18.198 C 161.666 18.341,161.690 18.458,161.806 18.458 C 161.923 18.458,162.071 18.255,162.136 18.008 C 162.215 17.706,162.168 17.609,161.994 17.713 C 161.850 17.799,161.873 17.697,162.044 17.486 C 162.287 17.186,162.436 17.158,162.720 17.355 C 162.920 17.494,162.679 17.227,162.183 16.761 C 161.248 15.881,161.402 15.902,162.746 16.835 C 163.438 17.315,163.414 17.269,162.549 16.457 C 160.579 14.608,163.797 14.752,122.855 14.683 C 83.060 14.616,84.245 14.581,82.350 15.894 C 78.737 18.398,79.409 27.514,83.338 29.289 L 84.524 29.826 116.657 29.938 C 144.538 30.036,148.790 30.008,148.790 29.726 C 148.790 29.496,148.883 29.528,149.109 29.837 C 149.284 30.077,149.360 30.324,149.277 30.387 C 149.195 30.450,149.128 55.369,149.128 85.763 C 149.128 130.053,149.070 141.382,148.835 142.825 C 148.419 145.383,147.857 147.932,147.736 147.811 C 147.643 147.718,147.999 145.519,148.573 142.639 C 148.709 141.960,148.790 120.690,148.790 85.970 L 148.790 30.388 117.430 30.388 C 85.101 30.388,84.337 30.368,82.597 29.481 C 81.549 28.946,80.445 27.688,80.252 26.806 C 80.169 26.427,80.007 26.059,79.893 25.988 C 79.515 25.754,79.639 19.078,80.037 18.211 C 80.747 16.668,81.007 16.306,81.908 15.605 C 83.664 14.239,82.016 14.293,121.891 14.303 C 163.710 14.314,160.893 14.165,163.578 16.511 L 164.646 17.445 163.885 16.378 C 162.965 15.089,161.840 14.501,159.707 14.193 C 158.211 13.976,86.355 13.900,84.750 14.113 M84.637 18.871 C 84.637 19.164,84.369 19.359,84.152 19.224 C 83.919 19.080,84.120 18.683,84.425 18.683 C 84.542 18.683,84.637 18.768,84.637 18.871 M160.045 19.040 C 160.045 19.437,159.560 19.368,159.421 18.950 C 159.372 18.803,159.493 18.683,159.689 18.683 C 159.885 18.683,160.045 18.844,160.045 19.040 M80.599 20.315 C 80.509 21.096,80.474 21.154,80.408 20.634 C 80.335 20.058,80.462 19.358,80.640 19.358 C 80.679 19.358,80.660 19.789,80.599 20.315 M80.519 24.589 C 80.466 24.869,80.419 24.693,80.417 24.198 C 80.414 23.703,80.458 23.474,80.515 23.689 C 80.571 23.904,80.573 24.309,80.519 24.589 M84.637 25.675 C 84.637 25.791,84.485 25.886,84.299 25.886 C 83.951 25.886,83.852 25.621,84.106 25.367 C 84.286 25.187,84.637 25.391,84.637 25.675 M73.101 134.549 C 73.627 134.596,74.488 134.596,75.014 134.549 C 75.540 134.501,75.110 134.462,74.057 134.462 C 73.005 134.462,72.575 134.501,73.101 134.549 M73.330 135.222 C 73.734 135.272,74.342 135.271,74.680 135.220 C 75.019 135.169,74.688 135.128,73.945 135.129 C 73.202 135.130,72.925 135.172,73.330 135.222 M160.495 139.899 C 160.495 140.317,160.394 140.723,160.270 140.799 C 160.132 140.884,160.045 140.534,160.045 139.899 C 160.045 139.263,160.132 138.913,160.270 138.998 C 160.394 139.075,160.495 139.480,160.495 139.899 M77.157 139.379 C 77.117 139.498,77.012 139.587,76.922 139.578 C 76.832 139.569,75.492 139.561,73.945 139.561 C 72.293 139.561,71.131 139.472,71.131 139.345 C 71.131 139.216,72.365 139.135,74.180 139.146 C 76.016 139.156,77.200 139.249,77.157 139.379 M70.169 141.414 C 70.119 141.819,70.077 141.542,70.075 140.799 C 70.074 140.056,70.115 139.725,70.166 140.063 C 70.218 140.402,70.219 141.010,70.169 141.414 M66.559 141.306 C 66.503 141.522,66.456 141.345,66.456 140.912 C 66.456 140.478,66.503 140.301,66.559 140.518 C 66.616 140.734,66.616 141.089,66.559 141.306 M81.953 143.427 C 82.423 146.475,82.443 146.671,82.263 146.491 C 82.157 146.385,81.272 141.161,81.263 140.593 C 81.262 140.479,81.320 140.446,81.393 140.519 C 81.466 140.592,81.718 141.900,81.953 143.427 M66.951 148.309 C 67.159 149.345,67.288 150.232,67.239 150.281 C 67.136 150.384,66.404 147.163,66.404 146.608 C 66.404 145.901,66.577 146.439,66.951 148.309 M83.259 149.690 C 83.255 149.876,83.116 149.674,82.949 149.240 C 82.553 148.213,82.559 147.808,82.957 148.678 C 83.127 149.049,83.263 149.505,83.259 149.690 M163.522 149.340 C 163.437 149.792,163.317 150.111,163.255 150.049 C 163.193 149.987,163.212 149.567,163.296 149.115 C 163.381 148.663,163.501 148.345,163.563 148.406 C 163.625 148.468,163.606 148.889,163.522 149.340 M84.855 153.067 C 85.618 154.615,86.395 156.185,86.581 156.556 C 86.903 157.198,86.901 157.209,86.539 156.781 C 86.149 156.322,83.286 150.566,83.286 150.243 C 83.286 149.924,83.450 150.218,84.855 153.067 M146.414 151.929 C 146.075 152.684,145.756 153.260,145.706 153.209 C 145.655 153.158,145.889 152.498,146.226 151.741 C 146.564 150.985,146.883 150.409,146.935 150.461 C 146.987 150.514,146.753 151.174,146.414 151.929 M163.067 151.413 C 162.872 152.711,161.519 156.643,161.151 156.982 C 160.943 157.173,160.919 157.126,161.049 156.781 C 161.673 155.130,162.702 151.916,162.834 151.210 C 163.060 149.998,163.254 150.166,163.067 151.413 M68.184 153.405 C 68.160 153.799,67.564 152.073,67.562 151.604 C 67.561 151.356,67.703 151.609,67.879 152.167 C 68.054 152.724,68.192 153.281,68.184 153.405 M145.065 154.665 C 144.745 155.296,144.430 155.760,144.366 155.696 C 144.249 155.579,145.371 153.517,145.551 153.517 C 145.604 153.517,145.385 154.034,145.065 154.665 M144.041 156.500 C 143.630 157.293,140.987 160.808,140.436 161.295 C 140.163 161.536,140.467 161.075,141.112 160.270 C 141.756 159.465,142.703 158.174,143.216 157.400 C 144.166 155.967,144.515 155.587,144.041 156.500 M69.990 158.295 C 70.129 158.695,70.150 158.923,70.037 158.802 C 69.797 158.546,69.475 157.569,69.631 157.569 C 69.689 157.569,69.850 157.896,69.990 158.295 M88.318 158.936 C 89.572 160.708,93.835 164.914,95.263 165.788 C 96.042 166.265,97.573 167.240,98.666 167.955 C 104.900 172.032,114.500 173.333,123.917 171.379 C 124.288 171.301,124.530 171.306,124.454 171.388 C 123.514 172.411,112.750 172.922,108.850 172.129 C 102.389 170.815,96.243 167.554,91.682 163.019 C 89.527 160.876,87.126 158.014,87.492 158.024 C 87.593 158.027,87.965 158.437,88.318 158.936 M160.024 159.843 C 159.270 161.623,158.008 163.855,157.749 163.865 C 157.663 163.869,157.985 163.188,158.465 162.352 C 158.945 161.517,159.613 160.197,159.949 159.420 C 160.284 158.643,160.597 158.046,160.644 158.093 C 160.690 158.139,160.411 158.927,160.024 159.843 M73.918 165.785 C 76.136 169.218,80.059 173.614,83.624 176.663 L 84.750 177.625 83.552 176.794 C 81.814 175.587,78.987 172.861,77.419 170.881 C 76.671 169.935,75.881 168.959,75.664 168.711 C 74.462 167.339,72.377 163.933,70.872 160.886 C 69.630 158.371,70.265 159.066,71.646 161.733 C 72.416 163.219,73.438 165.042,73.918 165.785 M137.969 163.726 C 135.096 166.477,127.424 171.168,126.808 170.552 C 126.762 170.506,127.571 170.111,128.604 169.673 C 131.514 168.441,135.464 165.821,138.056 163.403 C 138.698 162.803,139.274 162.313,139.336 162.312 C 139.398 162.311,138.783 162.948,137.969 163.726 M156.781 165.545 C 156.324 166.234,155.897 166.798,155.833 166.798 C 155.769 166.798,155.897 166.519,156.118 166.179 C 156.339 165.838,156.730 165.238,156.986 164.844 C 157.242 164.451,157.488 164.166,157.532 164.210 C 157.577 164.255,157.239 164.855,156.781 165.545 M155.294 167.967 C 154.639 168.897,151.714 172.449,150.572 173.701 C 149.614 174.751,147.624 176.430,145.297 178.154 C 144.804 178.518,144.350 178.880,144.288 178.956 C 143.900 179.437,139.588 181.981,139.430 181.823 C 139.389 181.783,140.137 181.281,141.091 180.708 C 146.178 177.653,150.870 173.387,154.477 168.539 C 155.602 167.027,156.297 166.540,155.294 167.967 M125.943 170.970 C 125.571 171.140,125.115 171.277,124.930 171.273 C 124.744 171.269,124.947 171.129,125.380 170.962 C 126.408 170.567,126.812 170.572,125.943 170.970 M89.948 181.097 C 91.994 182.263,92.011 182.425,89.981 181.400 C 88.628 180.717,85.275 178.314,84.957 177.799 C 84.871 177.659,85.561 178.118,86.490 178.817 C 87.419 179.517,88.976 180.543,89.948 181.097 M99.883 185.569 C 101.274 186.016,102.591 186.390,102.810 186.399 C 103.029 186.409,103.087 186.466,102.939 186.526 C 102.200 186.827,95.634 184.566,94.429 183.596 C 94.181 183.397,94.738 183.576,95.667 183.995 C 96.595 184.414,98.493 185.122,99.883 185.569 M136.310 183.434 C 135.753 184.335,127.928 186.791,122.588 187.741 C 118.731 188.427,110.523 188.314,106.748 187.523 C 103.409 186.824,103.640 186.676,107.060 187.324 C 115.103 188.847,126.425 187.560,134.033 184.259 C 135.278 183.719,136.328 183.266,136.367 183.253 C 136.405 183.241,136.379 183.322,136.310 183.434 " stroke="none" fill="#bc0404" fill-rule="evenodd"></path><path id="path1" d="M290.992 14.190 C 288.614 14.590,287.176 15.767,286.052 18.233 C 285.614 19.192,285.244 20.011,284.068 22.622 C 282.624 25.826,279.797 32.231,279.797 32.297 C 279.797 32.338,279.338 33.356,278.777 34.557 C 278.215 35.759,277.496 37.363,277.178 38.123 C 276.860 38.883,276.370 40.011,276.089 40.630 C 275.145 42.705,274.669 43.762,273.048 47.383 C 271.406 51.049,270.909 52.153,270.131 53.855 C 269.383 55.490,266.942 61.041,266.295 62.577 C 265.956 63.382,265.322 64.800,264.886 65.729 C 264.451 66.657,263.941 67.772,263.753 68.205 C 263.459 68.883,262.068 72.008,260.045 76.533 C 259.741 77.214,259.138 78.531,258.706 79.460 C 258.274 80.388,257.737 81.604,257.514 82.161 C 257.290 82.718,256.804 83.832,256.433 84.637 C 255.305 87.088,254.811 88.209,254.811 88.318 C 254.811 88.375,254.345 89.419,253.775 90.638 C 253.204 91.856,252.556 93.309,252.333 93.866 C 252.110 94.423,251.574 95.639,251.142 96.567 C 249.988 99.045,249.184 100.845,249.184 100.948 C 249.184 100.997,248.888 101.678,248.527 102.460 C 247.292 105.133,244.414 111.534,243.787 112.999 C 243.194 114.387,242.797 115.273,241.281 118.586 C 240.923 119.369,240.630 120.050,240.630 120.100 C 240.630 120.150,240.326 120.852,239.955 121.660 C 239.584 122.468,238.976 123.790,238.604 124.598 C 238.233 125.405,237.929 126.107,237.929 126.157 C 237.929 126.207,237.587 126.989,237.168 127.896 C 236.749 128.802,235.471 131.671,234.327 134.271 C 233.184 136.871,231.794 139.961,231.239 141.137 C 230.685 142.313,230.100 143.630,229.940 144.063 C 229.780 144.496,229.279 145.661,228.828 146.652 C 228.376 147.642,227.915 148.655,227.803 148.903 C 225.556 153.892,225.602 153.888,223.744 149.240 C 223.521 148.683,222.925 147.343,222.418 146.263 C 221.911 145.182,221.497 144.252,221.497 144.196 C 221.497 144.085,220.574 142.044,219.229 139.182 C 218.753 138.168,218.110 136.736,217.800 135.999 C 217.489 135.262,216.776 133.676,216.215 132.475 C 215.653 131.273,215.194 130.238,215.194 130.174 C 215.194 130.110,214.576 128.676,213.820 126.987 C 213.065 125.299,212.314 123.613,212.153 123.241 C 211.991 122.870,211.343 121.466,210.713 120.121 C 210.082 118.776,209.567 117.601,209.567 117.511 C 209.567 117.420,209.422 117.051,209.245 116.692 C 208.645 115.473,207.091 112.073,207.091 111.979 C 207.091 111.887,206.638 110.885,204.979 107.299 C 204.531 106.331,204.164 105.498,204.164 105.449 C 204.164 105.351,203.420 103.683,202.228 101.105 C 201.807 100.197,201.463 99.418,201.463 99.374 C 201.463 99.331,201.050 98.403,200.545 97.312 C 199.402 94.844,199.194 94.381,198.310 92.323 C 197.919 91.412,197.242 89.893,196.805 88.948 C 196.368 88.002,195.831 86.772,195.611 86.214 C 195.391 85.656,194.693 84.099,194.060 82.755 C 193.427 81.410,192.909 80.235,192.909 80.144 C 192.909 80.053,192.766 79.685,192.590 79.326 C 191.749 77.608,189.983 73.810,189.983 73.721 C 189.983 73.626,189.602 72.762,188.267 69.837 C 187.942 69.125,187.347 67.783,186.944 66.854 C 186.541 65.926,185.956 64.609,185.644 63.928 C 185.332 63.247,184.802 62.032,184.466 61.227 C 184.130 60.422,183.360 58.728,182.755 57.463 C 182.150 56.197,181.654 55.102,181.654 55.029 C 181.654 54.902,181.382 54.301,179.543 50.369 C 179.095 49.411,178.728 48.540,178.728 48.433 C 178.728 48.327,178.583 47.946,178.406 47.587 C 177.806 46.368,176.252 42.968,176.252 42.874 C 176.252 42.822,175.937 42.094,175.552 41.255 C 175.167 40.416,174.419 38.768,173.888 37.591 C 172.563 34.652,171.815 33.001,171.050 31.329 C 170.692 30.547,170.400 29.866,170.400 29.817 C 170.400 29.710,169.536 27.786,168.462 25.499 C 168.042 24.605,167.698 23.827,167.698 23.771 C 167.698 23.714,167.360 22.926,166.946 22.020 C 166.532 21.113,166.054 20.050,165.885 19.656 C 165.716 19.263,165.498 18.989,165.402 19.049 C 165.306 19.108,165.285 19.007,165.355 18.825 C 165.425 18.642,165.291 18.301,165.057 18.067 C 164.823 17.834,164.669 17.530,164.715 17.393 C 164.760 17.255,164.479 16.806,164.089 16.394 L 163.381 15.644 164.020 16.545 L 164.660 17.445 163.585 16.511 C 160.883 14.164,163.709 14.314,121.891 14.303 C 82.016 14.293,83.664 14.239,81.908 15.605 C 81.007 16.306,80.747 16.668,80.037 18.211 C 79.639 19.078,79.515 25.754,79.893 25.988 C 80.007 26.059,80.169 26.427,80.252 26.806 C 80.445 27.688,81.549 28.946,82.597 29.481 C 84.337 30.368,85.101 30.388,117.430 30.388 L 148.790 30.388 148.790 85.970 C 148.790 120.690,148.709 141.960,148.573 142.639 C 147.999 145.519,147.643 147.718,147.736 147.811 C 147.857 147.932,148.419 145.383,148.835 142.825 C 149.070 141.382,149.128 130.053,149.128 85.763 C 149.128 55.369,149.195 30.450,149.277 30.387 C 149.360 30.324,149.284 30.077,149.109 29.837 C 148.883 29.528,148.790 29.496,148.790 29.726 C 148.790 30.008,144.538 30.036,116.657 29.938 L 84.524 29.826 83.338 29.289 C 79.409 27.514,78.737 18.398,82.350 15.894 C 84.245 14.581,83.060 14.616,122.855 14.683 C 163.797 14.752,160.579 14.608,162.549 16.457 C 163.414 17.269,163.438 17.315,162.746 16.835 C 161.402 15.902,161.248 15.881,162.183 16.761 C 162.679 17.227,162.920 17.494,162.720 17.355 C 162.436 17.158,162.287 17.186,162.044 17.486 C 161.873 17.697,161.850 17.799,161.994 17.713 C 162.168 17.609,162.215 17.706,162.136 18.008 C 162.071 18.255,161.923 18.458,161.806 18.458 C 161.690 18.458,161.666 18.341,161.755 18.198 C 161.857 18.033,161.816 18.000,161.645 18.106 C 161.446 18.228,161.440 18.353,161.621 18.571 C 161.774 18.756,161.786 18.919,161.651 19.002 C 161.532 19.076,161.360 19.566,161.269 20.091 C 161.178 20.617,161.052 20.897,160.989 20.713 C 160.847 20.305,160.369 19.808,160.117 19.809 C 160.016 19.810,159.896 23.487,159.852 27.982 C 159.762 37.214,159.597 35.738,161.935 46.595 C 162.241 48.019,162.557 49.589,162.637 50.084 C 162.783 50.987,162.899 51.562,162.980 51.773 C 163.004 51.835,163.042 51.986,163.065 52.110 C 163.302 53.396,163.515 54.180,163.687 54.398 C 163.815 54.560,163.804 54.714,163.658 54.805 C 163.321 55.013,163.366 55.374,163.728 55.374 C 163.933 55.374,163.999 55.559,163.928 55.933 C 163.869 56.241,163.878 56.642,163.949 56.826 C 164.184 57.440,164.122 144.079,163.885 145.751 C 163.623 147.596,163.594 148.242,163.782 148.054 C 164.451 147.386,164.537 141.967,164.542 100.662 C 164.545 72.466,164.621 58.995,164.776 59.091 C 164.902 59.168,164.949 59.321,164.882 59.431 C 164.814 59.540,165.014 60.116,165.325 60.710 C 166.008 62.011,168.149 66.615,168.149 66.783 C 168.149 66.849,168.441 67.525,168.799 68.285 C 170.040 70.927,170.896 72.825,171.301 73.832 C 171.524 74.389,172.062 75.605,172.496 76.533 C 172.930 77.462,173.544 78.843,173.860 79.603 C 174.177 80.363,174.895 81.968,175.456 83.169 C 176.018 84.371,176.477 85.415,176.477 85.489 C 176.477 85.564,176.816 86.339,177.229 87.213 C 179.083 91.128,179.629 92.326,179.629 92.485 C 179.629 92.579,179.869 93.156,180.162 93.768 C 180.879 95.260,181.243 96.066,183.860 101.970 C 185.095 104.755,186.630 108.199,187.270 109.623 C 187.911 111.047,188.593 112.566,188.786 112.999 C 188.979 113.433,189.479 114.519,189.897 115.413 C 190.316 116.307,190.658 117.085,190.658 117.142 C 190.658 117.240,191.142 118.320,192.709 121.722 C 193.094 122.558,193.539 123.596,193.699 124.029 C 193.859 124.463,194.444 125.779,194.998 126.956 C 195.553 128.132,196.331 129.839,196.727 130.750 C 197.124 131.660,197.795 133.155,198.218 134.071 C 198.641 134.987,198.987 135.779,198.987 135.832 C 198.987 135.885,199.291 136.594,199.662 137.407 C 200.034 138.220,200.642 139.551,201.013 140.365 C 201.384 141.178,201.688 141.884,201.688 141.935 C 201.688 142.024,202.147 143.040,203.800 146.612 C 204.248 147.580,204.615 148.419,204.615 148.475 C 204.615 148.532,204.957 149.309,205.376 150.203 C 206.620 152.856,207.541 154.893,207.541 154.990 C 207.541 155.079,208.000 156.096,209.652 159.668 C 210.100 160.636,210.467 161.459,210.467 161.497 C 210.467 161.534,211.024 162.741,211.705 164.179 C 212.386 165.617,212.943 166.843,212.943 166.902 C 212.943 167.025,213.724 168.758,214.997 171.464 C 215.477 172.483,215.869 173.365,215.869 173.424 C 215.869 173.523,216.302 174.482,217.925 177.982 C 218.280 178.748,218.571 179.447,218.571 179.534 C 218.571 179.907,220.698 184.293,221.195 184.945 C 222.719 186.943,227.516 187.244,229.644 185.474 C 230.415 184.832,230.707 184.349,231.812 181.880 C 232.172 181.075,232.694 179.910,232.971 179.291 C 233.573 177.945,233.894 177.193,234.514 175.675 C 234.770 175.048,235.351 173.732,235.806 172.749 C 237.478 169.134,237.929 168.135,237.929 168.044 C 237.929 167.992,238.342 167.058,238.848 165.967 C 239.353 164.877,239.920 163.630,240.109 163.196 C 240.297 162.763,240.787 161.699,241.197 160.833 C 242.329 158.441,243.106 156.710,243.106 156.584 C 243.106 156.521,243.672 155.274,244.363 153.812 C 245.054 152.350,245.875 150.546,246.187 149.803 C 246.499 149.060,246.962 147.997,247.215 147.440 C 248.108 145.479,250.597 139.880,251.318 138.210 C 252.113 136.370,252.707 135.040,253.710 132.849 C 254.068 132.066,254.361 131.380,254.361 131.323 C 254.361 131.266,254.704 130.488,255.123 129.594 C 256.407 126.856,257.288 124.903,257.288 124.797 C 257.288 124.741,257.703 123.811,258.210 122.730 C 258.717 121.649,259.667 119.550,260.321 118.064 C 260.974 116.579,261.825 114.677,262.212 113.838 C 262.599 112.999,262.915 112.271,262.915 112.219 C 262.915 112.125,264.469 108.725,265.069 107.506 C 265.246 107.147,265.391 106.766,265.391 106.659 C 265.391 106.553,265.758 105.682,266.206 104.724 C 268.060 100.760,268.317 100.190,268.317 100.049 C 268.317 99.967,268.685 99.125,269.135 98.178 C 269.585 97.230,270.559 95.087,271.300 93.416 C 274.553 86.074,274.588 85.995,276.220 82.427 C 276.578 81.644,276.871 80.958,276.871 80.901 C 276.871 80.844,277.215 80.066,277.635 79.172 C 278.706 76.890,279.572 74.960,279.572 74.855 C 279.572 74.781,280.416 72.877,281.373 70.793 C 282.807 67.670,285.650 61.180,285.650 61.029 C 285.650 60.920,285.802 60.706,285.988 60.551 C 286.288 60.303,286.325 67.203,286.325 122.426 C 286.325 163.712,286.401 184.581,286.550 184.581 C 286.674 184.581,286.775 184.797,286.775 185.061 C 286.775 188.234,289.020 189.424,294.992 189.415 C 300.344 189.407,302.289 188.518,302.647 185.917 C 302.731 185.306,302.891 184.750,303.004 184.680 C 303.125 184.605,303.208 151.002,303.208 101.745 C 303.208 52.487,303.125 18.884,303.004 18.809 C 302.891 18.739,302.732 18.191,302.649 17.589 C 302.236 14.588,297.257 13.136,290.992 14.190 M84.084 18.893 C 83.930 19.142,84.285 19.410,84.493 19.202 C 84.707 18.988,84.667 18.683,84.425 18.683 C 84.309 18.683,84.155 18.777,84.084 18.893 M159.421 18.950 C 159.560 19.368,160.045 19.437,160.045 19.040 C 160.045 18.844,159.885 18.683,159.689 18.683 C 159.493 18.683,159.372 18.803,159.421 18.950 M79.325 22.285 C 79.325 24.204,79.360 24.989,79.402 24.029 C 79.444 23.070,79.444 21.500,79.402 20.540 C 79.360 19.581,79.325 20.366,79.325 22.285 M80.449 19.677 C 80.382 19.852,80.363 20.283,80.408 20.634 C 80.474 21.154,80.509 21.096,80.599 20.315 C 80.713 19.331,80.663 19.119,80.449 19.677 M80.417 24.198 C 80.419 24.693,80.466 24.869,80.519 24.589 C 80.573 24.309,80.571 23.904,80.515 23.689 C 80.458 23.474,80.414 23.703,80.417 24.198 M84.106 25.367 C 83.852 25.621,83.951 25.886,84.299 25.886 C 84.485 25.886,84.637 25.791,84.637 25.675 C 84.637 25.391,84.286 25.187,84.106 25.367 M102.926 30.782 C 111.314 30.815,125.039 30.815,133.427 30.782 C 141.815 30.749,134.952 30.723,118.177 30.723 C 101.401 30.723,94.539 30.749,102.926 30.782 M71.658 134.688 C 71.470 134.793,71.068 134.831,70.766 134.774 C 70.463 134.716,70.261 134.714,70.317 134.771 C 70.374 134.827,69.798 135.195,69.038 135.588 C 66.168 137.074,65.398 139.076,65.953 143.609 C 66.318 146.583,66.440 146.466,66.260 143.315 C 65.996 138.677,67.824 135.454,70.681 135.522 C 70.867 135.526,70.715 135.676,70.343 135.855 C 69.824 136.105,69.798 136.143,70.231 136.017 C 70.540 135.928,71.118 135.860,71.514 135.867 C 71.910 135.874,72.191 135.811,72.140 135.727 C 72.088 135.643,72.917 135.570,73.983 135.565 C 75.281 135.559,75.818 135.627,75.608 135.772 C 75.397 135.917,75.543 135.938,76.055 135.837 C 76.580 135.733,76.768 135.762,76.663 135.933 C 76.569 136.084,76.637 136.131,76.839 136.053 C 77.020 135.984,77.481 136.089,77.864 136.287 C 78.246 136.484,78.559 136.596,78.559 136.533 C 78.559 136.471,78.180 136.220,77.715 135.975 C 77.251 135.730,77.029 135.525,77.221 135.519 C 78.414 135.485,80.313 137.466,80.951 139.409 L 81.260 140.349 81.126 139.336 C 80.862 137.338,79.367 135.521,77.593 135.039 C 77.072 134.898,76.494 134.736,76.308 134.679 C 75.684 134.488,72.002 134.494,71.658 134.688 M74.680 135.220 C 74.342 135.271,73.734 135.272,73.330 135.222 C 72.925 135.172,73.202 135.130,73.945 135.129 C 74.688 135.128,75.019 135.169,74.680 135.220 M164.840 138.661 C 164.840 139.342,164.882 139.620,164.933 139.280 C 164.985 138.939,164.985 138.382,164.933 138.042 C 164.882 137.701,164.840 137.980,164.840 138.661 M160.045 139.899 C 160.045 140.534,160.132 140.884,160.270 140.799 C 160.394 140.723,160.495 140.317,160.495 139.899 C 160.495 139.480,160.394 139.075,160.270 138.998 C 160.132 138.913,160.045 139.263,160.045 139.899 M71.131 139.345 C 71.131 139.472,72.293 139.561,73.945 139.561 C 75.492 139.561,76.832 139.569,76.922 139.578 C 77.012 139.587,77.117 139.498,77.157 139.379 C 77.200 139.249,76.016 139.156,74.180 139.146 C 72.365 139.135,71.131 139.216,71.131 139.345 M70.075 140.799 C 70.077 141.542,70.119 141.819,70.169 141.414 C 70.219 141.010,70.218 140.402,70.166 140.063 C 70.115 139.725,70.074 140.056,70.075 140.799 M66.456 140.912 C 66.456 141.345,66.503 141.522,66.559 141.306 C 66.616 141.089,66.616 140.734,66.559 140.518 C 66.503 140.301,66.456 140.478,66.456 140.912 M164.836 141.249 C 164.838 141.868,164.882 142.095,164.934 141.753 C 164.985 141.411,164.984 140.904,164.931 140.627 C 164.877 140.350,164.835 140.630,164.836 141.249 M81.263 140.593 C 81.272 141.161,82.157 146.385,82.263 146.491 C 82.331 146.559,82.385 146.521,82.383 146.408 C 82.376 145.806,81.506 140.632,81.393 140.519 C 81.320 140.446,81.262 140.479,81.263 140.593 M164.383 146.989 C 164.383 147.546,164.427 147.774,164.481 147.496 C 164.534 147.217,164.534 146.761,164.481 146.483 C 164.427 146.204,164.383 146.432,164.383 146.989 M66.404 146.608 C 66.404 147.163,67.136 150.384,67.239 150.281 C 67.335 150.186,66.633 146.491,66.489 146.333 C 66.442 146.281,66.404 146.405,66.404 146.608 M82.647 148.227 C 82.646 148.351,82.782 148.807,82.949 149.240 C 83.116 149.674,83.255 149.876,83.259 149.690 C 83.263 149.505,83.127 149.049,82.957 148.678 C 82.787 148.306,82.647 148.104,82.647 148.227 M163.296 149.115 C 163.212 149.567,163.193 149.987,163.255 150.049 C 163.317 150.111,163.437 149.792,163.522 149.340 C 163.606 148.889,163.625 148.468,163.563 148.406 C 163.501 148.345,163.381 148.663,163.296 149.115 M83.286 150.243 C 83.286 150.566,86.149 156.322,86.539 156.781 C 86.901 157.209,86.903 157.198,86.581 156.556 C 86.395 156.185,85.618 154.615,84.855 153.067 C 83.450 150.218,83.286 149.924,83.286 150.243 M146.226 151.741 C 145.889 152.498,145.655 153.158,145.706 153.209 C 145.756 153.260,146.075 152.684,146.414 151.929 C 146.753 151.174,146.987 150.514,146.935 150.461 C 146.883 150.409,146.564 150.985,146.226 151.741 M162.834 151.210 C 162.702 151.916,161.673 155.130,161.049 156.781 C 160.919 157.126,160.943 157.173,161.151 156.982 C 161.519 156.643,162.872 152.711,163.067 151.413 C 163.254 150.166,163.060 149.998,162.834 151.210 M67.562 151.604 C 67.564 152.073,68.160 153.799,68.184 153.405 C 68.192 153.281,68.054 152.724,67.879 152.167 C 67.703 151.609,67.561 151.356,67.562 151.604 M144.852 154.548 C 144.520 155.115,144.301 155.631,144.366 155.696 C 144.430 155.760,144.745 155.296,145.065 154.665 C 145.788 153.238,145.661 153.168,144.852 154.548 M143.216 157.400 C 142.703 158.174,141.756 159.465,141.112 160.270 C 140.467 161.075,140.163 161.536,140.436 161.295 C 141.301 160.531,144.545 155.993,144.226 155.993 C 144.184 155.993,143.729 156.626,143.216 157.400 M69.678 158.075 C 69.762 158.354,69.924 158.681,70.037 158.802 C 70.150 158.923,70.129 158.695,69.990 158.295 C 69.705 157.478,69.441 157.292,69.678 158.075 M88.911 158.691 C 89.302 159.185,89.740 159.661,89.883 159.750 C 90.027 159.839,89.754 159.435,89.277 158.853 C 88.800 158.270,88.363 157.794,88.305 157.794 C 88.248 157.794,88.521 158.198,88.911 158.691 M88.392 159.423 C 93.327 165.812,100.892 170.511,108.850 172.129 C 112.750 172.922,123.514 172.411,124.454 171.388 C 124.530 171.306,124.288 171.301,123.917 171.379 C 114.500 173.333,104.900 172.032,98.666 167.955 C 97.573 167.240,96.042 166.265,95.263 165.788 C 93.835 164.914,89.572 160.708,88.318 158.936 C 87.965 158.437,87.593 158.027,87.492 158.024 C 87.391 158.021,87.796 158.651,88.392 159.423 M159.949 159.420 C 159.613 160.197,158.945 161.517,158.465 162.352 C 157.445 164.128,157.573 164.415,158.613 162.684 C 159.374 161.417,160.783 158.232,160.644 158.093 C 160.597 158.046,160.284 158.643,159.949 159.420 M70.239 159.310 C 70.213 160.194,74.091 166.914,75.664 168.711 C 75.881 168.959,76.671 169.935,77.419 170.881 C 78.987 172.861,81.814 175.587,83.552 176.794 L 84.750 177.625 83.624 176.663 C 78.421 172.213,74.622 167.477,71.646 161.733 C 70.877 160.248,70.244 159.157,70.239 159.310 M92.065 162.183 C 93.112 163.236,94.019 164.097,94.081 164.097 C 94.143 164.097,93.337 163.236,92.290 162.183 C 91.244 161.131,90.336 160.270,90.274 160.270 C 90.213 160.270,91.018 161.131,92.065 162.183 M138.661 161.733 C 138.114 162.290,137.717 162.746,137.779 162.746 C 137.841 162.746,138.339 162.290,138.886 161.733 C 139.433 161.176,139.829 160.720,139.767 160.720 C 139.705 160.720,139.207 161.176,138.661 161.733 M138.056 163.403 C 135.464 165.821,131.514 168.441,128.604 169.673 C 127.571 170.111,126.762 170.506,126.808 170.552 C 127.145 170.889,132.207 168.198,135.041 166.176 C 136.352 165.241,139.610 162.309,139.336 162.312 C 139.274 162.313,138.698 162.803,138.056 163.403 M156.986 164.844 C 156.730 165.238,156.339 165.838,156.118 166.179 C 155.897 166.519,155.769 166.798,155.833 166.798 C 155.997 166.798,157.631 164.309,157.532 164.210 C 157.488 164.166,157.242 164.451,156.986 164.844 M154.477 168.539 C 150.870 173.387,146.178 177.653,141.091 180.708 C 140.137 181.281,139.389 181.783,139.430 181.823 C 139.588 181.981,143.900 179.437,144.288 178.956 C 144.350 178.880,144.804 178.518,145.297 178.154 C 149.036 175.385,150.098 174.375,153.099 170.737 C 155.073 168.343,155.856 167.261,155.714 167.119 C 155.657 167.062,155.101 167.701,154.477 168.539 M125.380 170.962 C 124.947 171.129,124.744 171.269,124.930 171.273 C 125.115 171.277,125.571 171.140,125.943 170.970 C 126.812 170.572,126.408 170.567,125.380 170.962 M79.347 174.226 C 80.207 175.093,80.961 175.802,81.023 175.802 C 81.085 175.802,80.432 175.093,79.572 174.226 C 78.712 173.360,77.958 172.651,77.896 172.651 C 77.834 172.651,78.487 173.360,79.347 174.226 M84.957 177.799 C 85.275 178.314,88.628 180.717,89.981 181.400 C 92.011 182.425,91.994 182.263,89.948 181.097 C 88.976 180.543,87.419 179.517,86.490 178.817 C 85.561 178.118,84.871 177.659,84.957 177.799 M94.429 183.596 C 95.634 184.566,102.200 186.827,102.939 186.526 C 103.087 186.466,103.029 186.409,102.810 186.399 C 102.119 186.368,97.427 184.789,95.667 183.995 C 94.738 183.576,94.181 183.397,94.429 183.596 M134.033 184.259 C 126.425 187.560,115.103 188.847,107.060 187.324 C 103.640 186.676,103.409 186.824,106.748 187.523 C 110.523 188.314,118.731 188.427,122.588 187.741 C 127.928 186.791,135.753 184.335,136.310 183.434 C 136.379 183.322,136.405 183.241,136.367 183.253 C 136.328 183.266,135.278 183.719,134.033 184.259 " stroke="none" fill="#646464" fill-rule="evenodd"></path></g></svg>