<svg id="svg" version="1.1" xmlns="http://www.w3.org/2000/svg" xmlns:xlink="http://www.w3.org/1999/xlink" width="400" height="225" viewBox="0, 0, 400,225"><g id="svgg"><path id="path0" d="M103.282 16.376 C 113.722 16.408,130.739 16.408,141.098 16.376 C 151.457 16.344,142.915 16.317,122.116 16.317 C 101.317 16.317,92.841 16.344,103.282 16.376 M82.781 16.939 C 82.490 17.217,82.408 17.333,82.600 17.195 C 82.792 17.058,83.151 16.833,83.399 16.696 C 83.647 16.558,83.728 16.443,83.580 16.439 C 83.433 16.435,83.073 16.660,82.781 16.939 M84.190 16.781 C 84.188 16.911,84.308 17.139,84.457 17.288 C 84.667 17.498,84.617 17.558,84.232 17.558 C 83.959 17.558,83.737 17.694,83.737 17.860 C 83.737 18.027,83.534 18.347,83.286 18.571 C 83.039 18.795,82.836 19.114,82.836 19.281 C 82.836 19.447,82.735 19.584,82.611 19.584 C 82.474 19.584,82.386 20.634,82.386 22.285 C 82.386 24.132,82.466 24.986,82.639 24.986 C 82.824 24.986,82.823 25.068,82.635 25.294 C 82.434 25.538,82.548 25.731,83.175 26.209 C 83.612 26.543,83.912 26.911,83.840 27.026 C 83.769 27.142,83.823 27.237,83.962 27.237 C 84.100 27.237,84.141 27.354,84.053 27.497 C 83.952 27.659,83.991 27.696,84.156 27.594 C 84.301 27.504,84.361 27.337,84.290 27.221 C 84.219 27.106,84.244 27.012,84.345 27.012 C 84.447 27.012,84.630 27.240,84.752 27.518 C 84.903 27.861,85.193 28.040,85.650 28.071 L 86.325 28.117 85.586 27.894 C 85.113 27.751,84.904 27.576,85.008 27.408 C 85.130 27.211,85.192 27.213,85.260 27.417 C 85.329 27.625,92.838 27.687,118.195 27.687 C 138.210 27.687,151.041 27.769,151.041 27.896 C 151.041 28.010,151.218 28.151,151.435 28.207 C 151.804 28.304,151.805 28.312,151.439 28.336 C 151.026 28.364,150.685 140.026,151.096 140.950 C 151.197 141.177,151.152 141.370,150.983 141.439 C 150.800 141.514,150.782 141.617,150.931 141.739 C 151.176 141.938,151.251 143.405,151.008 143.255 C 150.929 143.206,150.802 143.325,150.727 143.520 C 150.538 144.012,150.556 144.111,150.806 143.957 C 150.936 143.877,150.971 144.119,150.895 144.562 C 150.825 144.969,150.754 145.621,150.736 146.011 C 150.718 146.402,150.653 146.691,150.591 146.654 C 150.529 146.617,150.348 146.728,150.188 146.900 C 150.028 147.073,149.981 147.214,150.084 147.214 C 150.186 147.214,150.269 147.405,150.269 147.639 C 150.269 148.230,149.697 147.966,149.664 147.359 C 149.642 146.944,149.623 146.935,149.531 147.295 C 149.472 147.524,149.534 147.823,149.669 147.959 C 149.977 148.267,149.991 148.790,149.690 148.790 C 149.567 148.790,149.465 148.621,149.465 148.415 C 149.465 148.209,149.403 148.102,149.327 148.178 C 149.251 148.255,149.296 148.626,149.428 149.004 C 149.572 149.418,149.582 149.690,149.454 149.690 C 149.336 149.690,149.232 149.513,149.221 149.297 C 149.210 149.080,149.114 149.197,149.006 149.556 C 148.887 149.953,148.898 150.372,149.033 150.625 C 149.183 150.905,149.180 151.041,149.023 151.041 C 148.895 151.041,148.787 150.914,148.783 150.760 C 148.779 150.602,148.676 150.650,148.549 150.869 C 148.394 151.134,148.396 151.401,148.554 151.695 C 148.714 151.995,148.714 152.154,148.553 152.208 C 148.425 152.251,148.303 152.512,148.282 152.789 C 148.261 153.066,148.158 153.292,148.054 153.292 C 147.949 153.292,147.926 153.393,148.002 153.517 C 148.079 153.641,148.028 153.742,147.890 153.742 C 147.751 153.742,147.701 153.844,147.777 153.967 C 147.854 154.091,147.803 154.192,147.665 154.192 C 147.526 154.192,147.476 154.294,147.552 154.418 C 147.629 154.541,147.578 154.643,147.440 154.643 C 147.301 154.643,147.250 154.744,147.327 154.868 C 147.403 154.992,147.353 155.093,147.214 155.093 C 147.076 155.093,147.025 155.194,147.102 155.318 C 147.178 155.442,147.128 155.543,146.989 155.543 C 146.851 155.543,146.800 155.644,146.877 155.768 C 146.953 155.892,146.903 155.993,146.764 155.993 C 146.626 155.993,146.584 156.120,146.671 156.275 C 146.791 156.487,146.762 156.493,146.554 156.301 C 146.353 156.117,146.342 155.930,146.513 155.626 C 147.075 154.623,147.888 152.842,147.783 152.842 C 147.721 152.842,147.257 153.662,146.753 154.664 C 146.249 155.666,145.962 156.410,146.114 156.315 C 146.304 156.198,146.347 156.257,146.252 156.505 C 146.176 156.703,146.235 156.914,146.383 156.974 C 146.531 157.034,146.458 157.091,146.220 157.101 C 145.983 157.111,145.855 157.185,145.935 157.265 C 146.016 157.346,145.906 157.556,145.691 157.732 C 145.431 157.946,145.413 158.004,145.639 157.907 C 145.864 157.809,145.846 157.867,145.586 158.081 C 145.371 158.257,145.270 158.483,145.361 158.584 C 145.452 158.684,145.404 158.696,145.255 158.611 C 145.105 158.525,145.038 158.281,145.104 158.068 C 145.266 157.550,145.014 157.844,143.304 160.165 C 141.062 163.208,138.283 165.823,134.808 168.160 C 133.989 168.711,133.128 169.290,132.895 169.447 C 132.528 169.695,132.542 169.700,133.001 169.483 C 133.403 169.293,133.594 169.300,133.789 169.511 C 133.984 169.723,133.978 169.752,133.765 169.631 C 133.585 169.530,133.482 169.620,133.480 169.880 C 133.477 170.189,133.431 170.215,133.286 169.987 C 133.134 169.747,133.067 169.761,132.954 170.057 C 132.875 170.261,132.727 170.376,132.625 170.313 C 132.522 170.250,132.114 170.395,131.718 170.636 C 130.674 171.271,130.530 171.175,131.518 170.504 C 132.705 169.697,132.560 169.612,131.244 170.343 C 130.632 170.684,130.227 170.996,130.344 171.037 C 130.461 171.079,130.557 171.211,130.557 171.332 C 130.557 171.453,130.463 171.494,130.348 171.423 C 130.233 171.352,130.066 171.523,129.977 171.803 C 129.821 172.296,129.809 172.298,129.639 171.863 L 129.463 171.412 129.444 171.863 C 129.428 172.237,129.388 172.256,129.207 171.975 C 129.048 171.730,128.987 171.718,128.985 171.932 C 128.983 172.094,128.880 172.164,128.756 172.088 C 128.633 172.011,128.531 172.062,128.531 172.200 C 128.531 172.339,128.430 172.389,128.306 172.313 C 128.182 172.236,128.081 172.287,128.081 172.425 C 128.081 172.564,127.996 172.625,127.892 172.560 C 127.650 172.411,125.380 173.131,125.380 173.357 C 125.380 173.451,125.071 173.420,124.693 173.288 C 124.315 173.156,123.944 173.111,123.868 173.187 C 123.791 173.263,123.898 173.326,124.104 173.326 C 124.311 173.326,124.479 173.438,124.479 173.575 C 124.479 173.715,124.315 173.761,124.104 173.680 C 123.897 173.601,123.656 173.651,123.569 173.792 C 123.452 173.982,123.286 173.980,122.920 173.785 C 122.650 173.640,122.308 173.571,122.160 173.631 C 122.012 173.691,122.068 173.748,122.285 173.758 C 122.501 173.768,122.679 173.884,122.679 174.016 C 122.679 174.148,122.492 174.197,122.265 174.125 C 122.037 174.053,121.465 174.155,120.994 174.352 C 120.351 174.620,120.096 174.643,119.973 174.444 C 119.864 174.268,119.760 174.257,119.665 174.411 C 119.577 174.552,119.025 174.592,118.251 174.512 C 117.321 174.416,117.024 174.451,117.142 174.641 C 117.236 174.793,117.165 174.902,116.971 174.902 C 116.788 174.902,116.600 175.016,116.553 175.157 C 116.504 175.305,115.958 175.412,115.250 175.412 C 114.543 175.412,113.997 175.305,113.947 175.157 C 113.901 175.016,113.713 174.902,113.530 174.902 C 113.347 174.902,113.253 174.813,113.319 174.705 C 113.501 174.411,111.980 174.227,111.205 174.449 C 110.788 174.569,110.477 174.559,110.392 174.422 C 110.317 174.300,109.971 174.262,109.623 174.339 C 109.257 174.419,108.926 174.373,108.838 174.230 C 108.753 174.094,108.491 174.044,108.253 174.120 C 108.012 174.196,107.822 174.151,107.822 174.016 C 107.822 173.884,107.999 173.768,108.216 173.758 C 108.433 173.748,108.489 173.691,108.341 173.631 C 108.193 173.571,107.851 173.640,107.581 173.785 C 107.193 173.992,107.045 173.983,106.876 173.743 C 106.709 173.505,106.637 173.500,106.548 173.721 C 106.485 173.877,106.340 173.947,106.227 173.877 C 105.889 173.668,105.994 173.326,106.397 173.326 C 106.603 173.326,106.709 173.263,106.633 173.187 C 106.557 173.111,106.186 173.156,105.808 173.288 C 105.393 173.433,105.121 173.443,105.121 173.314 C 105.121 173.197,105.298 173.093,105.515 173.083 C 105.736 173.073,105.789 173.017,105.636 172.954 C 105.486 172.894,105.196 172.937,104.991 173.052 C 104.735 173.195,104.344 173.127,103.737 172.834 C 103.252 172.600,102.757 172.468,102.638 172.542 C 102.518 172.617,102.420 172.564,102.420 172.425 C 102.420 172.287,102.319 172.236,102.195 172.313 C 102.071 172.389,101.970 172.334,101.970 172.190 C 101.970 172.045,101.818 171.985,101.632 172.057 C 101.446 172.128,101.294 172.082,101.294 171.955 C 101.294 171.828,101.193 171.786,101.069 171.863 C 100.945 171.939,100.844 171.884,100.844 171.739 C 100.844 171.595,100.692 171.535,100.506 171.606 C 100.321 171.678,100.169 171.650,100.169 171.545 C 100.169 171.365,98.908 170.745,98.529 170.740 C 98.431 170.738,98.256 170.585,98.138 170.400 C 98.021 170.214,97.920 170.163,97.914 170.287 C 97.908 170.411,97.755 170.315,97.573 170.075 C 97.391 169.835,97.243 169.759,97.243 169.906 C 97.243 170.054,97.135 170.174,97.004 170.174 C 96.873 170.174,96.822 170.084,96.890 169.973 C 96.958 169.863,96.762 169.709,96.453 169.631 C 96.144 169.554,95.892 169.347,95.892 169.171 C 95.892 168.994,95.775 168.778,95.632 168.690 C 95.471 168.590,95.433 168.628,95.533 168.789 C 95.621 168.932,95.586 169.049,95.455 169.049 C 95.324 169.049,95.217 168.903,95.217 168.725 C 95.217 168.546,95.100 168.328,94.957 168.240 C 94.786 168.134,94.753 168.187,94.861 168.395 C 94.951 168.569,94.865 168.515,94.671 168.274 C 94.476 168.034,94.313 167.933,94.308 168.049 C 94.304 168.166,94.039 167.957,93.721 167.586 C 93.402 167.214,93.211 167.062,93.295 167.248 C 93.380 167.434,93.283 167.383,93.079 167.136 C 92.875 166.888,92.589 166.719,92.443 166.760 C 92.297 166.802,92.247 166.767,92.331 166.682 C 92.415 166.598,91.903 166.007,91.192 165.369 C 90.482 164.731,89.519 163.783,89.052 163.262 C 88.585 162.741,88.009 162.253,87.771 162.178 C 87.533 162.102,87.338 161.893,87.338 161.713 C 87.338 161.533,87.088 161.272,86.783 161.133 C 86.477 160.994,86.283 160.788,86.352 160.676 C 86.421 160.565,86.646 160.605,86.852 160.766 C 87.186 161.027,87.193 161.016,86.917 160.664 C 86.562 160.211,86.864 160.132,87.348 160.551 C 87.526 160.706,87.405 160.529,87.079 160.158 C 86.752 159.786,85.978 158.700,85.358 157.743 C 84.505 156.425,84.196 156.096,84.085 156.385 C 84.004 156.595,84.004 156.701,84.085 156.620 C 84.208 156.497,86.663 159.886,86.663 160.179 C 86.663 160.231,86.467 160.152,86.227 160.002 C 85.988 159.852,85.842 159.648,85.904 159.548 C 85.966 159.448,85.858 159.306,85.666 159.232 C 85.473 159.158,85.371 159.006,85.440 158.894 C 85.509 158.783,85.408 158.631,85.215 158.557 C 85.022 158.483,84.921 158.331,84.990 158.219 C 85.059 158.107,84.958 157.955,84.765 157.881 C 84.572 157.807,84.466 157.664,84.528 157.563 C 84.670 157.333,83.985 156.628,83.756 156.769 C 83.663 156.827,83.587 156.731,83.587 156.556 C 83.587 156.381,83.671 156.290,83.774 156.354 C 83.877 156.418,83.962 156.363,83.962 156.232 C 83.962 156.101,83.812 155.993,83.629 155.993 C 83.122 155.993,82.259 154.187,82.647 153.940 C 82.871 153.798,82.833 153.747,82.499 153.742 C 82.125 153.737,82.106 153.698,82.386 153.517 C 82.611 153.372,82.630 153.298,82.442 153.296 C 82.288 153.294,82.181 153.216,82.206 153.123 C 82.289 152.807,81.906 151.941,81.682 151.941 C 81.560 151.941,81.531 151.825,81.619 151.683 C 81.718 151.522,81.939 151.737,82.200 152.245 C 82.811 153.435,82.876 153.253,82.316 151.926 C 82.050 151.299,81.797 150.893,81.753 151.026 C 81.709 151.158,81.583 151.266,81.472 151.266 C 81.361 151.266,81.381 151.024,81.515 150.728 C 81.691 150.342,81.692 150.071,81.517 149.771 C 81.384 149.541,81.271 149.479,81.267 149.634 C 81.264 149.789,81.162 149.916,81.043 149.916 C 80.923 149.916,80.883 149.764,80.954 149.578 C 81.025 149.392,80.968 149.240,80.827 149.240 C 80.636 149.240,80.634 149.119,80.821 148.771 C 80.959 148.513,81.013 148.242,80.941 148.171 C 80.869 148.099,80.810 148.158,80.810 148.302 C 80.810 148.447,80.712 148.565,80.592 148.565 C 80.472 148.565,80.437 148.403,80.513 148.205 C 80.589 148.006,80.522 147.765,80.364 147.667 C 80.206 147.570,80.154 147.366,80.247 147.216 C 80.377 147.005,80.460 147.012,80.607 147.247 C 80.718 147.425,80.740 147.176,80.660 146.652 C 80.491 145.550,80.360 145.350,80.360 146.192 C 80.360 146.733,80.312 146.779,80.012 146.530 C 79.811 146.364,79.756 146.184,79.881 146.107 C 80.001 146.032,80.143 145.720,80.197 145.411 C 80.251 145.103,80.251 144.977,80.198 145.132 C 80.145 145.287,79.997 145.414,79.869 145.414 C 79.735 145.414,79.707 145.248,79.803 145.020 C 79.894 144.803,79.994 144.119,80.024 143.500 C 80.074 142.482,80.066 142.461,79.938 143.275 C 79.775 144.318,79.176 144.661,79.241 143.675 C 79.264 143.331,79.259 142.974,79.230 142.881 C 79.082 142.400,79.116 142.082,79.387 141.391 C 79.858 140.192,79.644 138.585,78.888 137.637 C 78.569 137.237,78.567 137.259,78.874 137.894 C 79.059 138.277,79.253 139.087,79.306 139.695 C 79.359 140.302,79.356 140.549,79.299 140.244 C 79.242 139.938,79.000 139.552,78.761 139.384 C 78.522 139.217,78.373 139.006,78.428 138.915 C 78.484 138.825,78.324 138.622,78.071 138.464 C 77.819 138.306,77.675 138.279,77.752 138.403 C 77.836 138.541,77.581 138.613,77.101 138.589 C 76.666 138.566,76.310 138.497,76.309 138.436 C 76.309 138.374,75.392 138.357,74.272 138.399 C 73.153 138.442,72.064 138.401,71.853 138.309 C 71.641 138.218,71.367 138.117,71.244 138.086 C 71.120 138.054,70.816 137.959,70.568 137.873 C 70.206 137.748,70.184 137.765,70.456 137.961 C 70.668 138.113,70.693 138.205,70.523 138.207 C 70.375 138.209,70.150 138.033,70.024 137.817 C 69.813 137.454,69.793 137.459,69.784 137.873 C 69.776 138.200,69.722 138.242,69.587 138.028 C 69.446 137.806,69.305 137.877,69.018 138.316 C 68.808 138.636,68.709 139.017,68.799 139.161 C 69.214 139.834,68.682 142.712,68.142 142.712 C 67.963 142.712,67.960 142.782,68.130 142.953 C 68.268 143.091,68.322 143.631,68.256 144.214 C 68.182 144.870,68.236 145.294,68.407 145.399 C 68.601 145.519,68.609 145.729,68.439 146.179 C 68.310 146.517,68.218 147.065,68.234 147.398 C 68.260 147.912,68.285 147.886,68.403 147.222 L 68.542 146.442 68.976 147.110 C 69.324 147.647,69.335 147.717,69.032 147.468 C 68.710 147.204,68.655 147.208,68.655 147.497 C 68.655 147.683,68.807 147.961,68.993 148.115 C 69.363 148.422,69.463 148.899,69.112 148.682 C 68.784 148.479,68.578 149.596,68.856 150.068 C 69.050 150.398,69.071 150.334,68.961 149.747 C 68.876 149.293,68.915 149.015,69.064 149.015 C 69.437 149.015,69.591 149.412,69.275 149.559 C 69.061 149.659,69.057 149.721,69.261 149.818 C 69.409 149.887,69.478 150.080,69.415 150.245 C 69.352 150.410,69.404 150.610,69.531 150.689 C 69.688 150.785,69.690 151.024,69.541 151.418 C 69.418 151.740,69.371 152.057,69.437 152.123 C 69.502 152.188,69.555 152.123,69.555 151.979 C 69.555 151.835,69.655 151.716,69.776 151.716 C 69.912 151.716,69.903 151.921,69.751 152.255 C 69.572 152.646,69.575 152.907,69.759 153.211 C 69.975 153.568,69.991 153.539,69.872 153.011 C 69.786 152.632,69.826 152.392,69.974 152.392 C 70.108 152.392,70.158 152.544,70.087 152.729 C 70.016 152.915,70.044 153.067,70.150 153.067 C 70.256 153.067,70.359 153.343,70.379 153.679 C 70.398 154.016,70.524 154.328,70.658 154.373 C 70.833 154.431,70.833 154.583,70.661 154.905 C 70.528 155.153,70.478 155.415,70.550 155.487 C 70.622 155.559,70.681 155.500,70.681 155.355 C 70.681 155.211,70.786 155.093,70.914 155.093 C 71.069 155.093,71.063 155.250,70.896 155.562 C 70.651 156.020,71.766 159.404,72.264 159.712 C 72.362 159.773,72.097 158.990,71.675 157.973 C 70.835 155.951,70.791 155.768,71.144 155.768 C 71.276 155.768,71.320 155.869,71.244 155.993 C 71.167 156.117,71.209 156.218,71.336 156.218 C 71.463 156.218,71.509 156.370,71.438 156.556 C 71.366 156.742,71.426 156.894,71.571 156.894 C 71.715 156.894,71.770 156.995,71.694 157.119 C 71.617 157.243,71.659 157.344,71.786 157.344 C 71.913 157.344,71.959 157.496,71.888 157.681 C 71.802 157.906,71.898 158.020,72.176 158.023 C 72.529 158.025,72.541 158.060,72.257 158.244 C 72.011 158.403,72.000 158.463,72.214 158.466 C 72.376 158.468,72.446 158.571,72.369 158.694 C 72.293 158.818,72.343 158.920,72.482 158.920 C 72.620 158.920,72.671 159.021,72.594 159.145 C 72.518 159.268,72.568 159.370,72.707 159.370 C 72.845 159.370,72.896 159.471,72.819 159.595 C 72.743 159.719,72.793 159.820,72.932 159.820 C 73.070 159.820,73.121 159.921,73.044 160.045 C 72.968 160.169,73.019 160.270,73.157 160.270 C 73.295 160.270,73.346 160.371,73.270 160.495 C 73.193 160.619,73.244 160.720,73.382 160.720 C 73.521 160.720,73.571 160.822,73.495 160.945 C 73.418 161.069,73.469 161.171,73.607 161.171 C 73.746 161.171,73.796 161.272,73.720 161.396 C 73.643 161.519,73.694 161.621,73.832 161.621 C 73.971 161.621,74.026 161.714,73.955 161.829 C 73.885 161.943,74.005 162.073,74.223 162.117 C 74.599 162.193,74.599 162.205,74.228 162.351 C 73.930 162.469,73.729 162.305,73.394 161.669 C 73.151 161.209,72.948 160.934,72.944 161.058 C 72.934 161.331,74.244 163.647,74.408 163.647 C 74.471 163.647,74.410 163.435,74.272 163.177 C 73.966 162.606,74.035 162.523,74.620 162.759 C 74.889 162.867,74.940 162.946,74.746 162.955 C 74.506 162.967,74.536 163.064,74.858 163.326 C 75.099 163.521,75.144 163.614,74.958 163.534 C 74.732 163.437,74.750 163.495,75.011 163.708 C 75.225 163.885,75.335 164.095,75.254 164.175 C 75.174 164.256,75.277 164.322,75.483 164.322 C 75.689 164.322,75.858 164.429,75.858 164.560 C 75.858 164.691,75.741 164.726,75.598 164.638 C 75.441 164.541,75.399 164.576,75.493 164.727 C 75.578 164.865,75.796 164.920,75.978 164.851 C 76.202 164.765,76.308 164.872,76.308 165.187 C 76.308 165.442,76.486 165.764,76.702 165.903 C 77.077 166.145,77.077 166.151,76.702 166.034 C 76.097 165.846,76.233 166.084,76.996 166.547 C 77.543 166.880,77.610 166.994,77.322 167.104 C 77.085 167.195,77.015 167.154,77.119 166.986 C 77.212 166.836,77.179 166.790,77.040 166.876 C 76.909 166.957,76.480 166.643,76.086 166.179 C 75.603 165.610,75.519 165.555,75.827 166.010 C 76.588 167.132,77.448 168.077,77.287 167.616 C 77.159 167.249,77.200 167.227,77.612 167.448 C 78.113 167.716,78.438 168.119,78.443 168.480 C 78.445 168.600,78.700 168.826,79.010 168.983 C 79.319 169.139,79.440 169.269,79.278 169.271 C 79.116 169.273,79.051 169.384,79.134 169.519 C 79.217 169.653,79.477 169.713,79.710 169.652 C 79.964 169.586,80.135 169.658,80.135 169.830 C 80.135 169.989,80.287 170.245,80.473 170.400 C 80.880 170.738,80.925 171.169,80.529 170.937 C 80.374 170.846,80.438 170.990,80.672 171.256 C 80.905 171.522,81.177 171.689,81.276 171.628 C 81.375 171.567,81.716 171.776,82.034 172.094 C 82.693 172.753,82.803 173.076,82.217 172.632 C 82.001 172.468,82.224 172.760,82.713 173.280 C 83.594 174.217,84.184 174.643,83.399 173.776 C 83.162 173.515,83.102 173.326,83.255 173.326 C 83.400 173.326,83.703 173.629,83.928 174.000 C 84.154 174.371,84.392 174.621,84.457 174.556 C 84.523 174.491,84.746 174.697,84.954 175.014 C 85.164 175.335,85.443 175.522,85.582 175.437 C 85.729 175.346,85.769 175.384,85.678 175.531 C 85.526 175.778,86.382 176.396,86.736 176.294 C 86.838 176.265,86.864 176.334,86.793 176.448 C 86.670 176.648,87.281 177.034,87.613 176.965 C 87.702 176.947,87.884 177.136,88.018 177.386 C 88.152 177.636,88.373 177.771,88.510 177.687 C 88.660 177.594,88.695 177.636,88.598 177.793 C 88.509 177.936,88.544 178.066,88.676 178.081 C 88.807 178.097,89.011 178.122,89.129 178.137 C 89.248 178.153,89.509 178.368,89.709 178.616 C 89.909 178.863,90.009 178.939,89.930 178.784 C 89.852 178.630,89.895 178.503,90.026 178.503 C 90.157 178.503,90.264 178.649,90.264 178.827 C 90.264 179.006,90.381 179.224,90.524 179.312 C 90.695 179.418,90.728 179.365,90.620 179.157 C 90.530 178.983,90.605 179.023,90.788 179.247 C 91.037 179.552,91.149 179.580,91.237 179.359 C 91.305 179.188,91.363 179.254,91.376 179.516 C 91.393 179.891,91.433 179.910,91.615 179.629 C 91.805 179.335,91.834 179.339,91.837 179.658 C 91.839 179.859,92.147 180.151,92.523 180.307 C 92.898 180.462,93.164 180.631,93.113 180.681 C 93.063 180.732,92.452 180.521,91.756 180.213 C 89.541 179.234,90.386 179.764,93.666 181.410 C 97.113 183.141,97.950 183.463,95.723 182.201 C 94.176 181.324,93.804 180.934,95.189 181.640 C 95.669 181.885,96.124 182.022,96.202 181.945 C 96.279 181.868,96.342 181.929,96.342 182.080 C 96.342 182.232,96.443 182.294,96.567 182.217 C 96.691 182.141,96.794 182.211,96.796 182.373 C 96.798 182.587,96.859 182.575,97.017 182.330 C 97.198 182.050,97.237 182.069,97.243 182.442 C 97.248 182.781,97.297 182.817,97.443 182.587 C 97.580 182.371,97.682 182.355,97.793 182.535 C 97.879 182.674,98.033 182.736,98.135 182.672 C 98.237 182.609,98.381 182.715,98.455 182.908 C 98.529 183.101,98.685 183.200,98.801 183.128 C 98.917 183.056,99.077 183.102,99.156 183.230 C 99.235 183.358,99.387 183.409,99.494 183.343 C 99.600 183.277,99.752 183.327,99.831 183.455 C 99.910 183.583,100.062 183.634,100.169 183.568 C 100.276 183.502,100.424 183.546,100.498 183.667 C 100.573 183.787,100.782 183.829,100.964 183.759 C 101.146 183.689,101.294 183.741,101.294 183.874 C 101.294 184.007,101.446 184.058,101.632 183.987 C 101.818 183.916,101.970 183.969,101.970 184.106 C 101.970 184.244,101.801 184.356,101.594 184.356 C 101.388 184.356,101.282 184.418,101.358 184.494 C 101.434 184.570,101.805 184.525,102.183 184.393 C 102.669 184.224,102.870 184.224,102.870 184.394 C 102.870 184.525,103.073 184.580,103.320 184.516 C 103.568 184.451,103.770 184.501,103.770 184.628 C 103.770 184.755,103.973 184.805,104.221 184.741 C 104.468 184.676,104.671 184.727,104.671 184.853 C 104.671 184.980,104.873 185.031,105.121 184.966 C 105.368 184.901,105.633 184.949,105.709 185.072 C 105.785 185.195,106.038 185.245,106.272 185.184 C 106.505 185.123,106.753 185.165,106.823 185.278 C 106.892 185.391,107.185 185.424,107.474 185.351 C 107.762 185.279,108.066 185.329,108.149 185.463 C 108.242 185.613,108.058 185.716,107.667 185.732 C 107.319 185.747,107.195 185.802,107.391 185.854 C 107.588 185.907,108.193 185.850,108.736 185.728 C 109.435 185.571,109.769 185.579,109.878 185.755 C 109.984 185.925,110.151 185.886,110.406 185.630 C 110.826 185.211,111.076 185.133,110.855 185.490 C 110.761 185.642,110.934 185.675,111.349 185.585 C 111.837 185.478,111.907 185.501,111.649 185.685 C 111.405 185.858,112.404 185.921,115.250 185.912 C 117.417 185.905,118.994 185.823,118.754 185.729 C 118.515 185.636,118.419 185.497,118.540 185.422 C 118.662 185.347,118.908 185.379,119.088 185.493 C 119.521 185.766,119.813 185.762,119.641 185.484 C 119.563 185.356,119.653 185.318,119.853 185.395 C 120.045 185.469,120.203 185.632,120.203 185.758 C 120.203 185.905,120.307 185.900,120.496 185.743 C 120.657 185.609,121.012 185.558,121.285 185.630 C 121.557 185.701,121.931 185.635,122.114 185.483 C 122.305 185.324,122.690 185.266,123.013 185.348 C 123.345 185.431,123.579 185.393,123.579 185.256 C 123.579 185.119,123.812 185.081,124.142 185.164 C 124.503 185.254,124.705 185.210,124.705 185.040 C 124.705 184.882,124.878 184.830,125.136 184.912 C 125.373 184.988,125.626 184.953,125.699 184.836 C 125.771 184.719,126.033 184.676,126.280 184.741 C 126.528 184.805,126.730 184.751,126.730 184.619 C 126.730 184.449,126.932 184.449,127.417 184.618 C 127.795 184.750,128.166 184.796,128.243 184.719 C 128.319 184.643,128.212 184.581,128.006 184.581 C 127.593 184.581,127.501 184.237,127.856 184.018 C 127.980 183.941,128.081 184.002,128.081 184.152 C 128.081 184.322,128.252 184.271,128.531 184.018 C 128.857 183.723,128.981 183.694,128.981 183.914 C 128.981 184.107,129.101 184.058,129.312 183.780 C 129.550 183.465,129.644 183.433,129.650 183.667 C 129.655 183.901,129.749 183.870,129.987 183.555 C 130.240 183.220,130.320 183.197,130.328 183.455 C 130.337 183.735,130.373 183.740,130.535 183.483 C 130.643 183.312,130.845 183.242,130.982 183.327 C 131.120 183.412,131.232 183.378,131.232 183.251 C 131.232 183.123,131.384 183.077,131.570 183.149 C 131.756 183.220,131.908 183.160,131.908 183.016 C 131.908 182.872,132.009 182.816,132.133 182.893 C 132.257 182.969,132.358 182.928,132.358 182.800 C 132.358 182.673,132.510 182.627,132.696 182.699 C 132.881 182.770,133.033 182.710,133.033 182.566 C 133.033 182.421,133.134 182.366,133.258 182.442 C 133.382 182.519,133.483 182.477,133.483 182.350 C 133.483 182.223,133.652 182.183,133.858 182.263 C 134.130 182.367,134.182 182.325,134.048 182.108 C 133.928 181.914,133.951 181.864,134.114 181.965 C 134.252 182.050,135.278 181.660,136.395 181.099 C 137.513 180.538,138.505 180.084,138.600 180.090 C 138.695 180.096,137.887 180.553,136.804 181.106 C 135.720 181.658,134.834 182.160,134.834 182.222 C 134.834 182.418,139.844 179.833,141.366 178.851 C 143.618 177.398,147.330 174.475,146.539 174.777 C 146.294 174.871,146.201 174.751,146.201 174.341 C 146.201 174.030,146.283 173.776,146.384 173.776 C 146.484 173.776,146.493 173.659,146.405 173.516 C 146.302 173.350,146.344 173.318,146.520 173.427 C 146.697 173.536,147.378 173.006,148.412 171.955 C 149.301 171.052,150.104 170.294,150.197 170.272 C 150.290 170.249,150.473 170.218,150.604 170.203 C 150.735 170.187,150.783 170.078,150.710 169.961 C 150.638 169.843,150.787 169.635,151.041 169.499 C 151.296 169.363,151.452 169.168,151.389 169.065 C 151.326 168.963,151.613 168.548,152.028 168.142 C 152.500 167.680,152.743 167.255,152.677 167.004 C 152.593 166.683,152.673 166.630,153.080 166.736 C 153.405 166.821,153.535 166.784,153.441 166.632 C 153.361 166.502,153.461 166.331,153.663 166.254 C 153.866 166.176,153.977 166.058,153.911 165.991 C 153.844 165.924,154.030 165.610,154.324 165.293 C 154.619 164.975,154.805 164.627,154.738 164.519 C 154.671 164.410,154.712 164.322,154.829 164.322 C 155.092 164.322,155.843 163.202,155.843 162.809 C 155.843 162.651,155.934 162.521,156.044 162.521 C 156.155 162.521,156.189 162.430,156.120 162.320 C 156.052 162.209,156.170 162.051,156.382 161.970 C 156.713 161.843,156.721 161.792,156.437 161.612 C 156.175 161.446,156.170 161.402,156.413 161.399 C 156.606 161.397,156.679 161.233,156.608 160.962 C 156.523 160.640,156.584 160.563,156.843 160.663 C 157.073 160.751,157.137 160.707,157.030 160.533 C 156.929 160.370,157.021 160.269,157.274 160.267 C 157.588 160.264,157.612 160.219,157.376 160.070 C 157.026 159.848,157.631 158.697,158.101 158.691 C 158.242 158.689,158.205 158.589,158.019 158.469 C 157.735 158.285,157.747 158.251,158.099 158.248 C 158.378 158.245,158.474 158.131,158.388 157.907 C 158.317 157.721,158.362 157.569,158.490 157.569 C 158.617 157.569,158.658 157.468,158.582 157.344 C 158.505 157.220,158.557 157.119,158.696 157.119 C 158.933 157.119,158.901 157.362,158.515 158.469 C 158.274 159.161,158.652 158.545,159.106 157.505 C 159.365 156.913,159.486 156.484,159.376 156.552 C 159.266 156.620,159.112 156.573,159.034 156.447 C 158.957 156.321,158.983 156.218,159.094 156.218 C 159.204 156.218,159.275 155.990,159.250 155.712 C 159.202 155.158,159.520 154.400,159.910 154.140 C 160.072 154.031,160.045 153.973,159.831 153.971 C 159.577 153.968,159.565 153.907,159.775 153.697 C 159.923 153.549,160.045 153.144,160.045 152.797 C 160.045 152.450,160.265 151.947,160.534 151.677 C 160.891 151.320,160.922 151.227,160.647 151.333 C 160.130 151.531,160.172 151.211,160.715 150.820 C 161.007 150.610,161.075 150.446,160.912 150.345 C 160.775 150.260,160.732 150.078,160.817 149.941 C 161.050 149.565,161.396 149.640,161.396 150.066 C 161.396 150.272,161.458 150.378,161.534 150.302 C 161.610 150.226,161.561 149.843,161.424 149.451 C 161.288 149.059,161.249 148.623,161.337 148.483 C 161.432 148.333,161.559 148.506,161.646 148.903 L 161.793 149.578 161.819 148.944 C 161.834 148.596,161.744 148.121,161.620 147.889 C 161.494 147.653,161.482 147.413,161.592 147.345 C 161.701 147.278,161.764 146.617,161.734 145.878 C 161.700 145.064,161.768 144.551,161.905 144.579 C 162.259 144.652,162.549 143.361,162.375 142.487 C 162.289 142.054,162.209 141.649,162.197 141.587 C 162.186 141.525,162.096 141.348,161.998 141.193 C 161.900 141.038,161.895 140.912,161.988 140.912 C 162.081 140.912,161.996 140.785,161.798 140.630 C 161.253 140.203,161.354 138.085,161.917 138.132 C 162.311 138.164,162.311 138.149,161.917 137.699 C 161.537 137.267,161.536 137.244,161.902 137.377 C 162.452 137.578,162.524 47.740,161.973 47.283 C 161.796 47.136,161.660 46.845,161.671 46.637 C 161.708 45.926,161.372 44.010,160.592 40.484 L 159.812 36.962 159.825 28.237 C 159.834 22.474,159.759 19.432,159.604 19.278 C 159.215 18.888,159.338 18.683,159.960 18.683 C 160.444 18.683,160.503 18.626,160.286 18.364 C 160.075 18.110,160.114 18.016,160.483 17.899 C 160.737 17.818,160.945 17.652,160.945 17.529 C 160.945 17.406,160.840 17.371,160.710 17.451 C 160.581 17.531,160.328 17.474,160.148 17.324 C 159.888 17.109,159.819 17.116,159.816 17.361 C 159.814 17.604,159.766 17.598,159.595 17.333 C 159.475 17.147,159.374 17.096,159.370 17.220 C 159.366 17.344,159.267 17.293,159.149 17.107 C 158.962 16.810,154.668 16.761,123.193 16.699 C 88.720 16.631,84.931 16.673,85.208 17.121 C 85.386 17.409,84.563 17.084,84.359 16.786 C 84.247 16.622,84.193 16.621,84.190 16.781 M82.769 18.382 C 82.851 18.597,82.820 18.700,82.696 18.623 C 82.577 18.550,82.464 18.697,82.445 18.951 C 82.411 19.396,82.421 19.397,82.729 18.991 C 83.099 18.502,83.157 18.008,82.843 18.008 C 82.723 18.008,82.690 18.176,82.769 18.382 M84.637 19.021 C 84.483 19.207,84.268 19.358,84.159 19.358 C 84.051 19.358,83.962 19.207,83.962 19.021 C 83.962 18.827,84.165 18.683,84.439 18.683 C 84.839 18.683,84.871 18.739,84.637 19.021 M84.593 25.913 C 84.235 26.135,83.853 25.794,84.069 25.445 C 84.186 25.256,84.313 25.260,84.555 25.462 C 84.818 25.680,84.825 25.770,84.593 25.913 M102.719 28.081 C 111.611 28.114,126.097 28.114,134.908 28.081 C 143.719 28.048,136.443 28.022,118.739 28.022 C 101.035 28.022,93.826 28.048,102.719 28.081 M68.961 137.518 C 68.572 137.755,68.174 138.078,68.076 138.236 C 67.978 138.395,68.195 138.317,68.558 138.064 C 68.921 137.811,69.420 137.490,69.668 137.351 C 69.916 137.212,70.017 137.096,69.893 137.093 C 69.769 137.089,69.350 137.281,68.961 137.518 M160.495 139.899 C 160.495 140.456,160.394 140.912,160.270 140.912 C 160.146 140.912,160.045 140.456,160.045 139.899 C 160.045 139.342,160.146 138.886,160.270 138.886 C 160.394 138.886,160.495 139.342,160.495 139.899 M77.166 139.353 C 77.121 139.486,77.012 139.587,76.922 139.578 C 76.832 139.569,75.492 139.561,73.945 139.561 C 72.219 139.561,71.131 139.474,71.131 139.336 C 71.131 139.197,72.300 139.111,74.189 139.111 C 76.269 139.111,77.221 139.188,77.166 139.353 M70.231 140.925 C 70.231 141.777,70.146 142.237,70.006 142.150 C 69.882 142.073,69.781 141.459,69.781 140.786 C 69.781 140.112,69.882 139.561,70.006 139.561 C 70.131 139.561,70.231 140.166,70.231 140.925 M153.292 142.136 C 153.292 142.315,153.191 142.523,153.067 142.600 C 152.943 142.676,152.842 142.530,152.842 142.276 C 152.842 142.021,152.943 141.812,153.067 141.812 C 153.191 141.812,153.292 141.958,153.292 142.136 M77.464 142.860 C 77.252 143.224,77.222 143.193,77.216 142.611 C 77.211 142.127,77.276 142.014,77.457 142.196 C 77.635 142.374,77.637 142.562,77.464 142.860 M67.819 144.176 C 67.821 144.795,67.864 145.021,67.916 144.679 C 67.968 144.337,67.967 143.830,67.913 143.553 C 67.860 143.277,67.817 143.557,67.819 144.176 M144.885 158.962 C 144.811 159.452,143.838 160.302,143.838 159.878 C 143.838 159.648,144.698 158.469,144.866 158.469 C 144.918 158.469,144.927 158.691,144.885 158.962 M144.405 160.312 C 144.476 160.383,144.272 160.507,143.952 160.587 C 143.599 160.676,143.431 160.833,143.526 160.987 C 143.616 161.132,143.582 161.178,143.446 161.094 C 143.201 160.943,142.825 161.562,142.921 161.958 C 142.951 162.082,142.917 162.125,142.845 162.054 C 142.663 161.872,138.750 165.739,138.863 165.989 C 138.914 166.101,138.839 166.120,138.696 166.032 C 138.542 165.937,138.332 166.104,138.175 166.448 C 138.031 166.764,137.822 167.023,137.711 167.023 C 137.600 167.023,137.573 166.896,137.653 166.742 C 137.732 166.587,137.517 166.764,137.175 167.136 C 136.834 167.507,136.468 167.785,136.363 167.753 C 136.258 167.720,136.114 167.846,136.042 168.033 C 135.971 168.219,135.821 168.315,135.709 168.245 C 135.597 168.176,135.411 168.354,135.297 168.641 C 135.177 168.939,135.078 169.018,135.066 168.824 C 135.047 168.524,135.014 168.524,134.771 168.824 C 134.620 169.010,134.294 169.193,134.046 169.232 C 133.727 169.282,133.815 169.151,134.350 168.782 C 134.764 168.495,135.524 167.935,136.038 167.537 C 136.552 167.138,137.380 166.516,137.878 166.154 C 139.089 165.274,142.226 162.089,142.979 160.974 C 143.519 160.175,144.030 159.937,144.405 160.312 M87.898 161.473 C 88.514 162.412,92.091 165.945,93.191 166.699 C 93.748 167.082,94.186 167.492,94.164 167.611 C 94.141 167.730,94.319 167.827,94.557 167.827 C 95.117 167.827,95.207 167.926,93.539 166.702 C 92.740 166.115,91.059 164.568,89.802 163.264 C 88.546 161.959,87.689 161.153,87.898 161.473 M156.623 162.240 C 156.316 162.704,155.912 163.337,155.724 163.647 C 155.536 163.956,155.011 164.792,154.556 165.504 C 154.101 166.216,153.781 166.798,153.845 166.798 C 153.982 166.798,154.922 165.417,155.893 163.787 C 156.272 163.153,156.764 162.355,156.988 162.015 C 157.212 161.674,157.347 161.396,157.288 161.396 C 157.228 161.396,156.929 161.775,156.623 162.240 M74.845 164.547 C 75.037 164.918,75.245 165.222,75.307 165.222 C 75.369 165.222,75.262 164.918,75.070 164.547 C 74.878 164.176,74.670 163.872,74.609 163.872 C 74.547 163.872,74.653 164.176,74.845 164.547 M77.997 168.131 C 78.137 168.370,78.087 168.413,77.798 168.303 C 77.202 168.074,78.601 169.738,81.252 172.413 C 82.547 173.720,83.130 174.279,82.546 173.656 C 81.522 172.561,81.185 171.993,81.767 172.343 C 81.961 172.459,81.953 172.394,81.742 172.133 C 81.573 171.925,81.337 171.816,81.217 171.890 C 80.804 172.145,78.372 169.353,78.243 168.476 C 78.218 168.303,78.111 168.083,78.005 167.986 C 77.898 167.890,77.895 167.954,77.997 168.131 M151.829 168.599 C 151.605 168.846,151.491 169.049,151.577 169.049 C 151.662 169.049,151.622 169.254,151.488 169.505 C 151.354 169.757,151.169 169.916,151.078 169.860 C 150.987 169.803,150.912 169.948,150.912 170.180 C 150.912 170.413,150.923 170.583,150.936 170.558 C 150.949 170.533,151.455 169.955,152.062 169.274 C 152.668 168.593,153.021 168.163,152.845 168.317 C 152.465 168.654,152.083 168.692,152.279 168.374 C 152.512 167.996,152.260 168.122,151.829 168.599 M96.567 168.925 C 96.567 168.987,96.871 169.195,97.243 169.387 C 97.614 169.579,97.918 169.685,97.918 169.623 C 97.918 169.561,97.614 169.354,97.243 169.162 C 96.871 168.969,96.567 168.863,96.567 168.925 M98.310 169.970 C 98.463 170.167,98.533 170.385,98.464 170.454 C 98.395 170.523,98.471 170.570,98.634 170.558 C 98.797 170.546,99.387 170.748,99.944 171.006 C 100.501 171.265,101.210 171.542,101.519 171.622 C 101.829 171.702,101.331 171.408,100.413 170.968 C 99.495 170.528,98.584 170.043,98.387 169.890 C 98.080 169.650,98.069 169.661,98.310 169.970 M148.671 172.257 L 147.327 173.663 148.734 172.320 C 150.041 171.072,150.244 170.850,150.077 170.850 C 150.043 170.850,149.409 171.483,148.671 172.257 M148.785 172.819 L 146.877 174.789 148.846 172.881 C 150.676 171.108,150.919 170.850,150.755 170.850 C 150.721 170.850,149.835 171.736,148.785 172.819 M128.238 171.668 C 128.160 171.746,127.307 172.095,126.344 172.443 C 125.380 172.791,124.703 173.081,124.838 173.088 C 125.193 173.106,127.462 172.305,128.222 171.893 C 128.578 171.701,128.759 171.539,128.625 171.534 C 128.491 171.529,128.317 171.589,128.238 171.668 M146.022 174.648 C 145.849 175.781,139.158 180.465,138.589 179.851 C 138.383 179.627,138.386 179.598,138.604 179.721 C 138.759 179.809,138.886 179.767,138.886 179.629 C 138.886 179.490,138.987 179.440,139.111 179.516 C 139.235 179.593,139.336 179.542,139.336 179.403 C 139.336 179.265,139.431 179.211,139.547 179.282 C 139.663 179.354,139.863 179.234,139.991 179.014 C 140.118 178.795,140.226 178.711,140.230 178.827 C 140.233 178.944,140.396 178.843,140.591 178.602 C 140.786 178.362,140.871 178.308,140.781 178.482 C 140.673 178.689,140.706 178.743,140.877 178.637 C 141.020 178.549,141.148 178.255,141.163 177.983 C 141.186 177.541,141.200 177.535,141.300 177.928 C 141.403 178.333,141.434 178.325,141.716 177.815 C 141.900 177.484,142.025 177.399,142.031 177.603 C 142.036 177.802,142.213 177.678,142.463 177.299 C 142.750 176.863,142.922 176.755,142.998 176.962 C 143.067 177.146,143.251 176.955,143.466 176.477 C 143.716 175.920,143.824 175.821,143.832 176.140 C 143.841 176.520,143.932 176.476,144.421 175.856 C 144.739 175.452,145.092 175.180,145.206 175.250 C 145.319 175.320,145.530 175.118,145.674 174.802 C 145.984 174.121,146.111 174.065,146.022 174.648 M84.451 175.410 C 85.888 176.633,89.245 179.084,90.039 179.490 C 90.225 179.584,90.098 179.443,89.757 179.175 C 89.416 178.908,89.193 178.598,89.262 178.486 C 89.331 178.374,89.249 178.336,89.079 178.401 C 88.706 178.545,87.507 177.651,87.685 177.362 C 87.755 177.250,87.680 177.207,87.519 177.267 C 87.230 177.374,84.486 175.189,84.565 174.914 C 84.587 174.836,84.402 174.773,84.154 174.773 C 83.772 174.773,83.818 174.871,84.451 175.410 M120.653 176.477 C 120.653 176.601,120.501 176.702,120.315 176.702 C 120.129 176.702,119.977 176.601,119.977 176.477 C 119.977 176.353,120.129 176.252,120.315 176.252 C 120.501 176.252,120.653 176.353,120.653 176.477 M113.852 186.323 C 114.631 186.367,115.847 186.367,116.554 186.323 C 117.261 186.278,116.624 186.242,115.138 186.242 C 113.652 186.243,113.074 186.279,113.852 186.323 " stroke="none" fill="#bc0404" fill-rule="evenodd"></path><path id="path1" d="M83.512 16.657 C 83.078 16.881,82.655 17.022,82.571 16.970 C 82.486 16.918,82.344 16.994,82.254 17.139 C 82.144 17.317,82.194 17.344,82.408 17.222 C 82.581 17.122,82.499 17.259,82.225 17.526 C 81.951 17.793,81.780 18.152,81.846 18.324 C 81.912 18.497,81.858 18.705,81.726 18.786 C 81.406 18.984,81.397 25.580,81.717 25.777 C 81.844 25.856,81.925 26.039,81.897 26.185 C 81.870 26.330,82.069 26.804,82.341 27.237 C 82.612 27.670,82.835 27.945,82.835 27.848 C 82.836 27.751,83.064 27.796,83.343 27.948 C 84.020 28.318,80.642 28.281,117.670 28.324 L 150.815 28.362 150.872 83.568 L 150.929 138.773 150.985 83.584 C 151.038 31.240,151.061 28.390,151.435 28.292 C 151.810 28.194,151.810 28.188,151.435 28.163 C 151.218 28.149,151.041 28.036,151.041 27.912 C 151.041 27.763,139.942 27.687,118.195 27.687 C 92.838 27.687,85.329 27.625,85.260 27.417 C 85.192 27.213,85.130 27.211,85.008 27.408 C 84.904 27.576,85.113 27.751,85.586 27.894 L 86.325 28.117 85.650 28.071 C 85.193 28.040,84.903 27.861,84.752 27.518 C 84.630 27.240,84.447 27.012,84.345 27.012 C 84.244 27.012,84.219 27.106,84.290 27.221 C 84.361 27.337,84.301 27.504,84.156 27.594 C 83.991 27.696,83.952 27.659,84.053 27.497 C 84.141 27.354,84.100 27.237,83.962 27.237 C 83.823 27.237,83.769 27.142,83.840 27.026 C 83.912 26.911,83.612 26.543,83.175 26.209 C 82.548 25.731,82.434 25.538,82.635 25.294 C 82.823 25.068,82.824 24.986,82.639 24.986 C 82.466 24.986,82.386 24.132,82.386 22.285 C 82.386 20.634,82.474 19.584,82.611 19.584 C 82.735 19.584,82.836 19.447,82.836 19.281 C 82.836 19.114,83.039 18.795,83.286 18.571 C 83.534 18.347,83.737 18.027,83.737 17.860 C 83.737 17.694,83.952 17.558,84.214 17.558 C 84.617 17.558,84.647 17.504,84.407 17.215 C 84.251 17.026,84.188 16.806,84.267 16.727 C 84.347 16.647,84.412 16.689,84.412 16.819 C 84.412 16.949,84.615 17.108,84.862 17.173 C 85.110 17.238,85.261 17.206,85.197 17.103 C 84.933 16.676,89.050 16.632,123.193 16.699 C 154.668 16.761,158.962 16.810,159.149 17.107 C 159.267 17.293,159.366 17.344,159.370 17.220 C 159.374 17.096,159.475 17.147,159.595 17.333 C 159.766 17.598,159.814 17.604,159.816 17.361 C 159.819 17.116,159.888 17.109,160.148 17.324 C 160.328 17.474,160.581 17.531,160.710 17.451 C 160.840 17.371,160.945 17.406,160.945 17.529 C 160.945 17.652,160.737 17.818,160.483 17.899 C 160.114 18.016,160.075 18.110,160.286 18.364 C 160.503 18.626,160.444 18.683,159.960 18.683 C 159.338 18.683,159.215 18.888,159.604 19.278 C 159.759 19.432,159.834 22.474,159.825 28.237 L 159.812 36.962 160.592 40.484 C 161.372 44.010,161.708 45.926,161.671 46.637 C 161.660 46.845,161.796 47.136,161.973 47.283 C 162.524 47.740,162.452 137.578,161.902 137.377 C 161.536 137.244,161.537 137.267,161.917 137.699 C 162.311 138.149,162.311 138.164,161.917 138.132 C 161.375 138.087,161.251 140.200,161.770 140.610 C 161.952 140.753,162.094 140.931,162.086 141.004 C 162.078 141.077,162.078 141.162,162.088 141.193 C 162.097 141.224,162.150 141.496,162.205 141.798 C 162.368 142.686,162.465 142.594,162.762 141.266 C 162.985 140.271,162.986 139.694,162.769 138.491 C 162.559 137.323,162.511 126.763,162.565 92.787 L 162.634 48.603 163.579 50.694 C 164.099 51.844,164.944 53.748,165.456 54.924 C 166.577 57.498,167.986 60.662,168.764 62.352 C 169.077 63.033,170.038 65.160,170.899 67.079 C 171.760 68.998,172.760 71.191,173.120 71.951 C 173.481 72.712,173.776 73.446,173.776 73.583 C 173.776 73.720,174.031 74.313,174.342 74.901 C 174.653 75.490,175.324 76.933,175.832 78.109 C 177.193 81.259,180.680 89.045,181.426 90.602 C 181.783 91.345,182.145 92.206,182.231 92.515 C 182.317 92.825,182.677 93.635,183.031 94.316 C 183.385 94.997,184.241 96.871,184.932 98.481 C 185.623 100.090,186.424 101.913,186.712 102.532 C 187.599 104.442,189.222 108.066,190.090 110.073 C 190.545 111.125,191.315 112.816,191.801 113.830 C 192.287 114.844,192.684 115.739,192.684 115.820 C 192.684 115.900,192.988 116.622,193.360 117.424 C 193.731 118.227,194.035 118.922,194.035 118.969 C 194.035 119.016,194.491 120.011,195.048 121.179 C 195.605 122.348,196.061 123.394,196.061 123.504 C 196.061 123.614,196.448 124.461,196.920 125.386 C 197.393 126.311,197.887 127.372,198.019 127.743 C 198.151 128.115,198.968 129.989,199.834 131.908 C 200.701 133.827,201.788 136.258,202.252 137.310 C 202.715 138.362,203.396 139.882,203.766 140.687 C 204.136 141.491,204.573 142.523,204.736 142.979 C 204.900 143.435,205.345 144.398,205.724 145.118 C 206.104 145.838,206.415 146.500,206.415 146.590 C 206.415 146.729,208.079 150.441,209.569 153.630 C 210.391 155.387,214.267 164.014,215.082 165.898 C 215.537 166.950,216.458 168.978,217.128 170.404 C 217.797 171.830,218.346 173.059,218.346 173.136 C 218.346 173.212,218.807 174.274,219.371 175.495 C 219.935 176.716,220.489 177.918,220.603 178.165 C 220.716 178.413,221.005 179.122,221.245 179.741 C 222.825 183.822,223.692 184.807,225.706 184.805 C 227.212 184.804,228.122 184.192,228.800 182.726 C 230.568 178.903,231.855 175.983,232.263 174.870 C 232.518 174.171,233.087 172.893,233.527 172.030 C 233.967 171.166,234.328 170.403,234.328 170.333 C 234.328 170.264,234.682 169.440,235.115 168.502 C 235.549 167.564,235.903 166.732,235.903 166.654 C 235.903 166.576,236.308 165.717,236.804 164.745 C 237.299 163.773,237.704 162.857,237.704 162.709 C 237.704 162.560,238.218 161.428,238.847 160.192 C 239.476 158.956,240.180 157.466,240.411 156.879 C 240.642 156.293,241.181 155.069,241.610 154.159 C 242.038 153.249,242.762 151.643,243.219 150.591 C 243.675 149.539,244.332 148.070,244.678 147.327 C 245.024 146.584,245.936 144.508,246.704 142.712 C 247.472 140.917,248.192 139.336,248.305 139.199 C 248.419 139.062,248.708 138.377,248.949 137.677 C 249.190 136.977,249.539 136.127,249.726 135.788 C 250.180 134.964,252.110 130.765,252.110 130.602 C 252.110 130.531,252.556 129.504,253.101 128.320 C 253.646 127.136,254.466 125.307,254.924 124.254 C 255.858 122.108,257.516 118.417,258.310 116.714 C 258.599 116.095,259.404 114.271,260.098 112.662 C 260.793 111.052,261.711 109.036,262.138 108.181 C 262.565 107.325,262.915 106.493,262.915 106.330 C 262.915 106.168,263.095 105.703,263.316 105.297 C 263.536 104.891,264.209 103.444,264.811 102.082 C 265.413 100.720,266.336 98.644,266.862 97.468 C 267.388 96.292,268.243 94.367,268.763 93.191 C 269.282 92.015,270.065 90.293,270.501 89.364 C 270.938 88.436,271.423 87.321,271.579 86.888 C 271.735 86.455,272.070 85.695,272.322 85.200 C 272.574 84.705,273.304 83.084,273.944 81.598 C 274.584 80.113,275.345 78.441,275.634 77.884 C 275.924 77.327,276.378 76.314,276.643 75.633 C 276.909 74.952,277.363 73.889,277.652 73.270 C 277.941 72.651,278.600 71.182,279.117 70.006 C 280.377 67.136,281.419 64.805,282.256 62.981 C 282.637 62.150,282.949 61.410,282.949 61.337 C 282.949 61.263,283.506 60.035,284.187 58.608 C 284.868 57.181,285.425 55.923,285.425 55.813 C 285.425 55.703,285.713 55.027,286.066 54.312 C 286.419 53.596,287.103 52.160,287.586 51.121 L 288.464 49.230 288.576 117.197 C 288.701 192.638,288.552 185.765,290.089 186.772 C 290.976 187.354,298.462 187.365,299.518 186.786 C 300.950 186.002,300.844 192.790,300.844 101.632 C 300.844 9.995,300.962 17.401,299.491 16.659 C 298.462 16.140,290.989 16.169,290.027 16.696 C 289.323 17.083,288.271 18.970,286.473 23.073 C 285.062 26.290,283.801 29.116,283.029 30.787 C 282.614 31.687,282.273 32.484,282.273 32.557 C 282.273 32.630,281.818 33.645,281.261 34.814 C 280.703 35.982,280.248 36.990,280.248 37.054 C 280.248 37.118,279.985 37.746,279.665 38.450 C 279.344 39.154,278.675 40.642,278.178 41.756 C 277.682 42.870,276.787 44.845,276.191 46.145 C 275.594 47.445,274.732 49.370,274.274 50.422 C 273.817 51.474,273.100 53.079,272.681 53.987 C 272.262 54.896,271.919 55.696,271.919 55.764 C 271.919 55.938,269.982 60.216,269.344 61.452 C 269.057 62.009,268.692 62.870,268.534 63.365 C 268.375 63.860,268.011 64.685,267.725 65.198 C 267.439 65.711,266.993 66.668,266.734 67.324 C 266.247 68.559,264.075 73.471,262.362 77.209 C 261.823 78.385,261.068 80.031,260.685 80.867 C 260.302 81.703,259.989 82.442,259.989 82.510 C 259.989 82.578,259.543 83.581,258.997 84.740 C 258.452 85.899,257.932 87.084,257.840 87.374 C 257.749 87.664,257.030 89.258,256.243 90.916 C 255.456 92.575,254.811 94.024,254.811 94.137 C 254.811 94.249,254.498 94.969,254.115 95.736 C 253.732 96.503,253.232 97.586,253.005 98.143 C 252.777 98.700,252.069 100.321,251.431 101.745 C 250.793 103.168,249.633 105.802,248.853 107.597 C 248.073 109.392,247.119 111.481,246.733 112.239 C 246.348 112.998,246.033 113.693,246.033 113.784 C 246.033 113.875,245.577 114.906,245.020 116.074 C 244.463 117.243,244.007 118.254,244.007 118.323 C 244.007 118.456,243.978 118.522,242.147 122.566 C 240.609 125.964,239.551 128.342,238.493 130.782 C 238.037 131.835,237.426 133.202,237.135 133.821 C 236.845 134.440,236.040 136.263,235.349 137.873 C 234.657 139.482,233.751 141.458,233.336 142.262 C 232.921 143.067,232.507 143.979,232.416 144.288 C 232.325 144.598,231.895 145.611,231.459 146.539 C 231.023 147.468,230.132 149.443,229.480 150.929 C 225.454 160.099,225.487 160.046,225.006 158.131 C 224.931 157.832,224.465 156.716,223.971 155.651 C 223.477 154.587,223.073 153.670,223.073 153.614 C 223.073 153.558,222.728 152.779,222.306 151.882 C 221.884 150.986,221.166 149.392,220.709 148.340 C 219.618 145.827,218.523 143.363,217.208 140.461 C 216.619 139.162,215.762 137.237,215.303 136.185 C 214.844 135.132,214.085 133.461,213.616 132.470 C 213.148 131.480,212.690 130.416,212.600 130.107 C 212.509 129.797,212.154 128.987,211.811 128.306 C 211.468 127.625,210.811 126.207,210.350 125.155 C 209.890 124.102,208.654 121.317,207.603 118.965 C 206.553 116.612,205.358 113.928,204.946 112.999 C 204.535 112.071,203.695 110.197,203.079 108.835 C 202.463 107.473,201.694 105.727,201.371 104.955 C 201.048 104.182,200.329 102.590,199.773 101.415 C 199.217 100.241,198.762 99.216,198.762 99.138 C 198.762 99.060,198.499 98.475,198.177 97.838 C 197.855 97.201,196.951 95.211,196.168 93.416 C 195.385 91.621,194.270 89.088,193.690 87.788 C 193.111 86.488,192.359 84.766,192.021 83.962 C 191.682 83.157,191.136 81.993,190.807 81.375 C 190.478 80.757,190.208 80.114,190.208 79.946 C 190.208 79.778,189.813 78.866,189.331 77.918 C 188.849 76.971,187.925 74.980,187.279 73.495 C 186.633 72.009,185.822 70.186,185.476 69.443 C 185.131 68.700,184.484 67.257,184.039 66.235 C 183.594 65.214,182.867 63.542,182.422 62.521 C 181.978 61.500,181.066 59.497,180.396 58.071 C 179.726 56.645,179.178 55.416,179.178 55.339 C 179.178 55.186,177.385 51.259,176.692 49.894 C 176.450 49.418,176.252 48.903,176.252 48.748 C 176.252 48.593,175.903 47.767,175.475 46.912 C 175.048 46.057,174.131 44.041,173.438 42.431 C 172.745 40.822,171.883 38.897,171.521 38.154 C 170.903 36.884,170.248 35.411,168.268 30.838 C 167.812 29.786,167.042 28.095,166.556 27.081 C 166.070 26.067,165.672 25.169,165.672 25.086 C 165.672 25.002,165.309 24.161,164.864 23.215 C 164.419 22.270,163.896 21.092,163.701 20.597 C 163.506 20.101,163.161 19.427,162.934 19.099 C 162.707 18.770,162.521 18.390,162.521 18.255 C 162.521 18.119,162.414 18.008,162.283 18.008 C 162.152 18.008,162.094 17.928,162.154 17.830 C 162.215 17.732,161.968 17.454,161.605 17.211 C 161.243 16.968,160.946 16.695,160.946 16.604 C 160.946 16.512,143.765 16.436,122.768 16.433 C 101.770 16.431,84.525 16.389,84.445 16.340 C 84.365 16.290,83.945 16.433,83.512 16.657 M83.054 18.289 C 83.050 18.444,82.904 18.760,82.729 18.991 C 82.421 19.397,82.411 19.396,82.445 18.951 C 82.464 18.697,82.577 18.550,82.696 18.623 C 82.820 18.700,82.851 18.597,82.769 18.382 C 82.690 18.176,82.723 18.008,82.843 18.008 C 82.963 18.008,83.058 18.134,83.054 18.289 M83.962 19.021 C 83.962 19.207,84.051 19.358,84.159 19.358 C 84.268 19.358,84.483 19.207,84.637 19.021 C 84.871 18.739,84.839 18.683,84.439 18.683 C 84.165 18.683,83.962 18.827,83.962 19.021 M84.069 25.445 C 83.853 25.794,84.235 26.135,84.593 25.913 C 84.825 25.770,84.818 25.680,84.555 25.462 C 84.313 25.260,84.186 25.256,84.069 25.445 M134.908 28.081 C 126.097 28.114,111.611 28.114,102.719 28.081 C 93.826 28.048,101.035 28.022,118.739 28.022 C 136.443 28.022,143.719 28.048,134.908 28.081 M71.806 136.702 C 71.745 136.768,71.383 136.858,71.004 136.901 C 70.204 136.992,67.723 138.428,67.892 138.701 C 67.955 138.803,67.899 138.886,67.768 138.886 C 67.445 138.886,67.447 142.860,67.770 143.060 C 67.902 143.141,67.985 143.685,67.955 144.267 C 67.924 144.849,67.963 145.429,68.041 145.556 C 68.120 145.683,68.289 146.437,68.417 147.232 C 68.545 148.027,68.751 149.025,68.874 149.450 C 68.997 149.876,69.049 150.271,68.991 150.330 C 68.932 150.389,68.977 150.549,69.090 150.685 C 69.204 150.822,69.329 151.237,69.370 151.607 C 69.410 151.976,69.516 152.334,69.606 152.402 C 69.696 152.469,69.797 152.773,69.831 153.077 C 69.865 153.381,69.986 153.697,70.099 153.779 C 70.213 153.861,70.306 154.236,70.306 154.613 C 70.306 155.014,70.399 155.240,70.532 155.159 C 70.666 155.075,70.699 155.170,70.614 155.394 C 70.535 155.600,70.546 155.768,70.638 155.768 C 70.802 155.768,72.326 159.451,72.269 159.707 C 72.253 159.778,72.397 159.992,72.588 160.184 C 72.780 160.375,72.884 160.616,72.820 160.719 C 72.756 160.822,72.786 160.941,72.887 160.982 C 72.988 161.024,73.614 162.020,74.278 163.196 C 74.942 164.373,75.769 165.701,76.116 166.147 C 76.463 166.594,76.673 167.033,76.584 167.123 C 76.494 167.212,76.573 167.252,76.759 167.211 C 76.968 167.164,77.084 167.288,77.064 167.536 C 77.045 167.770,77.302 168.077,77.683 168.273 C 78.279 168.582,78.443 168.843,78.355 169.347 C 78.338 169.449,78.408 169.480,78.512 169.416 C 78.617 169.351,78.870 169.583,79.075 169.930 C 79.280 170.277,79.850 170.924,80.340 171.368 C 80.831 171.811,81.796 172.787,82.485 173.536 C 83.173 174.285,83.737 174.844,83.737 174.779 C 83.737 174.714,83.942 174.771,84.193 174.905 C 84.444 175.039,84.581 175.261,84.496 175.398 C 84.402 175.551,84.446 175.582,84.611 175.481 C 84.921 175.289,86.817 176.904,86.700 177.260 C 86.659 177.387,86.698 177.418,86.786 177.329 C 87.014 177.101,87.829 177.579,87.665 177.845 C 87.591 177.965,87.613 178.040,87.715 178.011 C 87.817 177.981,88.131 178.085,88.412 178.241 C 88.693 178.396,89.048 178.449,89.200 178.358 C 89.353 178.266,89.325 178.382,89.139 178.616 C 88.953 178.849,88.915 178.972,89.054 178.888 C 89.194 178.805,89.551 178.963,89.849 179.239 C 90.147 179.515,90.466 179.761,90.558 179.785 C 91.271 179.971,92.252 180.409,92.187 180.514 C 92.144 180.584,92.377 180.655,92.706 180.672 C 93.285 180.702,93.281 180.692,92.572 180.350 C 92.169 180.156,91.839 179.838,91.837 179.644 C 91.834 179.334,91.807 179.332,91.615 179.629 C 91.433 179.910,91.393 179.891,91.376 179.516 C 91.363 179.254,91.305 179.188,91.237 179.359 C 91.149 179.580,91.037 179.552,90.788 179.247 C 90.605 179.023,90.530 178.983,90.620 179.157 C 90.728 179.365,90.695 179.418,90.524 179.312 C 90.381 179.224,90.264 179.006,90.264 178.827 C 90.264 178.649,90.157 178.503,90.026 178.503 C 89.895 178.503,89.852 178.630,89.930 178.784 C 90.009 178.939,89.909 178.863,89.709 178.616 C 89.509 178.368,89.248 178.153,89.129 178.137 C 89.011 178.122,88.807 178.097,88.676 178.081 C 88.544 178.066,88.509 177.936,88.598 177.793 C 88.695 177.636,88.660 177.594,88.510 177.687 C 88.373 177.771,88.152 177.636,88.018 177.386 C 87.884 177.136,87.702 176.947,87.613 176.965 C 87.281 177.034,86.670 176.648,86.793 176.448 C 86.864 176.334,86.838 176.265,86.736 176.294 C 86.382 176.396,85.526 175.778,85.678 175.531 C 85.769 175.384,85.729 175.346,85.582 175.437 C 85.443 175.522,85.164 175.335,84.954 175.014 C 84.746 174.697,84.523 174.491,84.457 174.556 C 84.392 174.621,84.154 174.371,83.928 174.000 C 83.703 173.629,83.400 173.326,83.255 173.326 C 83.101 173.326,83.168 173.537,83.415 173.832 C 83.647 174.111,83.410 173.938,82.887 173.449 C 81.977 172.597,81.567 172.064,82.273 172.651 C 82.826 173.109,82.657 172.717,82.034 172.094 C 81.716 171.776,81.375 171.567,81.276 171.628 C 81.177 171.689,80.905 171.522,80.672 171.256 C 80.438 170.990,80.374 170.846,80.529 170.937 C 80.925 171.169,80.880 170.738,80.473 170.400 C 80.287 170.245,80.135 169.989,80.135 169.830 C 80.135 169.658,79.964 169.586,79.710 169.652 C 79.477 169.713,79.217 169.653,79.134 169.519 C 79.051 169.384,79.116 169.273,79.278 169.271 C 79.440 169.269,79.319 169.139,79.010 168.983 C 78.700 168.826,78.447 168.565,78.447 168.402 C 78.447 168.239,78.143 167.863,77.772 167.566 C 77.356 167.233,77.226 167.025,77.434 167.023 C 77.620 167.022,77.442 166.821,77.040 166.575 C 76.238 166.087,76.086 165.843,76.702 166.034 C 77.077 166.151,77.077 166.145,76.702 165.903 C 76.486 165.764,76.308 165.442,76.308 165.187 C 76.308 164.872,76.202 164.765,75.978 164.851 C 75.796 164.920,75.578 164.865,75.493 164.727 C 75.399 164.576,75.441 164.541,75.598 164.638 C 75.741 164.726,75.858 164.691,75.858 164.560 C 75.858 164.429,75.689 164.322,75.483 164.322 C 75.277 164.322,75.174 164.256,75.254 164.175 C 75.335 164.095,75.225 163.885,75.011 163.708 C 74.750 163.495,74.732 163.437,74.958 163.534 C 75.144 163.614,75.099 163.521,74.858 163.326 C 74.536 163.064,74.507 162.968,74.746 162.957 C 74.924 162.949,74.820 162.843,74.513 162.720 C 74.058 162.539,74.017 162.459,74.288 162.288 C 74.565 162.113,74.553 162.077,74.213 162.074 C 73.989 162.072,73.868 161.970,73.945 161.846 C 74.021 161.722,73.971 161.621,73.832 161.621 C 73.694 161.621,73.643 161.519,73.720 161.396 C 73.796 161.272,73.746 161.171,73.607 161.171 C 73.469 161.171,73.418 161.069,73.495 160.945 C 73.571 160.822,73.521 160.720,73.382 160.720 C 73.244 160.720,73.193 160.619,73.270 160.495 C 73.346 160.371,73.295 160.270,73.157 160.270 C 73.019 160.270,72.968 160.169,73.044 160.045 C 73.121 159.921,73.070 159.820,72.932 159.820 C 72.793 159.820,72.743 159.719,72.819 159.595 C 72.896 159.471,72.845 159.370,72.707 159.370 C 72.568 159.370,72.518 159.268,72.594 159.145 C 72.671 159.021,72.620 158.920,72.482 158.920 C 72.343 158.920,72.293 158.818,72.369 158.694 C 72.446 158.571,72.376 158.468,72.214 158.466 C 72.000 158.463,72.011 158.403,72.257 158.244 C 72.541 158.060,72.529 158.025,72.176 158.023 C 71.898 158.020,71.802 157.906,71.888 157.681 C 71.959 157.496,71.913 157.344,71.786 157.344 C 71.659 157.344,71.617 157.243,71.694 157.119 C 71.770 156.995,71.715 156.894,71.571 156.894 C 71.426 156.894,71.366 156.742,71.438 156.556 C 71.509 156.370,71.463 156.218,71.336 156.218 C 71.209 156.218,71.167 156.117,71.244 155.993 C 71.320 155.869,71.265 155.768,71.120 155.768 C 70.976 155.768,70.916 155.616,70.987 155.431 C 71.059 155.245,71.008 155.093,70.875 155.093 C 70.742 155.093,70.689 154.947,70.757 154.770 C 70.825 154.592,70.776 154.412,70.648 154.369 C 70.519 154.326,70.398 154.016,70.379 153.679 C 70.359 153.343,70.256 153.067,70.150 153.067 C 70.044 153.067,70.016 152.915,70.087 152.729 C 70.158 152.544,70.108 152.392,69.974 152.392 C 69.841 152.392,69.791 152.240,69.862 152.054 C 69.933 151.868,69.882 151.716,69.747 151.716 C 69.613 151.716,69.556 151.514,69.621 151.266 C 69.685 151.019,69.640 150.755,69.519 150.681 C 69.398 150.606,69.352 150.410,69.415 150.245 C 69.478 150.080,69.409 149.895,69.261 149.835 C 69.068 149.756,69.086 149.660,69.324 149.495 C 69.610 149.296,69.602 149.244,69.268 149.116 C 69.055 149.034,68.880 148.871,68.880 148.753 C 68.880 148.635,68.981 148.601,69.105 148.678 C 69.461 148.898,69.367 148.425,68.993 148.115 C 68.807 147.961,68.655 147.683,68.655 147.497 C 68.655 147.208,68.711 147.204,69.040 147.468 C 69.296 147.673,69.253 147.531,68.912 147.046 C 68.584 146.578,68.451 146.152,68.542 145.864 C 68.631 145.585,68.583 145.414,68.416 145.414 C 68.230 145.414,68.180 145.073,68.255 144.299 C 68.315 143.671,68.259 143.081,68.126 142.948 C 67.961 142.784,67.966 142.712,68.142 142.712 C 68.682 142.712,69.214 139.834,68.799 139.161 C 68.709 139.017,68.808 138.636,69.018 138.316 C 69.305 137.877,69.446 137.806,69.587 138.028 C 69.722 138.242,69.776 138.200,69.784 137.873 C 69.793 137.459,69.813 137.454,70.024 137.817 C 70.150 138.033,70.375 138.209,70.523 138.207 C 70.693 138.205,70.668 138.113,70.456 137.961 C 70.184 137.765,70.206 137.748,70.568 137.873 C 70.816 137.959,71.120 138.054,71.244 138.086 C 71.367 138.117,71.641 138.218,71.853 138.309 C 72.064 138.401,73.153 138.442,74.272 138.399 C 75.392 138.357,76.309 138.374,76.309 138.436 C 76.310 138.497,76.666 138.566,77.101 138.589 C 77.581 138.613,77.836 138.541,77.752 138.403 C 77.675 138.279,77.819 138.306,78.071 138.464 C 78.324 138.622,78.484 138.825,78.428 138.915 C 78.373 139.006,78.533 139.224,78.784 139.400 C 79.239 139.719,79.422 141.024,79.169 142.150 C 79.113 142.397,79.127 142.701,79.199 142.825 C 79.272 142.949,79.301 143.331,79.265 143.675 C 79.221 144.100,79.295 144.280,79.498 144.238 C 79.697 144.196,79.783 144.383,79.755 144.795 C 79.732 145.135,79.808 145.414,79.924 145.414 C 80.040 145.414,80.135 145.566,80.135 145.751 C 80.135 145.937,80.021 146.089,79.882 146.089 C 79.718 146.089,79.738 146.220,79.939 146.462 C 80.217 146.798,80.260 146.770,80.370 146.180 C 80.437 145.821,80.410 145.469,80.310 145.398 C 80.210 145.328,80.032 144.365,79.914 143.260 C 79.470 139.075,79.041 137.679,78.039 137.161 C 77.373 136.817,72.065 136.426,71.806 136.702 M160.045 139.899 C 160.045 140.456,160.146 140.912,160.270 140.912 C 160.394 140.912,160.495 140.456,160.495 139.899 C 160.495 139.342,160.394 138.886,160.270 138.886 C 160.146 138.886,160.045 139.342,160.045 139.899 M71.131 139.336 C 71.131 139.474,72.219 139.561,73.945 139.561 C 75.492 139.561,76.832 139.569,76.922 139.578 C 77.012 139.587,77.121 139.486,77.166 139.353 C 77.221 139.188,76.269 139.111,74.189 139.111 C 72.300 139.111,71.131 139.197,71.131 139.336 M69.781 140.786 C 69.781 141.459,69.882 142.073,70.006 142.150 C 70.146 142.237,70.231 141.777,70.231 140.925 C 70.231 140.166,70.131 139.561,70.006 139.561 C 69.882 139.561,69.781 140.112,69.781 140.786 M150.629 141.531 C 150.495 143.640,149.497 148.790,149.223 148.790 C 149.132 148.790,149.110 148.993,149.175 149.240 C 149.240 149.488,149.373 149.690,149.471 149.690 C 149.568 149.690,149.595 149.488,149.531 149.240 C 149.460 148.970,149.524 148.790,149.690 148.790 C 149.861 148.790,149.921 148.609,149.846 148.322 C 149.765 148.012,149.815 147.890,149.996 147.959 C 150.151 148.018,150.269 147.879,150.269 147.639 C 150.269 147.405,150.186 147.214,150.084 147.214 C 149.981 147.214,150.028 147.073,150.188 146.900 C 150.348 146.728,150.529 146.617,150.591 146.654 C 150.653 146.691,150.718 146.402,150.736 146.011 C 150.754 145.621,150.825 144.969,150.895 144.562 C 150.983 144.047,150.945 143.871,150.768 143.980 C 150.600 144.084,150.565 144.005,150.665 143.744 C 150.748 143.528,150.816 143.303,150.816 143.243 C 150.816 143.184,150.892 143.183,150.985 143.240 C 151.243 143.400,151.191 141.951,150.931 141.739 C 150.781 141.616,150.795 141.515,150.972 141.443 C 151.120 141.382,151.185 141.187,151.117 141.010 C 150.897 140.437,150.684 140.664,150.629 141.531 M152.842 142.276 C 152.842 142.530,152.943 142.676,153.067 142.600 C 153.191 142.523,153.292 142.315,153.292 142.136 C 153.292 141.958,153.191 141.812,153.067 141.812 C 152.943 141.812,152.842 142.021,152.842 142.276 M77.216 142.611 C 77.222 143.193,77.252 143.224,77.464 142.860 C 77.637 142.562,77.635 142.374,77.457 142.196 C 77.276 142.014,77.211 142.127,77.216 142.611 M162.250 144.119 C 162.208 144.398,162.063 144.605,161.929 144.580 C 161.774 144.551,161.704 144.997,161.735 145.818 C 161.762 146.524,161.698 147.211,161.593 147.345 C 161.482 147.488,161.549 147.768,161.755 148.021 C 162.060 148.394,162.091 148.399,161.984 148.059 C 161.916 147.842,161.961 147.665,162.085 147.665 C 162.209 147.665,162.295 147.335,162.278 146.933 C 162.260 146.531,162.321 145.619,162.414 144.907 C 162.571 143.706,162.422 142.991,162.250 144.119 M80.346 147.119 C 80.103 147.412,80.104 147.506,80.351 147.659 C 80.516 147.761,80.589 148.006,80.513 148.205 C 80.437 148.403,80.483 148.565,80.616 148.565 C 80.750 148.565,80.800 148.717,80.729 148.903 C 80.658 149.088,80.708 149.240,80.842 149.240 C 80.975 149.240,81.025 149.392,80.954 149.578 C 80.883 149.764,80.919 149.916,81.035 149.916 C 81.151 149.916,81.188 150.068,81.117 150.253 C 81.046 150.439,81.110 150.591,81.261 150.591 C 81.411 150.591,81.476 150.743,81.404 150.929 C 81.333 151.114,81.362 151.266,81.469 151.266 C 81.575 151.266,81.721 151.114,81.792 150.929 C 81.863 150.743,81.836 150.591,81.730 150.591 C 81.481 150.591,80.931 148.600,80.999 147.946 C 81.029 147.667,80.937 147.440,80.795 147.440 C 80.653 147.440,80.595 147.288,80.667 147.102 C 80.834 146.666,80.716 146.673,80.346 147.119 M161.334 148.488 C 161.243 148.632,161.233 148.915,161.311 149.118 C 161.397 149.343,161.287 149.613,161.030 149.810 C 160.715 150.050,160.678 150.179,160.884 150.315 C 161.089 150.451,161.045 150.582,160.715 150.820 C 160.172 151.211,160.130 151.531,160.647 151.333 C 160.922 151.227,160.891 151.320,160.534 151.677 C 160.265 151.947,160.045 152.450,160.045 152.797 C 160.045 153.144,159.923 153.549,159.775 153.697 C 159.565 153.907,159.577 153.968,159.831 153.971 C 160.045 153.973,160.072 154.031,159.910 154.140 C 159.520 154.400,159.202 155.158,159.250 155.712 C 159.275 155.990,159.204 156.218,159.094 156.218 C 158.983 156.218,158.956 156.320,159.032 156.443 C 159.109 156.567,159.058 156.669,158.920 156.669 C 158.781 156.669,158.730 156.770,158.807 156.894 C 158.883 157.017,158.833 157.119,158.694 157.119 C 158.556 157.119,158.505 157.220,158.582 157.344 C 158.658 157.468,158.617 157.569,158.490 157.569 C 158.362 157.569,158.317 157.721,158.388 157.907 C 158.474 158.131,158.378 158.245,158.099 158.248 C 157.747 158.251,157.735 158.285,158.019 158.469 C 158.205 158.589,158.242 158.689,158.101 158.691 C 157.631 158.697,157.026 159.848,157.376 160.070 C 157.612 160.219,157.588 160.264,157.274 160.267 C 157.021 160.269,156.929 160.370,157.030 160.533 C 157.137 160.707,157.073 160.751,156.843 160.663 C 156.584 160.563,156.523 160.640,156.608 160.962 C 156.679 161.233,156.606 161.397,156.413 161.399 C 156.170 161.402,156.175 161.446,156.437 161.612 C 156.721 161.792,156.713 161.843,156.382 161.970 C 156.170 162.051,156.052 162.209,156.120 162.320 C 156.189 162.430,156.155 162.521,156.044 162.521 C 155.934 162.521,155.843 162.651,155.843 162.809 C 155.843 163.202,155.092 164.322,154.829 164.322 C 154.712 164.322,154.671 164.410,154.738 164.519 C 154.805 164.627,154.619 164.975,154.324 165.293 C 154.030 165.610,153.844 165.924,153.911 165.991 C 153.977 166.058,153.866 166.176,153.663 166.254 C 153.461 166.331,153.361 166.502,153.441 166.632 C 153.535 166.784,153.405 166.821,153.080 166.736 C 152.673 166.630,152.593 166.683,152.677 167.004 C 152.743 167.255,152.500 167.680,152.028 168.142 C 151.613 168.548,151.326 168.963,151.389 169.065 C 151.452 169.168,151.296 169.363,151.041 169.499 C 150.787 169.635,150.638 169.843,150.710 169.961 C 150.783 170.078,150.735 170.187,150.604 170.203 C 150.473 170.218,150.290 170.249,150.197 170.272 C 150.104 170.294,149.301 171.052,148.412 171.955 C 147.378 173.006,146.697 173.536,146.520 173.427 C 146.344 173.318,146.302 173.350,146.405 173.516 C 146.493 173.659,146.484 173.776,146.384 173.776 C 146.283 173.776,146.201 174.028,146.201 174.336 C 146.201 175.201,146.605 174.962,148.860 172.763 C 150.349 171.310,150.928 170.593,150.907 170.229 C 150.882 169.796,150.930 169.762,151.228 170.004 C 151.510 170.232,151.544 170.231,151.406 170.001 C 151.295 169.817,151.608 169.352,152.283 168.696 C 152.984 168.015,153.286 167.557,153.194 167.318 C 153.074 167.006,153.107 167.000,153.443 167.273 C 153.655 167.445,153.759 167.470,153.674 167.328 C 153.589 167.186,153.672 167.012,153.858 166.940 C 154.044 166.869,154.184 166.732,154.168 166.635 C 154.094 166.186,154.213 165.884,154.415 166.009 C 154.544 166.088,154.580 165.995,154.500 165.788 C 154.412 165.559,154.470 165.453,154.661 165.494 C 154.825 165.530,154.964 165.408,154.971 165.222 C 154.989 164.692,155.543 163.845,155.777 163.990 C 155.896 164.063,155.924 163.952,155.840 163.734 C 155.740 163.474,155.777 163.400,155.952 163.509 C 156.128 163.617,156.165 163.544,156.065 163.284 C 155.965 163.023,156.002 162.950,156.178 163.059 C 156.338 163.158,156.395 163.106,156.325 162.924 C 156.263 162.762,156.492 162.314,156.834 161.929 C 157.176 161.544,157.490 161.090,157.531 160.920 C 157.572 160.751,157.707 160.549,157.831 160.472 C 157.956 160.395,158.044 160.266,158.028 160.185 C 157.956 159.830,158.789 157.601,158.955 157.703 C 159.056 157.766,159.073 157.644,158.991 157.431 C 158.883 157.148,158.923 157.094,159.141 157.229 C 159.322 157.341,159.385 157.326,159.302 157.191 C 159.226 157.068,159.367 156.559,159.615 156.058 C 159.862 155.557,160.114 154.879,160.173 154.551 C 160.233 154.223,160.475 153.426,160.713 152.779 C 160.950 152.133,161.215 151.199,161.302 150.703 C 161.389 150.208,161.526 149.752,161.606 149.690 C 161.687 149.629,161.695 149.274,161.625 148.903 C 161.549 148.498,161.433 148.332,161.334 148.488 M148.936 150.033 C 149.049 150.329,149.013 150.391,148.804 150.262 C 148.589 150.129,148.557 150.211,148.678 150.591 C 148.786 150.933,148.758 151.048,148.592 150.945 C 148.437 150.850,148.395 150.923,148.479 151.142 C 148.553 151.334,148.523 151.491,148.412 151.491 C 148.301 151.491,148.194 151.710,148.174 151.977 C 148.154 152.245,148.022 152.535,147.882 152.622 C 147.741 152.709,147.660 152.829,147.702 152.888 C 147.870 153.130,146.253 156.208,146.031 156.070 C 145.893 155.984,145.861 156.032,145.955 156.184 C 146.043 156.326,146.002 156.443,145.864 156.443 C 145.725 156.443,145.665 156.529,145.730 156.634 C 145.795 156.740,145.674 157.018,145.462 157.253 C 145.250 157.489,145.076 157.833,145.076 158.019 C 145.076 158.205,144.924 158.323,144.738 158.282 C 144.553 158.240,144.473 158.279,144.562 158.368 C 144.651 158.457,144.524 158.783,144.281 159.093 C 144.037 159.402,143.838 159.756,143.838 159.878 C 143.838 160.176,144.843 159.496,144.879 159.173 C 144.894 159.034,144.920 158.812,144.935 158.681 C 144.951 158.550,145.090 158.516,145.245 158.605 C 145.400 158.694,145.452 158.684,145.361 158.584 C 145.270 158.483,145.371 158.257,145.586 158.081 C 145.846 157.867,145.864 157.809,145.639 157.907 C 145.413 158.004,145.431 157.946,145.691 157.732 C 145.906 157.556,146.016 157.346,145.935 157.265 C 145.855 157.185,145.983 157.111,146.220 157.101 C 146.458 157.091,146.531 157.034,146.383 156.974 C 146.235 156.914,146.170 156.720,146.238 156.543 C 146.306 156.366,146.468 156.287,146.597 156.367 C 146.735 156.452,146.767 156.405,146.673 156.253 C 146.585 156.110,146.626 155.993,146.764 155.993 C 146.903 155.993,146.953 155.892,146.877 155.768 C 146.800 155.644,146.851 155.543,146.989 155.543 C 147.128 155.543,147.178 155.442,147.102 155.318 C 147.025 155.194,147.076 155.093,147.214 155.093 C 147.353 155.093,147.403 154.992,147.327 154.868 C 147.250 154.744,147.301 154.643,147.440 154.643 C 147.578 154.643,147.629 154.541,147.552 154.418 C 147.476 154.294,147.526 154.192,147.665 154.192 C 147.803 154.192,147.854 154.091,147.777 153.967 C 147.701 153.844,147.751 153.742,147.890 153.742 C 148.028 153.742,148.079 153.641,148.002 153.517 C 147.926 153.393,147.949 153.292,148.054 153.292 C 148.158 153.292,148.261 153.066,148.282 152.789 C 148.303 152.512,148.420 152.252,148.542 152.212 C 148.665 152.171,148.709 151.992,148.641 151.814 C 148.573 151.637,148.635 151.491,148.779 151.491 C 148.924 151.491,148.979 151.390,148.903 151.266 C 148.826 151.142,148.877 151.041,149.015 151.041 C 149.154 151.041,149.197 150.928,149.112 150.791 C 149.027 150.653,149.077 150.467,149.222 150.377 C 149.415 150.258,149.391 150.134,149.133 149.920 C 148.830 149.669,148.802 149.685,148.936 150.033 M81.617 151.686 C 81.530 151.826,81.560 151.941,81.682 151.941 C 81.906 151.941,82.289 152.807,82.206 153.123 C 82.181 153.216,82.288 153.294,82.442 153.296 C 82.630 153.298,82.611 153.372,82.386 153.517 C 82.106 153.698,82.125 153.737,82.499 153.742 C 82.833 153.747,82.871 153.798,82.647 153.940 C 82.259 154.187,83.122 155.993,83.629 155.993 C 83.812 155.993,83.962 156.101,83.962 156.232 C 83.962 156.363,83.877 156.418,83.774 156.354 C 83.671 156.290,83.587 156.381,83.587 156.556 C 83.587 156.731,83.663 156.827,83.756 156.769 C 83.985 156.628,84.670 157.333,84.528 157.563 C 84.466 157.664,84.572 157.807,84.765 157.881 C 84.958 157.955,85.059 158.107,84.990 158.219 C 84.921 158.331,85.022 158.483,85.215 158.557 C 85.408 158.631,85.509 158.783,85.440 158.894 C 85.371 159.006,85.481 159.161,85.683 159.239 C 85.886 159.317,85.988 159.445,85.909 159.524 C 85.830 159.602,85.972 159.812,86.225 159.989 C 86.558 160.223,86.620 160.388,86.450 160.593 C 86.277 160.801,86.363 160.942,86.777 161.130 C 87.086 161.271,87.338 161.533,87.338 161.713 C 87.338 161.893,87.533 162.102,87.771 162.178 C 88.009 162.253,88.585 162.741,89.052 163.262 C 89.519 163.783,90.482 164.731,91.192 165.369 C 91.903 166.007,92.415 166.598,92.331 166.682 C 92.247 166.767,92.297 166.802,92.443 166.760 C 92.589 166.719,92.875 166.888,93.079 167.136 C 93.283 167.383,93.380 167.434,93.295 167.248 C 93.211 167.062,93.402 167.214,93.721 167.586 C 94.039 167.957,94.304 168.166,94.308 168.049 C 94.313 167.933,94.476 168.034,94.671 168.274 C 94.865 168.515,94.951 168.569,94.861 168.395 C 94.753 168.187,94.786 168.134,94.957 168.240 C 95.100 168.328,95.217 168.546,95.217 168.725 C 95.217 168.903,95.324 169.049,95.455 169.049 C 95.586 169.049,95.621 168.932,95.533 168.789 C 95.433 168.628,95.471 168.590,95.632 168.690 C 95.775 168.778,95.892 168.994,95.892 169.171 C 95.892 169.347,96.144 169.554,96.453 169.631 C 96.762 169.709,96.958 169.863,96.890 169.973 C 96.822 170.084,96.873 170.174,97.004 170.174 C 97.135 170.174,97.243 170.054,97.243 169.906 C 97.243 169.759,97.391 169.835,97.573 170.075 C 97.755 170.315,97.908 170.411,97.914 170.287 C 97.920 170.163,98.021 170.214,98.138 170.400 C 98.256 170.585,98.431 170.738,98.529 170.740 C 98.908 170.745,100.169 171.365,100.169 171.545 C 100.169 171.650,100.321 171.678,100.506 171.606 C 100.692 171.535,100.844 171.595,100.844 171.739 C 100.844 171.884,100.945 171.939,101.069 171.863 C 101.193 171.786,101.294 171.828,101.294 171.955 C 101.294 172.082,101.446 172.128,101.632 172.057 C 101.818 171.985,101.970 172.045,101.970 172.190 C 101.970 172.334,102.071 172.389,102.195 172.313 C 102.319 172.236,102.420 172.287,102.420 172.425 C 102.420 172.564,102.510 172.621,102.621 172.553 C 102.732 172.484,103.213 172.598,103.690 172.806 C 104.168 173.014,104.685 173.160,104.840 173.132 C 104.994 173.104,105.121 173.184,105.121 173.309 C 105.121 173.434,105.285 173.474,105.487 173.397 C 105.712 173.310,105.938 173.410,106.076 173.656 C 106.257 173.981,106.336 173.998,106.498 173.747 C 106.658 173.498,106.733 173.495,106.884 173.727 C 106.986 173.886,107.239 173.952,107.446 173.872 C 107.666 173.788,107.822 173.838,107.822 173.992 C 107.822 174.150,107.996 174.202,108.253 174.120 C 108.491 174.044,108.753 174.094,108.838 174.230 C 108.926 174.373,109.257 174.419,109.623 174.339 C 109.971 174.262,110.313 174.294,110.384 174.408 C 110.530 174.644,111.649 174.488,111.649 174.232 C 111.649 174.141,111.370 174.057,111.030 174.046 C 109.800 174.008,109.483 173.965,107.766 173.600 C 106.806 173.396,106.021 173.159,106.021 173.074 C 106.021 172.988,105.819 172.971,105.571 173.036 C 105.324 173.100,105.121 173.043,105.121 172.909 C 105.121 172.775,104.969 172.723,104.783 172.794 C 104.598 172.865,104.446 172.815,104.446 172.682 C 104.446 172.549,104.294 172.498,104.108 172.569 C 103.922 172.640,103.770 172.590,103.770 172.457 C 103.770 172.323,103.632 172.268,103.462 172.333 C 103.292 172.398,102.988 172.286,102.786 172.085 C 102.585 171.883,102.420 171.770,102.420 171.834 C 102.420 172.011,99.928 171.116,99.330 170.725 C 99.042 170.536,98.682 170.455,98.531 170.546 C 98.379 170.637,98.407 170.520,98.593 170.287 C 98.779 170.054,98.810 169.935,98.663 170.023 C 98.512 170.114,98.295 170.010,98.164 169.785 C 98.036 169.566,97.928 169.465,97.925 169.561 C 97.914 169.824,96.567 169.073,96.567 168.805 C 96.567 168.677,96.465 168.635,96.341 168.712 C 96.216 168.789,96.053 168.695,95.979 168.502 C 95.905 168.309,95.753 168.208,95.642 168.277 C 95.530 168.346,95.382 168.254,95.312 168.072 C 95.238 167.879,94.956 167.767,94.636 167.802 C 94.185 167.851,94.134 167.805,94.352 167.542 C 94.498 167.367,94.524 167.253,94.411 167.290 C 94.140 167.378,93.156 166.683,93.320 166.519 C 93.389 166.450,93.264 166.408,93.042 166.427 C 92.820 166.445,92.636 166.342,92.633 166.198 C 92.630 166.053,92.536 165.851,92.423 165.748 C 92.304 165.639,92.286 165.678,92.380 165.841 C 92.741 166.468,92.217 166.024,90.282 164.066 C 89.165 162.934,88.314 161.906,88.392 161.780 C 88.470 161.654,88.427 161.617,88.297 161.697 C 88.073 161.836,87.677 161.248,87.753 160.889 C 87.772 160.796,87.706 160.720,87.606 160.720 C 87.246 160.720,86.431 159.788,86.580 159.547 C 86.669 159.402,86.629 159.364,86.482 159.455 C 86.190 159.635,85.474 158.392,85.715 158.124 C 85.803 158.027,85.760 158.013,85.618 158.094 C 85.290 158.281,84.567 157.196,84.776 156.831 C 84.863 156.680,84.848 156.635,84.741 156.731 C 84.517 156.936,83.688 155.354,83.868 155.063 C 83.934 154.956,83.875 154.868,83.737 154.868 C 83.598 154.868,83.556 154.741,83.644 154.586 C 83.771 154.361,83.742 154.361,83.500 154.586 C 83.046 155.008,82.746 154.926,83.174 154.497 C 83.378 154.294,83.459 154.066,83.354 153.991 C 82.926 153.686,82.378 152.586,82.525 152.329 C 82.612 152.178,82.596 152.133,82.490 152.230 C 82.384 152.327,82.179 152.186,82.036 151.918 C 81.865 151.599,81.720 151.519,81.617 151.686 M143.210 160.249 C 143.271 160.589,142.865 161.152,142.654 161.022 C 142.524 160.942,142.479 160.975,142.553 161.095 C 142.728 161.378,141.901 162.746,141.555 162.746 C 141.401 162.746,141.466 162.537,141.712 162.240 C 141.943 161.961,141.306 162.536,140.295 163.518 C 139.285 164.499,138.507 165.380,138.566 165.476 C 138.713 165.714,137.863 166.146,137.641 165.946 C 137.543 165.857,137.529 165.901,137.610 166.043 C 137.737 166.264,137.308 166.603,136.822 166.666 C 136.576 166.698,136.298 167.042,136.292 167.323 C 136.289 167.468,136.113 167.572,135.900 167.555 C 135.688 167.538,135.567 167.610,135.632 167.714 C 135.756 167.916,134.400 168.727,134.086 168.639 C 133.984 168.611,133.975 168.709,134.066 168.857 C 134.181 169.042,134.112 169.079,133.846 168.977 C 133.633 168.896,133.517 168.922,133.588 169.035 C 133.713 169.238,133.080 169.546,132.756 169.440 C 132.666 169.411,132.427 169.621,132.226 169.908 C 132.016 170.209,131.723 170.377,131.535 170.305 C 131.356 170.236,131.267 170.274,131.338 170.388 C 131.409 170.503,131.288 170.701,131.068 170.829 C 130.849 170.957,130.743 171.064,130.833 171.068 C 130.923 171.072,131.321 170.878,131.718 170.636 C 132.114 170.395,132.522 170.250,132.625 170.313 C 132.727 170.376,132.875 170.261,132.954 170.057 C 133.067 169.761,133.134 169.747,133.286 169.987 C 133.431 170.215,133.477 170.189,133.480 169.880 C 133.482 169.630,133.584 169.535,133.743 169.633 C 133.904 169.733,133.942 169.695,133.843 169.534 C 133.701 169.306,133.828 169.237,134.292 169.289 C 134.365 169.297,134.564 169.120,134.735 168.895 C 134.983 168.568,135.049 168.554,135.066 168.824 C 135.078 169.018,135.177 168.939,135.297 168.641 C 135.411 168.354,135.597 168.176,135.709 168.245 C 135.821 168.315,135.971 168.219,136.042 168.033 C 136.114 167.846,136.258 167.720,136.363 167.753 C 136.468 167.785,136.834 167.507,137.175 167.136 C 137.517 166.764,137.732 166.587,137.653 166.742 C 137.573 166.896,137.600 167.023,137.711 167.023 C 137.822 167.023,138.031 166.764,138.175 166.448 C 138.332 166.104,138.542 165.937,138.696 166.032 C 138.839 166.120,138.914 166.101,138.863 165.989 C 138.750 165.739,142.663 161.872,142.845 162.054 C 142.917 162.125,142.951 162.082,142.921 161.958 C 142.825 161.562,143.201 160.943,143.446 161.094 C 143.582 161.178,143.616 161.132,143.526 160.987 C 143.431 160.833,143.599 160.676,143.952 160.587 C 144.272 160.507,144.474 160.381,144.400 160.307 C 144.223 160.130,143.180 160.079,143.210 160.249 M140.214 164.041 C 139.546 164.752,138.898 165.372,138.774 165.418 C 138.650 165.463,139.153 164.881,139.892 164.124 C 141.592 162.381,141.827 162.320,140.214 164.041 M129.840 171.067 C 129.801 171.172,129.567 171.293,129.319 171.336 C 129.071 171.378,128.742 171.532,128.588 171.678 C 128.183 172.059,125.827 172.925,125.099 172.959 C 124.759 172.975,124.480 173.076,124.480 173.183 C 124.480 173.291,124.277 173.325,124.029 173.261 C 123.782 173.196,123.519 173.242,123.444 173.362 C 123.369 173.483,123.167 173.527,122.994 173.461 C 122.820 173.394,122.679 173.437,122.679 173.555 C 122.679 173.674,122.451 173.775,122.172 173.780 C 121.687 173.789,120.782 173.882,119.077 174.098 C 118.644 174.153,116.922 174.219,115.250 174.246 C 113.579 174.272,112.492 174.336,112.834 174.388 C 113.177 174.440,113.399 174.576,113.328 174.692 C 113.256 174.807,113.347 174.902,113.530 174.902 C 113.713 174.902,113.901 175.016,113.947 175.157 C 113.997 175.305,114.543 175.412,115.250 175.412 C 115.958 175.412,116.504 175.305,116.553 175.157 C 116.600 175.016,116.788 174.902,116.971 174.902 C 117.165 174.902,117.236 174.793,117.142 174.641 C 117.024 174.451,117.321 174.416,118.251 174.512 C 119.025 174.592,119.577 174.552,119.665 174.411 C 119.760 174.257,119.864 174.268,119.973 174.444 C 120.096 174.643,120.351 174.620,120.994 174.352 C 121.465 174.155,122.037 174.053,122.265 174.125 C 122.501 174.200,122.679 174.147,122.679 174.001 C 122.679 173.848,122.859 173.803,123.129 173.889 C 123.399 173.974,123.579 173.929,123.579 173.776 C 123.579 173.623,123.760 173.578,124.029 173.663 C 124.306 173.751,124.479 173.704,124.479 173.540 C 124.479 173.384,124.667 173.322,124.930 173.391 C 125.177 173.456,125.380 173.436,125.380 173.348 C 125.380 173.128,127.656 172.415,127.892 172.560 C 127.996 172.625,128.081 172.564,128.081 172.425 C 128.081 172.287,128.182 172.236,128.306 172.313 C 128.430 172.389,128.531 172.339,128.531 172.200 C 128.531 172.062,128.633 172.011,128.756 172.088 C 128.880 172.164,128.983 172.094,128.985 171.932 C 128.987 171.718,129.048 171.730,129.207 171.975 C 129.388 172.256,129.428 172.237,129.444 171.863 L 129.463 171.412 129.639 171.863 C 129.809 172.298,129.821 172.296,129.977 171.803 C 130.066 171.523,130.233 171.352,130.348 171.423 C 130.463 171.494,130.557 171.455,130.557 171.337 C 130.557 171.055,129.931 170.819,129.840 171.067 M150.141 170.913 C 150.141 170.948,149.508 171.581,148.734 172.320 L 147.327 173.663 148.671 172.257 C 149.919 170.950,150.141 170.747,150.141 170.913 M145.674 174.802 C 145.530 175.118,145.319 175.320,145.206 175.250 C 145.092 175.180,144.739 175.452,144.421 175.856 C 143.932 176.476,143.841 176.520,143.832 176.140 C 143.824 175.821,143.716 175.920,143.466 176.477 C 143.251 176.955,143.067 177.146,142.998 176.962 C 142.922 176.755,142.750 176.863,142.463 177.299 C 142.213 177.678,142.036 177.802,142.031 177.603 C 142.025 177.399,141.900 177.484,141.716 177.815 C 141.434 178.325,141.403 178.333,141.300 177.928 C 141.200 177.535,141.186 177.541,141.163 177.983 C 141.148 178.255,141.020 178.549,140.877 178.637 C 140.706 178.743,140.673 178.689,140.781 178.482 C 140.871 178.308,140.786 178.362,140.591 178.602 C 140.396 178.843,140.233 178.944,140.230 178.827 C 140.226 178.711,140.118 178.795,139.991 179.014 C 139.863 179.234,139.663 179.354,139.547 179.282 C 139.431 179.211,139.336 179.265,139.336 179.403 C 139.336 179.542,139.235 179.593,139.111 179.516 C 138.987 179.440,138.886 179.490,138.886 179.629 C 138.886 179.767,138.769 179.808,138.626 179.720 C 138.483 179.631,138.426 179.656,138.499 179.775 C 138.672 180.054,134.437 182.164,134.111 181.962 C 133.951 181.864,133.929 181.915,134.048 182.108 C 134.182 182.325,134.130 182.367,133.858 182.263 C 133.652 182.183,133.483 182.223,133.483 182.350 C 133.483 182.477,133.382 182.519,133.258 182.442 C 133.134 182.366,133.033 182.421,133.033 182.566 C 133.033 182.710,132.881 182.770,132.696 182.699 C 132.510 182.627,132.358 182.673,132.358 182.800 C 132.358 182.928,132.257 182.969,132.133 182.893 C 132.009 182.816,131.908 182.872,131.908 183.016 C 131.908 183.160,131.756 183.220,131.570 183.149 C 131.384 183.077,131.232 183.123,131.232 183.251 C 131.232 183.378,131.120 183.412,130.982 183.327 C 130.845 183.242,130.643 183.312,130.535 183.483 C 130.373 183.740,130.337 183.735,130.328 183.455 C 130.320 183.197,130.240 183.220,129.987 183.555 C 129.749 183.870,129.655 183.901,129.650 183.667 C 129.644 183.433,129.550 183.465,129.312 183.780 C 129.101 184.058,128.981 184.107,128.981 183.914 C 128.981 183.694,128.857 183.723,128.531 184.018 C 128.186 184.330,128.079 184.352,128.074 184.109 C 128.069 183.885,127.974 183.915,127.747 184.215 C 127.563 184.459,127.280 184.581,127.079 184.504 C 126.887 184.430,126.730 184.480,126.730 184.614 C 126.730 184.748,126.528 184.805,126.280 184.741 C 126.033 184.676,125.771 184.719,125.699 184.836 C 125.626 184.953,125.373 184.988,125.136 184.912 C 124.878 184.830,124.705 184.882,124.705 185.040 C 124.705 185.210,124.503 185.254,124.142 185.164 C 123.812 185.081,123.579 185.119,123.579 185.256 C 123.579 185.393,123.345 185.431,123.013 185.348 C 122.690 185.266,122.305 185.324,122.114 185.483 C 121.931 185.635,121.557 185.701,121.285 185.630 C 121.012 185.558,120.657 185.609,120.496 185.743 C 120.307 185.900,120.203 185.905,120.203 185.758 C 120.203 185.632,120.045 185.469,119.853 185.395 C 119.653 185.318,119.563 185.356,119.641 185.484 C 119.813 185.762,119.521 185.766,119.088 185.493 C 118.908 185.379,118.662 185.347,118.540 185.422 C 118.419 185.497,118.515 185.636,118.754 185.729 C 118.994 185.823,117.417 185.905,115.250 185.912 C 112.404 185.921,111.405 185.858,111.649 185.685 C 111.907 185.501,111.837 185.478,111.349 185.585 C 110.934 185.675,110.761 185.642,110.855 185.490 C 111.080 185.127,110.823 185.214,110.389 185.648 C 110.117 185.919,109.969 185.957,109.907 185.769 C 109.850 185.598,109.574 185.547,109.157 185.631 C 108.780 185.706,108.359 185.646,108.171 185.491 C 107.991 185.341,107.645 185.282,107.402 185.359 C 107.159 185.436,106.900 185.404,106.828 185.286 C 106.756 185.169,106.505 185.123,106.272 185.184 C 106.038 185.245,105.785 185.195,105.709 185.072 C 105.633 184.949,105.368 184.901,105.121 184.966 C 104.873 185.031,104.671 184.980,104.671 184.853 C 104.671 184.727,104.468 184.676,104.221 184.741 C 103.973 184.805,103.770 184.755,103.770 184.628 C 103.770 184.501,103.568 184.451,103.320 184.516 C 103.073 184.580,102.870 184.530,102.870 184.403 C 102.870 184.276,102.667 184.226,102.420 184.290 C 102.151 184.361,101.970 184.297,101.970 184.133 C 101.970 183.980,101.819 183.915,101.632 183.987 C 101.446 184.058,101.294 184.007,101.294 183.874 C 101.294 183.741,101.146 183.689,100.964 183.759 C 100.782 183.829,100.573 183.787,100.498 183.667 C 100.424 183.546,100.276 183.502,100.169 183.568 C 100.062 183.634,99.910 183.583,99.831 183.455 C 99.752 183.327,99.600 183.277,99.494 183.343 C 99.387 183.409,99.235 183.358,99.156 183.230 C 99.077 183.102,98.917 183.056,98.801 183.128 C 98.685 183.200,98.529 183.101,98.455 182.908 C 98.381 182.715,98.237 182.609,98.135 182.672 C 98.033 182.736,97.879 182.674,97.793 182.535 C 97.682 182.355,97.580 182.371,97.443 182.587 C 97.297 182.817,97.248 182.781,97.243 182.442 C 97.237 182.069,97.198 182.050,97.017 182.330 C 96.859 182.575,96.798 182.587,96.796 182.373 C 96.794 182.211,96.691 182.141,96.567 182.217 C 96.443 182.294,96.342 182.232,96.342 182.080 C 96.342 181.929,96.279 181.868,96.202 181.945 C 96.124 182.022,95.643 181.883,95.133 181.635 C 94.622 181.387,94.379 181.325,94.594 181.498 C 94.809 181.670,94.910 181.894,94.819 181.994 C 94.728 182.095,94.773 182.109,94.918 182.026 C 95.183 181.874,96.760 182.667,97.070 183.108 C 97.161 183.237,97.237 183.246,97.239 183.129 C 97.241 183.011,97.356 183.029,97.495 183.168 C 97.634 183.306,97.887 183.367,98.058 183.301 C 98.228 183.236,98.368 183.291,98.368 183.424 C 98.368 183.557,98.520 183.608,98.706 183.537 C 98.891 183.465,99.043 183.516,99.043 183.649 C 99.043 183.782,99.195 183.833,99.381 183.762 C 99.567 183.690,99.719 183.741,99.719 183.874 C 99.719 184.007,99.871 184.058,100.056 183.987 C 100.242 183.916,100.394 183.944,100.394 184.050 C 100.395 184.156,100.723 184.266,101.124 184.295 C 101.526 184.323,101.885 184.439,101.923 184.552 C 101.960 184.665,102.189 184.706,102.431 184.643 C 102.672 184.580,102.870 184.632,102.870 184.759 C 102.870 184.885,103.073 184.936,103.320 184.871 C 103.568 184.806,103.770 184.857,103.770 184.984 C 103.770 185.110,103.973 185.161,104.221 185.096 C 104.468 185.031,104.671 185.078,104.671 185.199 C 104.671 185.320,104.924 185.370,105.234 185.311 C 105.554 185.250,105.796 185.309,105.796 185.448 C 105.796 185.582,105.943 185.636,106.123 185.567 C 106.303 185.498,106.572 185.516,106.720 185.608 C 106.869 185.700,107.304 185.800,107.688 185.830 C 108.071 185.861,108.739 185.946,109.173 186.019 C 110.321 186.214,119.670 186.230,120.990 186.040 C 121.609 185.950,122.420 185.850,122.791 185.817 C 123.163 185.784,123.618 185.704,123.804 185.639 C 124.702 185.326,126.327 185.033,126.517 185.151 C 126.634 185.223,126.730 185.189,126.730 185.075 C 126.730 184.871,129.274 184.213,129.826 184.274 C 129.980 184.292,130.107 184.205,130.107 184.081 C 130.107 183.958,130.259 183.916,130.445 183.987 C 130.630 184.058,130.782 184.029,130.782 183.923 C 130.782 183.745,131.711 183.385,132.245 183.355 C 132.369 183.348,132.609 183.212,132.778 183.051 C 132.947 182.891,133.199 182.798,133.339 182.844 C 133.478 182.891,133.733 182.788,133.904 182.616 C 134.076 182.444,134.356 182.357,134.525 182.422 C 134.695 182.487,134.834 182.437,134.834 182.309 C 134.834 182.182,134.951 182.150,135.094 182.239 C 135.267 182.346,135.292 182.300,135.169 182.101 C 135.035 181.883,135.089 181.843,135.372 181.951 C 135.632 182.051,135.705 182.014,135.597 181.839 C 135.488 181.663,135.561 181.626,135.822 181.726 C 136.082 181.826,136.155 181.789,136.047 181.614 C 135.938 181.438,136.012 181.401,136.272 181.501 C 136.532 181.601,136.606 181.564,136.497 181.389 C 136.388 181.213,136.462 181.176,136.722 181.276 C 136.982 181.376,137.056 181.339,136.947 181.163 C 136.839 180.988,136.912 180.951,137.172 181.051 C 137.433 181.151,137.506 181.114,137.397 180.938 C 137.289 180.763,137.362 180.726,137.622 180.826 C 137.883 180.926,137.956 180.889,137.848 180.713 C 137.739 180.538,137.812 180.501,138.073 180.601 C 138.333 180.701,138.406 180.664,138.298 180.488 C 138.189 180.312,138.263 180.276,138.523 180.376 C 138.783 180.475,138.857 180.439,138.748 180.263 C 138.639 180.087,138.713 180.051,138.973 180.151 C 139.186 180.232,139.302 180.206,139.232 180.092 C 139.106 179.888,139.952 179.493,140.309 179.590 C 140.411 179.617,140.435 179.543,140.362 179.425 C 140.224 179.202,141.083 178.817,141.474 178.927 C 141.598 178.962,141.627 178.918,141.538 178.829 C 141.330 178.621,143.659 176.934,143.929 177.098 C 144.041 177.166,144.060 177.105,143.972 176.962 C 143.826 176.726,144.107 176.598,144.586 176.681 C 144.688 176.699,144.713 176.619,144.642 176.503 C 144.461 176.210,145.843 175.091,146.164 175.271 C 146.361 175.381,146.361 175.347,146.163 175.132 C 146.018 174.975,145.953 174.707,146.018 174.536 C 146.229 173.988,145.945 174.206,145.674 174.802 M119.977 176.477 C 119.977 176.601,120.129 176.702,120.315 176.702 C 120.501 176.702,120.653 176.601,120.653 176.477 C 120.653 176.353,120.501 176.252,120.315 176.252 C 120.129 176.252,119.977 176.353,119.977 176.477 " stroke="none" fill="#646464" fill-rule="evenodd"></path></g></svg>