<svg id="svg" version="1.1" xmlns="http://www.w3.org/2000/svg" xmlns:xlink="http://www.w3.org/1999/xlink" width="400" height="225" viewBox="0, 0, 400,225"><g id="svgg"><path id="path0" d="M84.227 17.589 C 82.998 17.943,82.784 18.794,82.873 22.993 C 82.944 26.343,82.979 26.580,83.461 27.062 L 83.974 27.575 117.733 27.634 L 151.491 27.693 151.491 85.072 C 151.491 116.630,151.559 142.627,151.642 142.844 C 151.740 143.100,151.707 143.183,151.545 143.084 C 151.375 142.978,151.324 143.248,151.381 143.947 C 151.431 144.558,151.369 144.963,151.228 144.963 C 151.086 144.963,151.050 145.210,151.136 145.582 C 151.248 146.066,151.226 146.128,151.032 145.864 C 150.837 145.599,150.803 145.682,150.873 146.252 C 150.922 146.652,150.879 147.006,150.778 147.040 C 150.678 147.074,150.438 147.710,150.247 148.452 C 149.413 151.682,147.800 155.234,145.798 158.244 C 143.914 161.079,143.810 161.223,143.117 161.973 C 142.766 162.353,142.557 162.741,142.652 162.836 C 142.747 162.931,142.673 162.975,142.487 162.934 C 142.282 162.888,142.161 163.010,142.179 163.244 C 142.196 163.456,142.145 163.608,142.067 163.581 C 141.855 163.511,139.889 165.530,139.961 165.745 C 139.995 165.848,139.914 165.864,139.782 165.782 C 139.466 165.587,138.849 166.106,139.036 166.408 C 139.115 166.537,139.077 166.579,138.951 166.500 C 138.824 166.422,138.534 166.564,138.307 166.816 C 137.786 167.391,134.365 169.722,133.082 170.376 C 132.551 170.646,132.176 170.963,132.249 171.081 C 132.325 171.203,132.216 171.231,131.995 171.147 C 131.735 171.047,131.661 171.083,131.770 171.259 C 131.879 171.435,131.805 171.472,131.545 171.372 C 131.262 171.263,131.208 171.303,131.343 171.522 C 131.460 171.711,131.440 171.766,131.288 171.672 C 131.010 171.500,130.291 171.726,130.424 171.943 C 130.474 172.022,130.296 172.100,130.029 172.115 C 129.762 172.131,128.936 172.403,128.194 172.720 C 127.451 173.038,126.006 173.539,124.983 173.834 C 123.960 174.129,123.179 174.426,123.246 174.494 C 123.314 174.562,123.098 174.565,122.766 174.502 C 122.309 174.414,122.206 174.458,122.342 174.679 C 122.455 174.861,122.434 174.916,122.286 174.825 C 122.156 174.744,121.106 174.745,119.954 174.827 C 118.793 174.909,118.050 175.043,118.287 175.126 C 118.687 175.266,118.683 175.285,118.221 175.405 C 117.949 175.476,117.670 175.443,117.601 175.331 C 117.532 175.218,117.323 175.127,117.137 175.127 C 116.951 175.127,116.846 175.203,116.903 175.295 C 116.960 175.388,116.165 175.464,115.137 175.464 C 114.108 175.464,113.383 175.390,113.527 175.299 C 113.697 175.191,113.656 175.132,113.407 175.130 C 113.197 175.128,112.969 175.218,112.900 175.331 C 112.831 175.443,112.552 175.476,112.280 175.405 C 111.807 175.282,111.804 175.268,112.224 175.094 C 112.492 174.982,112.037 174.931,111.051 174.963 C 110.164 174.991,109.494 174.925,109.562 174.817 C 109.629 174.709,109.323 174.662,108.882 174.714 C 108.417 174.768,108.134 174.719,108.209 174.597 C 108.283 174.477,108.086 174.435,107.750 174.499 C 107.426 174.561,107.201 174.545,107.251 174.465 C 107.390 174.239,104.268 173.495,103.967 173.681 C 103.818 173.773,103.760 173.749,103.835 173.628 C 103.909 173.508,102.988 173.025,101.788 172.553 C 100.588 172.082,99.252 171.490,98.818 171.238 C 98.385 170.987,97.342 170.387,96.501 169.905 C 94.910 168.995,92.581 167.306,92.076 166.699 C 91.730 166.281,91.293 166.226,91.525 166.629 C 91.619 166.793,91.601 166.832,91.482 166.723 C 91.370 166.620,91.272 166.468,91.264 166.385 C 91.248 166.189,87.947 162.889,87.751 162.872 C 87.668 162.865,87.516 162.767,87.413 162.654 C 87.304 162.535,87.344 162.517,87.507 162.611 C 88.028 162.911,87.794 162.434,87.027 161.630 C 86.089 160.648,83.614 156.968,83.158 155.877 C 82.974 155.436,82.726 155.135,82.607 155.208 C 82.482 155.285,82.454 155.178,82.539 154.955 C 82.639 154.695,82.603 154.621,82.427 154.730 C 82.251 154.839,82.214 154.765,82.314 154.505 C 82.414 154.245,82.378 154.171,82.202 154.280 C 82.031 154.385,81.988 154.319,82.076 154.089 C 82.150 153.895,82.083 153.581,81.925 153.392 C 81.768 153.202,81.219 151.782,80.705 150.237 C 80.192 148.692,79.719 147.480,79.655 147.544 C 79.591 147.609,79.585 147.344,79.642 146.956 C 79.700 146.559,79.655 146.306,79.539 146.378 C 79.425 146.448,79.330 146.285,79.327 146.016 C 79.309 144.407,79.212 143.600,79.049 143.701 C 78.947 143.764,78.864 143.643,78.864 143.433 C 78.871 138.188,78.754 137.985,75.721 137.985 L 73.763 137.985 73.906 140.981 C 74.681 157.131,85.433 171.911,100.456 177.475 C 126.426 187.093,154.081 169.638,156.426 142.150 C 156.672 139.263,156.812 18.198,156.570 17.806 C 156.497 17.688,156.616 17.545,156.835 17.488 C 157.053 17.431,140.974 17.382,121.103 17.379 C 98.760 17.375,84.689 17.455,84.227 17.589 " stroke="none" fill="#bb0505" fill-rule="evenodd"></path><path id="path1" d="M156.835 17.488 C 156.616 17.545,156.497 17.688,156.570 17.806 C 156.812 18.198,156.672 139.263,156.426 142.150 C 154.081 169.638,126.426 187.093,100.456 177.475 C 85.438 171.913,74.681 157.130,73.907 140.993 L 73.764 138.010 75.092 137.928 C 75.983 137.873,75.716 137.838,74.282 137.822 C 68.952 137.763,68.558 138.030,68.738 141.579 C 69.808 162.713,85.690 180.974,106.134 184.574 C 107.001 184.727,108.196 184.943,108.790 185.054 C 110.329 185.342,120.247 185.305,121.877 185.005 C 143.927 180.952,158.436 166.188,161.447 144.738 C 161.603 143.624,161.730 126.333,161.821 93.866 L 161.958 44.682 162.557 46.145 C 163.183 47.676,166.132 54.259,167.265 56.654 C 167.627 57.420,167.923 58.106,167.923 58.178 C 167.923 58.251,168.315 59.143,168.793 60.162 C 169.271 61.181,170.041 62.876,170.505 63.928 C 171.729 66.702,174.526 72.944,175.701 75.521 C 176.039 76.263,176.695 77.732,177.158 78.784 C 177.620 79.837,178.681 82.217,179.514 84.074 C 180.348 85.931,181.431 88.362,181.922 89.477 C 182.413 90.591,183.118 92.161,183.488 92.966 C 183.859 93.770,184.251 94.631,184.359 94.879 C 184.641 95.523,187.419 101.718,189.205 105.684 C 190.041 107.541,190.872 109.415,191.052 109.848 C 191.232 110.281,191.637 111.193,191.951 111.874 C 192.266 112.555,192.902 113.973,193.364 115.025 C 193.827 116.078,195.191 119.116,196.396 121.778 C 197.601 124.440,199.071 127.732,199.664 129.094 C 200.257 130.456,201.043 132.228,201.411 133.033 C 201.778 133.838,202.490 135.408,202.992 136.522 C 203.494 137.636,204.684 140.270,205.636 142.375 C 206.588 144.479,207.497 146.556,207.655 146.989 C 207.814 147.423,208.258 148.405,208.643 149.171 C 209.027 149.938,209.342 150.609,209.342 150.661 C 209.342 150.714,210.467 153.227,211.843 156.245 C 213.219 159.264,214.929 163.050,215.643 164.660 C 216.357 166.269,217.270 168.295,217.671 169.162 C 218.073 170.028,218.679 171.396,219.019 172.200 C 219.359 173.005,220.246 175.031,220.989 176.702 C 224.142 183.789,224.069 183.680,225.661 183.680 C 227.137 183.680,227.296 183.446,229.945 177.378 C 230.405 176.325,231.123 174.733,231.541 173.839 C 231.959 172.945,232.302 172.166,232.302 172.108 C 232.302 172.049,232.717 171.110,233.226 170.019 C 233.734 168.928,234.229 167.833,234.326 167.586 C 234.423 167.338,235.865 164.147,237.531 160.495 C 239.196 156.843,241.299 152.183,242.203 150.141 C 243.108 148.098,244.238 145.581,244.715 144.547 C 245.192 143.513,245.582 142.628,245.582 142.578 C 245.582 142.529,245.947 141.704,246.394 140.744 C 246.840 139.784,247.809 137.631,248.548 135.959 C 249.288 134.288,250.131 132.414,250.422 131.795 C 250.714 131.176,251.510 129.403,252.191 127.856 C 252.872 126.308,254.004 123.776,254.705 122.228 C 255.407 120.681,256.262 118.756,256.607 117.952 C 256.951 117.147,257.549 115.805,257.935 114.969 C 259.352 111.906,259.989 110.490,259.989 110.401 C 259.989 110.351,260.280 109.674,260.636 108.897 C 260.991 108.120,261.811 106.320,262.456 104.896 C 263.102 103.472,264.077 101.324,264.623 100.121 C 265.169 98.919,265.616 97.891,265.616 97.836 C 265.616 97.782,266.011 96.891,266.495 95.858 C 266.978 94.824,267.929 92.712,268.610 91.165 C 270.346 87.215,272.960 81.405,273.738 79.765 C 274.100 79.005,274.395 78.324,274.395 78.252 C 274.395 78.180,274.851 77.159,275.408 75.983 C 275.965 74.806,276.421 73.795,276.421 73.736 C 276.421 73.676,277.188 71.926,278.126 69.847 C 281.680 61.968,281.992 61.273,283.164 58.638 C 284.569 55.479,285.588 53.216,286.659 50.872 C 287.310 49.449,288.235 47.372,288.716 46.258 L 289.589 44.232 289.702 114.538 L 289.814 184.845 290.413 185.360 C 291.625 186.402,298.040 186.392,299.086 185.346 L 299.606 184.826 299.606 101.767 L 299.606 18.708 299.063 18.077 C 298.524 17.449,298.500 17.445,295.393 17.368 C 290.739 17.254,290.572 17.323,289.364 19.878 C 288.266 22.201,283.807 32.123,282.466 35.228 C 281.985 36.342,281.448 37.511,281.273 37.825 C 281.098 38.139,280.755 38.899,280.512 39.513 C 280.269 40.128,279.759 41.289,279.380 42.093 C 279.000 42.898,278.088 44.924,277.353 46.595 C 275.335 51.185,272.874 56.668,272.131 58.230 C 271.767 58.996,271.469 59.676,271.469 59.741 C 271.469 59.806,271.013 60.834,270.456 62.027 C 269.899 63.219,269.443 64.228,269.443 64.269 C 269.443 64.310,268.675 66.048,267.736 68.131 C 264.728 74.808,264.315 75.726,263.862 76.759 C 262.889 78.972,260.334 84.658,259.272 86.971 C 258.654 88.316,257.815 90.190,257.408 91.135 C 257.001 92.080,256.352 93.539,255.965 94.378 C 255.578 95.217,255.262 95.941,255.262 95.988 C 255.262 96.035,254.868 96.919,254.386 97.952 C 253.905 98.986,253.132 100.692,252.670 101.745 C 252.207 102.797,251.345 104.721,250.755 106.021 C 250.164 107.321,249.304 109.246,248.842 110.298 C 248.381 111.351,247.662 112.943,247.243 113.837 C 246.825 114.731,246.483 115.509,246.483 115.565 C 246.483 115.622,246.116 116.460,245.668 117.429 C 245.220 118.397,244.268 120.506,243.553 122.116 C 242.838 123.725,241.887 125.828,241.441 126.788 C 240.995 127.748,240.630 128.576,240.630 128.629 C 240.630 128.682,240.335 129.365,239.974 130.147 C 239.612 130.930,238.915 132.482,238.424 133.596 C 237.933 134.710,237.250 136.230,236.907 136.972 C 236.565 137.715,235.857 139.285,235.334 140.461 C 232.824 146.113,231.339 149.433,230.954 150.253 C 230.721 150.748,229.659 153.129,228.593 155.543 C 225.820 161.825,225.768 161.931,225.562 161.709 C 225.459 161.599,224.744 160.090,223.972 158.357 C 223.201 156.624,222.227 154.464,221.808 153.557 C 221.389 152.650,221.047 151.870,221.047 151.823 C 221.047 151.775,220.747 151.099,220.382 150.320 C 219.732 148.935,217.809 144.650,215.199 138.773 C 214.484 137.164,213.532 135.055,213.084 134.086 C 212.635 133.117,212.268 132.282,212.268 132.230 C 212.268 132.178,211.922 131.385,211.499 130.469 C 211.075 129.553,210.405 128.059,210.008 127.148 C 209.612 126.237,208.844 124.544,208.301 123.385 C 207.759 122.225,207.316 121.240,207.316 121.194 C 207.316 121.097,203.572 112.737,199.793 104.394 C 198.854 102.322,198.087 100.584,198.087 100.531 C 198.087 100.479,197.631 99.460,197.074 98.268 C 196.517 97.075,196.061 96.051,196.061 95.991 C 196.061 95.932,195.656 95.026,195.160 93.979 C 194.665 92.931,194.260 92.027,194.260 91.969 C 194.260 91.911,193.914 91.124,193.491 90.220 C 192.654 88.432,191.122 85.032,189.769 81.966 C 189.298 80.897,188.546 79.230,188.097 78.262 C 187.649 77.293,187.282 76.447,187.282 76.380 C 187.282 76.314,186.988 75.638,186.629 74.877 C 185.978 73.498,183.603 68.214,180.087 60.326 C 177.545 54.624,176.784 52.930,174.808 48.576 C 173.869 46.509,173.101 44.774,173.101 44.721 C 173.101 44.667,172.594 43.556,171.975 42.250 C 171.356 40.944,170.850 39.825,170.850 39.762 C 170.850 39.700,170.536 38.958,170.153 38.114 C 169.316 36.268,167.931 33.207,166.372 29.760 C 165.740 28.361,165.222 27.180,165.222 27.135 C 165.222 27.089,164.879 26.309,164.460 25.400 C 162.904 22.026,161.846 19.576,161.846 19.347 C 161.846 17.838,159.223 16.865,156.835 17.488 M78.860 141.362 C 78.860 142.290,78.900 142.670,78.948 142.206 C 78.997 141.742,78.997 140.982,78.948 140.518 C 78.900 140.053,78.860 140.433,78.860 141.362 M151.191 143.763 C 150.981 143.973,151.003 144.963,151.218 144.963 C 151.316 144.963,151.419 144.660,151.447 144.288 C 151.500 143.596,151.453 143.501,151.191 143.763 M112.224 175.117 C 111.807 175.268,111.810 175.282,112.280 175.405 C 112.552 175.476,112.826 175.450,112.890 175.346 C 113.067 175.060,112.715 174.939,112.224 175.117 M117.611 175.132 C 117.434 175.419,117.786 175.540,118.277 175.361 C 118.694 175.210,118.691 175.196,118.221 175.073 C 117.949 175.002,117.675 175.029,117.611 175.132 " stroke="none" fill="#646464" fill-rule="evenodd"></path></g></svg>