<svg id="svg" version="1.1" xmlns="http://www.w3.org/2000/svg" xmlns:xlink="http://www.w3.org/1999/xlink" width="400" height="225" viewBox="0, 0, 400,225"><g id="svgg"><path id="path0" d="M84.637 14.112 C 82.511 14.468,80.135 16.060,80.135 17.130 C 80.135 17.351,80.034 17.594,79.910 17.670 C 79.786 17.747,79.685 18.101,79.685 18.458 C 79.685 18.815,79.584 19.169,79.460 19.246 C 79.327 19.328,79.235 20.669,79.235 22.510 C 79.235 24.350,79.327 25.692,79.460 25.774 C 79.584 25.850,79.685 26.148,79.685 26.435 C 79.685 27.917,80.986 29.668,82.605 30.364 C 84.573 31.211,87.114 31.277,118.012 31.283 L 147.897 31.289 147.837 88.002 C 147.790 133.008,147.719 144.774,147.496 144.997 C 147.341 145.152,147.214 145.564,147.214 145.912 C 147.214 146.260,147.123 146.721,147.011 146.936 C 146.900 147.151,146.679 147.783,146.522 148.340 C 146.365 148.897,146.152 149.449,146.050 149.567 C 145.947 149.684,145.864 149.924,145.864 150.098 C 145.864 151.125,142.777 156.354,140.515 159.159 C 125.148 178.213,96.488 174.682,85.591 152.392 C 83.719 148.564,82.841 145.524,82.404 141.362 C 81.815 135.750,79.283 133.916,73.044 134.582 C 71.869 134.707,71.556 134.789,72.144 134.817 C 72.639 134.841,73.450 134.938,73.945 135.032 L 74.845 135.205 73.382 135.441 L 71.919 135.677 73.044 135.722 C 73.860 135.754,74.046 135.815,73.720 135.945 L 73.270 136.124 73.720 136.241 C 74.087 136.336,74.097 136.362,73.776 136.384 C 73.297 136.415,73.244 136.860,73.720 136.860 C 73.905 136.860,74.057 136.961,74.057 137.085 C 74.057 137.209,73.953 137.310,73.826 137.310 C 73.687 137.310,73.638 137.691,73.703 138.267 C 73.763 138.793,73.876 140.338,73.955 141.699 C 74.835 157.016,84.480 170.442,99.331 177.026 C 100.047 177.343,100.732 177.603,100.854 177.603 C 100.976 177.603,101.251 177.695,101.466 177.809 C 103.807 179.043,110.129 180.079,115.317 180.079 C 119.113 180.079,120.258 179.960,124.142 179.164 C 139.690 175.975,152.871 162.517,155.763 146.877 C 156.656 142.050,156.653 142.273,156.674 79.580 C 156.685 46.405,156.776 19.157,156.876 19.029 C 157.306 18.477,157.362 16.240,156.951 16.000 C 156.615 15.805,156.658 15.765,157.231 15.734 C 157.905 15.698,157.905 15.697,157.119 15.532 L 156.331 15.366 157.344 15.333 C 158.670 15.290,158.110 14.876,156.669 14.834 L 155.656 14.805 156.556 14.618 C 157.051 14.516,157.912 14.414,158.469 14.391 L 159.482 14.350 158.469 14.170 C 157.458 13.990,85.703 13.933,84.637 14.112 M148.734 111.800 C 148.702 126.635,148.676 114.564,148.676 84.975 C 148.676 55.385,148.702 43.247,148.734 58.001 C 148.766 72.755,148.766 96.964,148.734 111.800 " stroke="none" fill="#bb0505" fill-rule="evenodd"></path><path id="path1" d="M122.604 13.950 C 142.681 14.015,159.183 14.145,159.276 14.237 C 159.369 14.330,158.997 14.412,158.451 14.419 C 157.904 14.426,157.051 14.516,156.556 14.618 L 155.656 14.805 156.669 14.834 C 158.110 14.876,158.670 15.290,157.344 15.333 L 156.331 15.366 157.119 15.532 C 157.905 15.697,157.905 15.698,157.231 15.734 C 156.658 15.765,156.615 15.805,156.951 16.000 C 157.362 16.240,157.306 18.477,156.876 19.029 C 156.776 19.157,156.685 46.405,156.674 79.580 C 156.653 142.273,156.656 142.050,155.763 146.877 C 152.871 162.517,139.690 175.975,124.142 179.164 C 120.258 179.960,119.113 180.079,115.317 180.079 C 110.129 180.079,103.807 179.043,101.466 177.809 C 101.251 177.695,100.976 177.603,100.854 177.603 C 100.732 177.603,100.047 177.343,99.331 177.026 C 84.480 170.442,74.835 157.016,73.955 141.699 C 73.876 140.338,73.763 138.793,73.703 138.267 C 73.638 137.691,73.687 137.310,73.826 137.310 C 73.953 137.310,74.057 137.209,74.057 137.085 C 74.057 136.961,73.905 136.860,73.720 136.860 C 73.243 136.860,73.297 136.413,73.776 136.394 C 74.110 136.380,74.101 136.351,73.720 136.199 L 73.270 136.020 73.720 135.903 C 73.967 135.839,73.663 135.762,73.044 135.732 L 71.919 135.677 73.382 135.441 L 74.845 135.205 73.945 135.032 C 73.450 134.938,72.639 134.837,72.144 134.809 C 71.357 134.765,71.413 134.737,72.594 134.592 C 73.693 134.457,73.546 134.440,71.806 134.501 C 65.209 134.734,63.943 138.400,66.327 150.366 C 66.706 152.268,66.757 152.448,67.890 155.881 C 79.958 192.449,130.137 200.785,154.737 170.308 C 156.364 168.291,160.495 161.625,160.495 161.015 C 160.495 160.961,160.741 160.380,161.040 159.725 C 162.931 155.592,164.172 150.827,165.033 144.401 C 165.194 143.199,165.304 129.203,165.364 102.307 C 165.445 65.766,165.485 62.077,165.801 62.685 C 165.993 63.054,167.399 66.144,168.927 69.551 C 170.454 72.958,171.958 76.303,172.268 76.984 C 172.578 77.665,174.118 81.109,175.690 84.637 C 177.262 88.165,178.751 91.508,179.000 92.065 C 179.248 92.622,179.745 93.718,180.103 94.501 C 180.461 95.283,180.754 95.958,180.754 96.000 C 180.754 96.042,181.101 96.820,181.525 97.729 C 182.231 99.240,184.973 105.359,187.057 110.073 C 187.522 111.125,188.269 112.779,188.718 113.747 C 189.166 114.716,189.533 115.542,189.533 115.582 C 189.533 115.623,189.938 116.525,190.433 117.587 C 190.929 118.649,191.334 119.561,191.334 119.615 C 191.334 119.668,191.679 120.456,192.101 121.364 C 192.524 122.273,193.728 124.941,194.779 127.293 C 195.829 129.645,196.990 132.228,197.358 133.033 C 198.304 135.102,198.827 136.276,199.666 138.210 C 200.068 139.139,201.105 141.469,201.969 143.388 C 202.833 145.307,203.743 147.333,203.990 147.890 C 204.237 148.447,204.695 149.460,205.006 150.141 C 205.317 150.822,206.683 153.860,208.040 156.894 C 209.397 159.927,210.792 163.016,211.138 163.759 C 211.681 164.922,212.861 167.547,215.136 172.651 C 215.440 173.331,215.919 174.395,216.202 175.014 C 216.485 175.633,216.868 176.494,217.053 176.927 C 219.418 182.450,220.274 184.179,220.975 184.849 C 223.279 187.049,228.601 186.931,230.532 184.637 C 230.848 184.261,231.746 182.499,232.528 180.722 C 233.309 178.944,234.389 176.544,234.926 175.387 C 235.463 174.231,235.903 173.250,235.903 173.209 C 235.903 173.167,236.271 172.341,236.720 171.373 C 237.169 170.404,238.071 168.396,238.725 166.911 C 239.378 165.425,240.378 163.227,240.947 162.025 C 241.515 160.824,241.981 159.796,241.981 159.741 C 241.981 159.685,242.393 158.743,242.896 157.648 C 243.399 156.552,243.946 155.352,244.111 154.980 C 244.276 154.609,244.979 153.059,245.672 151.535 C 246.366 150.012,246.933 148.730,246.933 148.686 C 246.933 148.642,247.374 147.660,247.913 146.504 C 248.452 145.347,249.362 143.323,249.934 142.005 C 250.507 140.687,251.382 138.731,251.880 137.658 C 252.378 136.585,252.786 135.660,252.786 135.603 C 252.786 135.545,253.241 134.537,253.797 133.363 C 254.353 132.188,255.058 130.632,255.365 129.905 C 255.671 129.177,256.381 127.599,256.942 126.397 C 257.504 125.196,257.963 124.172,257.963 124.122 C 257.963 124.042,258.510 122.808,260.499 118.402 C 260.806 117.721,261.465 116.252,261.962 115.138 C 262.460 114.024,263.121 112.555,263.431 111.874 C 264.741 108.998,266.967 103.978,266.967 103.900 C 266.967 103.853,267.379 102.919,267.882 101.823 C 268.385 100.728,268.934 99.527,269.100 99.156 C 269.267 98.784,269.727 97.772,270.122 96.905 C 270.518 96.038,271.695 93.405,272.739 91.052 C 273.784 88.700,274.887 86.250,275.192 85.608 C 275.496 84.966,275.746 84.391,275.746 84.331 C 275.746 84.271,276.252 83.142,276.871 81.823 C 277.490 80.504,277.997 79.390,277.997 79.346 C 277.997 79.303,278.338 78.526,278.755 77.619 C 279.171 76.713,280.860 72.932,282.507 69.218 C 284.155 65.504,285.637 62.265,285.801 62.021 C 286.050 61.651,286.100 71.847,286.100 122.840 C 286.100 163.440,286.176 184.151,286.325 184.243 C 286.449 184.320,286.550 184.680,286.550 185.044 C 286.550 185.408,286.652 185.706,286.775 185.706 C 286.899 185.706,287.001 185.919,287.001 186.178 C 287.001 190.653,301.448 190.806,302.429 186.341 C 302.505 185.992,302.661 185.706,302.775 185.706 C 302.889 185.706,302.983 185.408,302.983 185.044 C 302.983 184.680,303.084 184.320,303.208 184.243 C 303.357 184.151,303.433 156.408,303.433 101.745 C 303.433 47.081,303.357 19.338,303.208 19.246 C 303.084 19.169,302.983 18.809,302.983 18.445 C 302.983 18.081,302.892 17.783,302.782 17.783 C 302.671 17.783,302.513 17.510,302.429 17.177 C 301.807 14.698,297.971 13.416,292.781 13.952 C 288.096 14.436,287.429 15.039,284.567 21.384 C 283.589 23.551,282.582 25.779,282.328 26.337 C 282.074 26.894,281.036 29.223,280.023 31.514 C 279.009 33.804,277.986 36.109,277.750 36.635 C 277.514 37.161,277.106 38.073,276.842 38.661 C 276.579 39.249,276.030 40.454,275.623 41.338 C 275.216 42.223,274.557 43.691,274.160 44.602 C 273.763 45.513,273.045 47.103,272.566 48.137 C 272.086 49.171,271.694 50.060,271.694 50.113 C 271.694 50.209,270.077 53.803,268.634 56.914 C 268.212 57.822,267.867 58.600,267.867 58.642 C 267.867 58.684,267.526 59.460,267.108 60.366 C 266.691 61.273,265.180 64.648,263.750 67.867 C 262.321 71.086,260.849 74.378,260.479 75.183 C 260.109 75.988,258.319 79.989,256.500 84.074 C 254.682 88.160,252.849 92.246,252.427 93.155 C 252.005 94.063,251.660 94.841,251.660 94.883 C 251.660 94.924,251.313 95.711,250.888 96.630 C 250.463 97.550,249.242 100.267,248.174 102.668 C 247.107 105.070,245.935 107.672,245.570 108.451 C 245.205 109.231,244.907 109.910,244.907 109.962 C 244.907 110.014,244.451 111.031,243.894 112.224 C 243.337 113.416,242.881 114.427,242.881 114.470 C 242.881 114.513,242.491 115.390,242.013 116.419 C 241.536 117.448,240.815 119.049,240.410 119.977 C 239.711 121.584,238.410 124.487,237.000 127.590 C 236.644 128.373,236.353 129.046,236.353 129.087 C 236.353 129.128,235.961 130.008,235.481 131.041 C 235.001 132.075,233.168 136.162,231.407 140.124 C 228.367 146.964,227.903 147.996,226.555 150.929 C 225.801 152.567,225.453 152.517,224.613 150.647 C 224.238 149.811,223.586 148.384,223.164 147.476 C 222.742 146.567,222.397 145.789,222.397 145.747 C 222.397 145.705,222.107 145.030,221.752 144.248 C 220.168 140.760,219.213 138.631,218.386 136.747 C 217.897 135.633,217.225 134.114,216.892 133.371 C 216.559 132.628,216.150 131.716,215.983 131.345 C 215.817 130.974,215.267 129.777,214.762 128.687 C 214.257 127.596,213.844 126.664,213.844 126.615 C 213.844 126.566,213.545 125.888,213.181 125.109 C 212.817 124.329,211.207 120.754,209.605 117.164 C 208.002 113.573,206.436 110.079,206.126 109.398 C 205.815 108.717,204.323 105.374,202.810 101.970 C 201.297 98.565,199.556 94.665,198.941 93.303 C 198.326 91.941,197.436 89.966,196.963 88.914 C 196.490 87.862,195.829 86.393,195.494 85.650 C 195.159 84.907,194.351 83.084,193.700 81.598 C 193.048 80.113,192.212 78.239,191.841 77.434 C 191.218 76.079,190.938 75.460,189.702 72.707 C 189.452 72.150,188.997 71.137,188.691 70.456 C 188.384 69.775,187.999 68.914,187.835 68.542 C 187.671 68.171,186.454 65.436,185.131 62.465 C 182.800 57.231,182.256 56.018,181.116 53.517 C 180.819 52.867,179.563 50.056,178.324 47.271 C 177.085 44.485,175.721 41.446,175.292 40.518 C 174.863 39.589,172.915 35.234,170.963 30.838 C 169.011 26.443,167.115 22.189,166.749 21.384 C 166.383 20.580,165.940 19.592,165.765 19.190 C 165.590 18.787,165.283 18.088,165.083 17.636 C 164.410 16.117,163.062 14.907,161.423 14.350 L 159.932 13.844 123.016 13.838 L 86.100 13.832 122.604 13.950 M81.273 15.218 C 80.889 15.541,80.468 16.022,80.337 16.288 C 80.170 16.627,80.288 16.566,80.736 16.083 C 81.087 15.706,81.624 15.225,81.930 15.014 C 82.236 14.804,82.370 14.631,82.228 14.631 C 82.086 14.631,81.656 14.896,81.273 15.218 M80.316 28.700 C 80.720 29.498,82.471 30.828,82.750 30.549 C 82.805 30.494,82.539 30.320,82.159 30.162 C 81.778 30.005,81.157 29.510,80.778 29.063 C 80.399 28.616,80.191 28.452,80.316 28.700 M86.159 31.223 C 86.439 31.277,86.844 31.275,87.059 31.218 C 87.275 31.162,87.046 31.118,86.550 31.120 C 86.055 31.123,85.879 31.169,86.159 31.223 M148.676 84.975 C 148.676 114.564,148.702 126.635,148.734 111.800 C 148.766 96.964,148.766 72.755,148.734 58.001 C 148.702 43.247,148.676 55.385,148.676 84.975 M76.030 134.543 C 76.310 134.597,76.715 134.595,76.930 134.538 C 77.145 134.482,76.916 134.438,76.421 134.441 C 75.926 134.443,75.750 134.489,76.030 134.543 M79.947 135.614 C 80.908 136.267,81.621 137.341,81.909 138.568 C 82.054 139.184,82.123 139.284,82.138 138.901 C 82.187 137.710,80.268 135.059,79.356 135.059 C 79.232 135.059,79.498 135.309,79.947 135.614 M82.384 141.316 L 82.494 143.050 82.564 141.497 C 82.602 140.642,82.552 139.862,82.453 139.762 C 82.354 139.663,82.323 140.362,82.384 141.316 M147.434 144.109 C 147.374 144.691,147.409 145.084,147.510 144.983 C 147.612 144.881,147.661 144.404,147.619 143.924 L 147.543 143.050 147.434 144.109 M146.963 146.265 C 146.888 146.712,146.921 146.922,147.046 146.797 C 147.160 146.684,147.215 146.351,147.169 146.059 C 147.098 145.608,147.066 145.640,146.963 146.265 M142.396 156.387 C 141.939 157.099,141.800 157.404,142.088 157.066 C 142.656 156.398,143.471 155.093,143.320 155.093 C 143.268 155.093,142.853 155.675,142.396 156.387 M88.218 157.081 C 88.340 157.308,88.616 157.637,88.832 157.813 C 89.075 158.010,89.021 157.853,88.689 157.400 C 88.098 156.593,87.877 156.442,88.218 157.081 M137.985 161.733 C 137.063 162.662,136.359 163.421,136.421 163.421 C 136.483 163.421,137.288 162.662,138.210 161.733 C 139.133 160.805,139.837 160.045,139.775 160.045 C 139.713 160.045,138.908 160.805,137.985 161.733 M92.178 161.846 C 92.788 162.465,93.337 162.971,93.399 162.971 C 93.461 162.971,93.013 162.465,92.403 161.846 C 91.793 161.227,91.244 160.720,91.182 160.720 C 91.120 160.720,91.568 161.227,92.178 161.846 M93.711 163.127 C 93.900 163.434,95.667 164.859,95.667 164.706 C 95.667 164.648,95.190 164.211,94.608 163.734 C 94.026 163.257,93.622 162.984,93.711 163.127 M96.944 165.690 C 97.223 166.029,98.593 166.890,98.593 166.728 C 98.593 166.676,98.163 166.349,97.636 166.002 C 97.110 165.655,96.799 165.515,96.944 165.690 M128.981 168.149 C 128.301 168.508,127.823 168.807,127.920 168.813 C 128.159 168.828,130.332 167.719,130.332 167.582 C 130.332 167.432,130.363 167.419,128.981 168.149 M100.394 167.809 C 100.394 167.963,101.772 168.646,101.875 168.543 C 101.924 168.494,101.611 168.286,101.179 168.080 C 100.747 167.874,100.394 167.752,100.394 167.809 M114.523 171.688 C 114.927 171.738,115.535 171.737,115.873 171.686 C 116.212 171.635,115.881 171.594,115.138 171.595 C 114.395 171.596,114.118 171.638,114.523 171.688 " stroke="none" fill="#646464" fill-rule="evenodd"></path></g></svg>